<?xml version="1.0" encoding="iso-8859-1"?>
<!-- Generator: Adobe Illustrator 29.6.1, SVG Export Plug-In . SVG Version: 9.03 Build 0)  -->
<svg version="1.1" id="Layer_1" xmlns="http://www.w3.org/2000/svg" xmlns:xlink="http://www.w3.org/1999/xlink" x="0px" y="0px"
	 viewBox="0 0 500 463" style="enable-background:new 0 0 500 463;" xml:space="preserve">
<path d="M90.993,255c-8.519,0-16.133,3.477-21.442,9.784c-3.284,3.906-6.714,10.202-6.993,19.63c-3.573-1.02-7.009-1.59-10.219-1.59
	c-8.156,0-15.523,3.106-20.732,8.749c-6.693,7.242-9.666,16.142-8.372,25.047c0.616,4.241,2.042,8.043,4.173,11.562
	c-4.494,3.613-7.803,8.644-9.403,14.694c-1.252,4.743-2.536,14.621,4.167,24.797c-0.426,0.664-0.826,1.354-1.2,2.06
	c-4.031,7.603-4.288,16.194-0.731,24.195c5.393,12.126,18.796,21.68,44.821,31.935c16.191,6.379,31.004,10.458,31.135,10.494
	c21.405,5.517,40.764,8.32,57.523,8.32c30.804,0,52.857-9.376,65.549-27.866c20.427-29.775,17.506-57.008-8.924-83.259
	c-14.629-14.526-24.353-35.945-26.379-40.646c-4.083-13.92-14.881-29.393-32.829-29.393h-0.005c-1.511,0-3.037,0.12-4.541,0.356
	c-7.862,1.228-14.734,5.726-19.643,12.492c-5.299-6.547-10.445-11.755-15.102-14.694C104.827,257.243,97.813,255,90.993,255z
	 M90.993,275.917c2.684,0,5.962,1.134,9.576,3.414c11.224,7.075,32.882,44.072,40.812,58.462c2.657,4.821,7.199,6.861,11.287,6.861
	c8.114,0,14.449-8.016,0.742-18.203c-20.611-15.327-13.381-40.379-3.541-41.922c0.431-0.068,0.857-0.099,1.268-0.099
	c8.945,0,12.892,15.321,12.892,15.321s11.565,28.865,31.435,48.595c19.869,19.734,20.895,35.573,6.414,56.678
	c-9.877,14.391-28.783,16.268-48.158,16.268c-20.095,0-40.731-3.52-52.276-6.496c-0.568-0.146-70.743-18.541-61.85-35.316
	c1.494-2.819,3.957-3.948,7.056-3.948c12.523,0,35.303,18.522,45.095,18.522c2.189,0,3.82-1.683,4.452-3.942
	c4.357-15.59-63.533-20.374-57.834-41.923c1.005-3.812,3.731-5.36,7.562-5.355c16.549,0,53.677,28.922,61.46,28.922
	c0.594,0,1.02-0.172,1.252-0.538c3.899-6.254,2.103-11.346-25.38-27.875c-27.483-16.535-47.114-25.755-36.143-37.625
	c1.263-1.371,3.052-1.977,5.225-1.977c16.686,0.005,56.108,35.657,56.108,35.657s10.64,10.997,17.076,10.997
	c1.478,0,2.736-0.58,3.588-2.013c4.562-7.645-42.374-42.994-45.021-57.578C82.296,280.921,85.347,275.917,90.993,275.917z"/>
<path d="M408.105,255c8.519,0,16.133,3.477,21.442,9.784c3.284,3.906,6.715,10.202,6.994,19.63c3.572-1.02,7.008-1.59,10.218-1.59
	c8.156,0,15.523,3.106,20.732,8.749c6.694,7.242,9.667,16.142,8.372,25.047c-0.615,4.241-2.041,8.043-4.173,11.562
	c4.494,3.613,7.804,8.644,9.404,14.694c1.252,4.743,2.536,14.621-4.168,24.797c0.426,0.664,0.826,1.354,1.2,2.06
	c4.031,7.603,4.288,16.194,0.731,24.195c-5.393,12.126-18.795,21.68-44.821,31.935c-16.191,6.379-31.004,10.458-31.135,10.494
	c-21.406,5.517-40.765,8.32-57.524,8.32c-30.804,0-52.857-9.376-65.548-27.866c-20.427-29.775-17.507-57.008,8.924-83.259
	c14.628-14.526,24.352-35.945,26.378-40.646c4.083-13.92,14.881-29.393,32.83-29.393h0.005c1.51,0,3.036,0.12,4.541,0.356
	c7.861,1.228,14.733,5.726,19.643,12.492c5.299-6.547,10.445-11.755,15.102-14.694C394.271,257.243,401.285,255,408.105,255z
	 M408.105,275.917c-2.684,0-5.962,1.134-9.577,3.414c-11.224,7.075-32.882,44.072-40.812,58.462
	c-2.657,4.821-7.198,6.861-11.287,6.861c-8.114,0-14.449-8.016-0.742-18.203c20.612-15.327,13.382-40.379,3.542-41.922
	c-0.432-0.068-0.858-0.099-1.268-0.099c-8.946,0-12.892,15.321-12.892,15.321s-11.566,28.865-31.435,48.595
	c-19.87,19.734-20.896,35.573-6.415,56.678c9.877,14.391,28.783,16.268,48.158,16.268c20.095,0,40.731-3.52,52.276-6.496
	c0.568-0.146,70.744-18.541,61.851-35.316c-1.495-2.819-3.957-3.948-7.057-3.948c-12.523,0-35.302,18.522-45.095,18.522
	c-2.189,0-3.82-1.683-4.451-3.942c-4.358-15.59,63.533-20.374,57.834-41.923c-1.005-3.812-3.731-5.36-7.561-5.355
	c-16.549,0-53.678,28.922-61.46,28.922c-0.595,0-1.021-0.172-1.253-0.538c-3.899-6.254-2.103-11.346,25.38-27.875
	c27.484-16.535,47.115-25.755,36.143-37.625c-1.262-1.371-3.052-1.977-5.225-1.977c-16.685,0.005-56.108,35.657-56.108,35.657
	s-10.64,10.997-17.075,10.997c-1.479,0-2.736-0.58-3.589-2.013c-4.562-7.645,42.375-42.994,45.022-57.578
	C416.803,280.921,413.751,275.917,408.105,275.917z"/>
<g>
	<path d="M272.023,403.158c-7.222,0.857-14.569,1.31-22.023,1.31c-7.748,0-15.382-0.482-22.878-1.407
		c-2.049,4.526-4.666,9.107-7.852,13.75c-1.379,2.009-2.889,3.889-4.489,5.683c11.443,1.969,23.209,3.006,35.219,3.006
		c11.734,0,23.234-0.994,34.429-2.876c-1.642-1.831-3.189-3.756-4.6-5.813C276.666,412.201,274.066,407.652,272.023,403.158z"/>
	<path d="M436.541,284.414c3.153-0.9,6.189-1.424,9.068-1.541c6.098-19.296,9.391-39.827,9.391-61.123
		C455,109.222,363.218,18,250,18S45,109.222,45,221.75c0,21.311,3.298,41.855,9.404,61.163c2.605,0.185,5.334,0.697,8.154,1.501
		c0.279-9.428,3.71-15.724,6.993-19.63c0.443-0.526,0.907-1.025,1.381-1.511c-3.119-13.34-4.771-27.24-4.771-41.523
		c0-100.912,82.308-182.718,183.839-182.718s183.839,81.806,183.839,182.718c0,14.557-1.722,28.712-4.958,42.285
		c0.224,0.247,0.45,0.492,0.666,0.749C432.831,268.69,436.262,274.986,436.541,284.414z"/>
	<path d="M303.634,348.346c19.869-19.73,31.435-48.595,31.435-48.595s3.946-15.321,12.892-15.321c0.41,0,0.836,0.031,1.268,0.099
		c9.84,1.543,17.07,26.595-3.542,41.922c-13.707,10.187-7.372,18.203,0.742,18.203c4.089,0,8.63-2.04,11.287-6.861
		c7.93-14.39,29.588-51.387,40.812-58.462c3.615-2.28,6.893-3.414,9.577-3.414c5.646,0,8.698,5.004,6.904,14.887
		c-2.647,14.584-49.584,49.933-45.022,57.578c0.853,1.433,2.11,2.013,3.589,2.013c6.317,0,16.679-10.59,17.057-10.979
		c18.201-21.467,31.519-47.156,38.248-75.382c-5.271-5.828-12.604-9.035-20.776-9.035c-6.82,0-13.834,2.243-20.853,6.667
		c-4.657,2.939-9.803,8.147-15.102,14.694c-4.91-6.766-11.782-11.264-19.643-12.492c-1.505-0.236-3.031-0.356-4.541-0.356h-0.005
		c-17.949,0-28.747,15.473-32.83,29.393c-2.026,4.701-11.75,26.12-26.378,40.646c-22.339,22.187-27.88,45.075-16.73,69.606
		c7.333-0.87,14.532-2.171,21.573-3.873C283.092,380.95,285.606,366.251,303.634,348.346z"/>
	<path d="M476.926,367.673c6.704-10.176,5.42-20.054,4.168-24.797c-1.6-6.05-4.91-11.081-9.404-14.694
		c2.132-3.519,3.558-7.321,4.173-11.562c1.295-8.905-1.678-17.805-8.372-25.047c-5.209-5.643-12.576-8.749-20.732-8.749
		c-0.377,0-0.767,0.034-1.15,0.049c-2.567,8.122-5.635,16.023-9.162,23.672c3.899-1.747,7.442-2.803,10.312-2.804
		c2.173,0,3.963,0.606,5.225,1.977c10.972,11.87-8.659,21.09-36.143,37.625c-0.854,0.514-1.684,1.017-2.489,1.509
		c-7.03,9.201-14.828,17.787-23.3,25.669c0.129,0.231,0.264,0.463,0.409,0.697c0.232,0.366,0.658,0.538,1.253,0.538
		c7.782,0,44.911-28.922,61.46-28.922c3.83-0.005,6.556,1.543,7.561,5.355c5.699,21.549-62.192,26.333-57.834,41.923
		c0.631,2.259,2.262,3.942,4.451,3.942c9.793,0,32.572-18.522,45.095-18.522c3.1,0,5.562,1.129,7.057,3.948
		c8.893,16.775-61.283,35.17-61.851,35.316c-11.545,2.976-32.181,6.496-52.276,6.496c-12.325,0-24.456-0.765-34.198-5.023
		c-8.682,2.694-17.615,4.819-26.75,6.354c13.124,14.629,33.57,22.053,60.948,22.053c16.759,0,36.118-2.803,57.524-8.32
		c0.131-0.036,14.944-4.115,31.135-10.494c26.026-10.255,39.428-19.809,44.821-31.935c3.557-8.001,3.3-16.592-0.731-24.195
		C477.752,369.027,477.352,368.337,476.926,367.673z"/>
</g>
<path d="M319.277,228.901c0-23.665-30.692,12.403-68.64,12.564C212.692,241.306,182,205.238,182,228.901
	c0,15.69,7.507,41.208,27.669,56.69c4.012-13.804,26.057-24.862,29.208-23.274c4.487,2.261,4.235,8.527,11.76,14.048
	c7.526-5.521,7.274-11.785,11.761-14.048c3.153-1.588,25.196,9.47,29.207,23.274c20.162-15.482,27.67-41,27.67-56.688
	L319.277,228.901z"/>
<path d="M262.4,262.315c-4.487,2.261-4.235,8.527-11.761,14.048c-7.525-5.521-7.273-11.785-11.76-14.048
	c-3.153-1.588-25.196,9.47-29.207,23.274c10.194,7.828,23.625,13.089,40.955,13.217c0.004,0,0.008,0,0.014,0
	c0.005,0,0.009,0,0.015,0c17.33-0.126,30.761-5.389,40.955-13.217c-4.011-13.804-26.056-24.862-29.207-23.274H262.4z"/>
<path d="M381.338,223.159c11.495,0,20.813-9.318,20.813-20.813c0-11.495-9.318-20.813-20.813-20.813
	c-11.495,0-20.813,9.318-20.813,20.813C360.525,213.841,369.843,223.159,381.338,223.159z"/>
<path d="M119.662,223.159c11.495,0,20.813-9.318,20.813-20.813c0-11.495-9.318-20.813-20.813-20.813
	c-11.495,0-20.813,9.318-20.813,20.813C98.849,213.841,108.167,223.159,119.662,223.159z"/>
<path d="M315.639,169.903c11.321,3.986,15.825,27.197,27.261,21.134c21.656-11.485,29.879-38.308,18.364-59.909
	c-11.516-21.601-38.409-29.8-60.066-18.315c-21.658,11.485-29.88,38.306-18.364,59.907
	C288.268,182.916,305.52,166.338,315.639,169.903z"/>
<path d="M186.393,169.903c-11.321,3.986-15.825,27.197-27.259,21.134c-21.658-11.485-29.879-38.308-18.364-59.909
	s38.407-29.8,60.065-18.315c21.658,11.485,29.879,38.306,18.364,59.907C213.764,182.916,196.512,166.338,186.393,169.903z"/>
</svg>
