<?xml version="1.0" encoding="UTF-8"?>
<svg id="Layer_1" data-name="Layer 1" xmlns="http://www.w3.org/2000/svg" viewBox="0 0 240.03 108.77">
  <defs>
    <style>
      .cls-1 {
        fill: #fff;
      }
    </style>
  </defs>
  <path class="cls-1" d="M110.08,83.85h13.98c.66,0,1.2-.54,1.2-1.2V29.32c0-.66-.54-1.2-1.2-1.2h-13.98c-.66,0-1.2.54-1.2,1.2v53.33c0,.66.54,1.2,1.2,1.2"/>
  <path class="cls-1" d="M30.99,55.49l26.14-26.14c.45-.45.13-1.23-.51-1.23h-21.12c-.19,0-.37.08-.51.21l-13.61,13.61V6.19c0-.51-.52-.86-.99-.67l-14.94,6.05c-.27.11-.45.37-.45.67v70.41c0,.66.54,1.2,1.2,1.2h13.98c.66,0,1.2-.54,1.2-1.2v-13.62l14.62,14.6c.13.14.32.21.51.21h21.13c.64,0,.96-.78.51-1.24l-27.16-27.13Z"/>
  <path class="cls-1" d="M234.96,53.99c-.96-13.73-12.09-24.86-25.82-25.8-16.28-1.12-29.82,11.75-29.82,27.79h0v49.8c0,.52.53.86.99.67l14.64-5.93c.46-.18.75-.62.75-1.11v-18.05c3.5,1.59,7.39,2.49,11.49,2.49,16.04,0,28.92-13.56,27.79-29.86M207.17,67.48c-6.35,0-11.49-5.15-11.49-11.49s5.14-11.49,11.49-11.49,11.48,5.15,11.48,11.49-5.14,11.49-11.48,11.49"/>
  <path class="cls-1" d="M152.86,41.54c.05,0,.11,0,.16,0,2.69-.11,5.11,1.61,7.08,4.3.32.44.9.59,1.4.39l11.26-4.53c.62-.25.92-.96.66-1.57-2.83-6.82-11.43-12.01-20.57-12.01-11.92,0-21.6,7.58-21.6,16.93,0,5.01,2.92,9.36,6.93,12.2,3.6,2.55,7.9,4.2,12.14,5.3.14.04.28.07.42.11,5.73,1.28,6.54,2.78,6.54,4.27,0,1.94-2.35,3.51-5.24,3.51-2.99.19-5.64-1.86-7.73-4.98-.31-.47-.92-.64-1.44-.43l-11.13,4.56c-.61.25-.89.94-.66,1.55,3.19,8.64,11.79,12.72,20.95,12.72,11.92,0,21.6-7.57,21.6-16.93,0-2.04-.46-3.99-1.31-5.8-.81-1.73-2.92-5.41-8.38-7.96-3.12-1.45-11.77-4-14.74-5.64-1.02-.56-1.6-1.49-1.6-2.48,0-1.94,2.35-3.51,5.24-3.51"/>
  <path class="cls-1" d="M127.26,12.46c0-5.63-4.56-10.19-10.19-10.19s-10.19,4.57-10.19,10.19,4.56,10.19,10.19,10.19,10.19-4.56,10.19-10.19"/>
  <path class="cls-1" d="M102.44,28.12c.51,0,.86.52.66.99l-6.13,14.93c-.11.27-.37.44-.66.44h-4.42c-6.32,0-11.44,5.12-11.44,11.44v26.73c0,.66-.53,1.19-1.19,1.19h-13.98c-.66,0-1.2-.54-1.2-1.2v-26.72c0-15.35,12.45-27.8,27.8-27.8h10.56Z"/>
</svg>