<?xml version="1.0" encoding="utf-8"?>
<!-- Generator: Adobe Illustrator 28.2.0, SVG Export Plug-In . SVG Version: 6.00 Build 0)  -->
<svg version="1.1" id="Layer_1" xmlns="http://www.w3.org/2000/svg" xmlns:xlink="http://www.w3.org/1999/xlink" x="0px" y="0px"
	 viewBox="0 0 96 96" style="enable-background:new 0 0 96 96;" xml:space="preserve">
<style type="text/css">
	.st0{fill-rule:evenodd;clip-rule:evenodd;fill:#E64A5D;}
	.st1{fill-rule:evenodd;clip-rule:evenodd;fill:#FFFFFF;}
</style>
<rect class="st0" width="96" height="96"/>
<g>
	<path id="Y" class="st1" d="M13.6,40.7c-0.9-1.5-1.6-2.4-2-2.7c-0.4-0.3-0.9-0.4-1.6-0.4H9.3v-3.6H24v3.6h-0.8
		c-1.1,0-1.4,0.2-1.4,0.4c0,0.3,0.2,0.8,0.7,1.6l3.6,6l3.3-5.5c0.3-0.6,0.5-1.1,0.5-1.5c0-0.7-0.5-1-1.8-1h-0.8v-3.6h10.5v3.6h-0.8
		c-0.6,0-1.2,0.2-1.7,0.7c-0.6,0.6-1.5,1.8-2.7,3.8c0,0-4.9,7.8-4.9,7.8c0,1.9,0,5.6,0,5.6c0,1,0.2,1.7,0.4,2c0.2,0.3,0.9,0.4,2,0.4
		h0.4h0.8v3.6H15.8V58h0.6h0.2H17c1.1,0,1.8-0.2,2-0.4c0.3-0.3,0.4-1,0.4-2v-5.4L13.6,40.7z"/>
	<path id="N" class="st1" d="M49,54.2c0,1.7,0.3,2.8,0.8,3.1C50.3,57.8,51,58,52,58h0.8v3.6H41.4V58h0.8c0.7,0,1.3-0.2,1.8-0.5
		c0.5-0.3,0.8-0.7,0.9-1c0.1-0.4,0.2-1.2,0.2-2.3V40.8c0-2.3-0.9-3.2-3-3.2h-0.8v-3.6h9.9l0.2,0.2l13,14.6v-7.6
		c0-2.5-0.9-3.5-2.9-3.5h-0.8v-3.6h10.9v3.6H71c-0.5,0-1,0.1-1.4,0.4c-0.4,0.3-0.7,0.6-0.9,1c-0.2,0.5-0.3,1.2-0.3,2.2v20.9h-3.6
		l-0.2-0.3L49,44.1L49,54.2z"/>
	<path id="_x32_" class="st1" d="M76.2,31.9h-0.3l0-0.3c0-1,0.1-2,0.4-2.8c0.3-0.9,0.7-1.6,1.3-2.3c0.6-0.7,1.3-1.2,2.2-1.5
		c0.9-0.4,1.9-0.5,3.1-0.5c0.9,0,1.7,0.1,2.5,0.4c0.8,0.3,1.5,0.6,2.1,1.1c0.6,0.5,1.1,1.1,1.5,1.8c0.4,0.7,0.5,1.5,0.5,2.4
		c0,0.9-0.2,1.7-0.5,2.3c-0.3,0.6-0.7,1.2-1.3,1.7c-0.5,0.5-1.1,0.9-1.7,1.3c-0.6,0.4-1.3,0.8-1.9,1.2c-0.6,0.4-1.2,0.8-1.8,1.2
		c-0.6,0.4-1.1,1-1.1,1h8.4v3.6H75.4v-0.3c0-1,0.2-1.9,0.5-2.7c0.3-0.8,0.8-1.4,1.3-2c0.5-0.6,1.2-1.1,1.9-1.6
		c0.7-0.5,1.5-1,2.3-1.5c0.4-0.3,0.8-0.5,1.3-0.8c0.4-0.3,0.8-0.5,1.2-0.9c0.4-0.3,0.7-0.6,0.9-1c0.2-0.4,0.3-0.8,0.3-1.2
		c0-0.7-0.2-1.3-0.7-1.7C84,28.2,83.4,28,82.7,28c-0.5,0-0.9,0.1-1.2,0.3c-0.3,0.2-0.6,0.5-0.8,0.8c-0.2,0.4-0.4,0.7-0.5,1.2
		c-0.1,0.4-0.1,0.9-0.1,1.3v0.3h-0.3H76.2z"/>
</g>
</svg>
