<svg width="24" height="24" viewBox="0 0 24 24" fill="none" xmlns="http://www.w3.org/2000/svg">
<g clip-path="url(#clip0_0_28)">
<path d="M22.4504 9.42046C20.7671 7.29676 18.3972 5.26342 15.3184 3.41082H15.2963C12.1954 1.60341 9.27171 0.541551 6.63597 0.112291C4.99693 -0.158821 4.19956 0.157476 3.84518 0.36081C3.49079 0.564144 2.82632 1.10637 2.22829 2.68785C1.27588 5.24082 0.722149 8.35861 0.7 11.996V12.0186C0.722149 15.6786 1.27588 18.7738 2.22829 21.3268C2.82632 22.9083 3.49079 23.4505 3.84518 23.6538C4.19956 23.8572 4.99693 24.1735 6.63597 23.9024C9.27171 23.4731 12.1954 22.4112 15.2963 20.6038H15.3184C18.3972 18.7512 20.7671 16.7179 22.4504 14.5942C23.5136 13.2838 23.6244 12.4253 23.6244 11.996C23.6244 11.5894 23.5136 10.7308 22.4504 9.42046Z" fill="#FF4C00"/>
</g>
<defs>
<clipPath id="clip0_0_28">
<rect width="24" height="24" fill="white"/>
</clipPath>
</defs>
</svg>
