<?xml version="1.0" encoding="utf-8"?>
<!-- Generator: Adobe Illustrator 28.2.0, SVG Export Plug-In . SVG Version: 6.00 Build 0)  -->
<svg version="1.1" id="Layer_1" xmlns="http://www.w3.org/2000/svg" xmlns:xlink="http://www.w3.org/1999/xlink" x="0px" y="0px"
	 viewBox="0 0 67.61 69.27" style="enable-background:new 0 0 67.61 69.27;" xml:space="preserve">
<style type="text/css">
	.st0{fill:#FFFFFF;}
	.st1{fill-rule:evenodd;clip-rule:evenodd;fill:#BCBEC0;}
	.st2{fill:none;stroke:#000000;stroke-width:0.5;stroke-miterlimit:2.6131;}
	.st3{fill:#ED1C24;}
	.st4{fill:none;stroke:#ED1C24;stroke-width:0.5;stroke-miterlimit:2.6131;}
	.st5{fill:none;stroke:#010101;stroke-width:0.4997;stroke-miterlimit:2.6131;}
	.st6{fill-rule:evenodd;clip-rule:evenodd;}
	.st7{fill:none;stroke:#000000;stroke-width:0.4997;stroke-miterlimit:2.6131;}
</style>
<rect x="0.03" class="st0" width="67.61" height="69.27"/>
<circle class="st1" cx="28.07" cy="33.6" r="9.03"/>
<circle class="st2" cx="28.07" cy="33.6" r="9.03"/>
<polygon class="st3" points="27.15,38.47 28.98,38.47 28.98,34.51 32.94,34.51 32.94,32.68 28.98,32.68 28.98,28.72 27.15,28.72 
	27.15,32.68 23.19,32.68 23.19,34.51 27.15,34.51 "/>
<polygon class="st4" points="27.15,38.47 28.98,38.47 28.98,34.51 32.94,34.51 32.94,32.68 28.98,32.68 28.98,28.72 27.15,28.72 
	27.15,32.68 23.19,32.68 23.19,34.51 27.15,34.51 "/>
<path class="st5" d="M37.09,33.6c0.61,0.01,1.67,0.48,2.12-0.23c0.45-0.71,0.34-2.59,1.3-2.5c1.77,0.17,2.66,5.13,1.37,5.15
	c-1.78,0.03-0.56-5.16,1.22-5.19c1.78-0.03,2.66,5.13,1.37,5.15c-1.78,0.03-0.56-5.16,1.22-5.19c1.78-0.03,2.66,5.13,1.37,5.15
	c-1.78,0.03-0.56-5.16,1.22-5.19c1.78-0.03,2.66,5.13,1.37,5.15c-1.78,0.03-0.56-5.16,1.22-5.19c1.78-0.03,2.66,5.13,1.37,5.15
	c-1.78,0.03-0.56-5.16,1.22-5.19c1.78-0.03,2.66,5.13,1.37,5.15c-1.78,0.03-0.54-4.97,1.22-5.19c0.96-0.12,0.71,2.95,1.73,2.96
	l2.08,0.03"/>
<path class="st6" d="M62.59,30.88c1.53,0,2.77,1.24,2.77,2.77c0,1.53-1.24,2.77-2.77,2.77c-1.53,0-2.77-1.24-2.77-2.77
	C59.82,32.12,61.06,30.88,62.59,30.88z"/>
<path class="st7" d="M62.59,30.88c1.53,0,2.77,1.24,2.77,2.77c0,1.53-1.24,2.77-2.77,2.77c-1.53,0-2.77-1.24-2.77-2.77
	C59.82,32.12,61.06,30.88,62.59,30.88z"/>
<path class="st5" d="M34.16,26.94c0.34-0.23,1.09-0.39,1.06-0.95c-0.03-0.56-0.82-1.53-0.27-1.86c1.02-0.6,3.43,1.74,2.74,2.25
	c-0.95,0.7-2.31-2.57-1.36-3.28c0.95-0.7,3.43,1.74,2.74,2.25c-0.95,0.7-2.31-2.57-1.36-3.28c0.95-0.7,3.43,1.74,2.74,2.25
	c-0.95,0.7-2.31-2.57-1.36-3.28c0.95-0.7,3.43,1.74,2.74,2.25c-0.95,0.7-2.31-2.57-1.36-3.28c0.95-0.7,3.43,1.74,2.74,2.25
	c-0.95,0.7-2.31-2.57-1.36-3.28c0.95-0.7,3.43,1.74,2.74,2.25c-0.95,0.7-2.23-2.47-1.36-3.28c0.47-0.44,1.53,1.32,2.09,0.93
	l1.14-0.79"/>
<path class="st6" d="M46.89,15.55c0.83-0.59,1.98-0.41,2.57,0.42c0.59,0.83,0.41,1.98-0.42,2.57c-0.83,0.59-1.98,0.41-2.57-0.42
	C45.87,17.3,46.06,16.15,46.89,15.55z"/>
<path class="st7" d="M46.89,15.55c0.83-0.59,1.98-0.41,2.57,0.42c0.59,0.83,0.41,1.98-0.42,2.57c-0.83,0.59-1.98,0.41-2.57-0.42
	C45.87,17.3,46.06,16.15,46.89,15.55z"/>
<path class="st5" d="M29.33,24.66c0.18-0.37,0.77-0.86,0.47-1.34c-0.3-0.47-1.46-0.95-1.13-1.5c0.61-1.01,3.85-0.12,3.49,0.66
	c-0.5,1.07-3.26-1.15-2.76-2.22c0.5-1.07,3.85-0.12,3.49,0.66c-0.5,1.07-3.26-1.15-2.76-2.22c0.5-1.07,3.85-0.12,3.49,0.66
	c-0.5,1.07-3.26-1.15-2.76-2.22c0.5-1.07,3.85-0.12,3.49,0.66c-0.5,1.07-3.26-1.15-2.76-2.22c0.5-1.07,3.85-0.12,3.49,0.66
	c-0.5,1.07-3.26-1.15-2.76-2.22c0.5-1.07,3.85-0.12,3.49,0.66c-0.5,1.07-3.14-1.1-2.76-2.22c0.2-0.61,1.98,0.42,2.28-0.18l0.62-1.24
	"/>
<path class="st6" d="M35.04,8.56c0.44-0.92,1.54-1.31,2.46-0.87c0.92,0.44,1.31,1.54,0.87,2.46c-0.44,0.92-1.54,1.31-2.46,0.87
	C34.98,10.58,34.6,9.48,35.04,8.56z"/>
<path class="st7" d="M35.04,8.56c0.44-0.92,1.54-1.31,2.46-0.87c0.92,0.44,1.31,1.54,0.87,2.46c-0.44,0.92-1.54,1.31-2.46,0.87
	C34.98,10.58,34.6,9.48,35.04,8.56z"/>
<path class="st5" d="M30.68,42.24c0.15,0.38,0.12,1.15,0.68,1.25c0.55,0.09,1.68-0.45,1.87,0.17c0.34,1.13-2.49,2.94-2.83,2.15
	c-0.47-1.09,3.04-1.65,3.5-0.56c0.47,1.09-2.49,2.94-2.83,2.15c-0.47-1.09,3.04-1.65,3.5-0.56c0.47,1.09-2.49,2.94-2.83,2.15
	c-0.47-1.09,3.04-1.65,3.5-0.56c0.47,1.09-2.49,2.94-2.83,2.15c-0.47-1.09,3.04-1.65,3.5-0.56c0.47,1.09-2.49,2.94-2.83,2.15
	c-0.47-1.09,3.04-1.65,3.5-0.56c0.47,1.09-2.49,2.94-2.83,2.15c-0.47-1.09,2.92-1.59,3.5-0.56c0.32,0.56-1.64,1.18-1.39,1.81
	l0.51,1.29"/>
<path class="st6" d="M38.81,57.25c0.39,0.94-0.06,2.02-1,2.41c-0.94,0.39-2.02-0.06-2.41-1c-0.39-0.94,0.06-2.02,1-2.41
	C37.34,55.86,38.42,56.31,38.81,57.25z"/>
<path class="st7" d="M38.81,57.25c0.39,0.94-0.06,2.02-1,2.41c-0.94,0.39-2.02-0.06-2.41-1c-0.39-0.94,0.06-2.02,1-2.41
	C37.34,55.86,38.42,56.31,38.81,57.25z"/>
<path class="st5" d="M19.15,35.02c-0.27,0.13-0.84,0.14-0.88,0.55c-0.05,0.41,0.4,1.21-0.04,1.38c-0.81,0.3-2.26-1.69-1.69-1.98
	c0.78-0.39,1.34,2.15,0.56,2.54c-0.78,0.39-2.26-1.69-1.69-1.98c0.78-0.39,1.34,2.15,0.56,2.54c-0.78,0.39-2.26-1.69-1.69-1.98
	c0.78-0.39,1.34,2.15,0.56,2.54c-0.78,0.39-2.26-1.69-1.69-1.98c0.78-0.39,1.34,2.15,0.56,2.54c-0.78,0.39-2.26-1.69-1.69-1.98
	c0.78-0.39,1.34,2.15,0.56,2.54c-0.78,0.39-2.26-1.69-1.69-1.98c0.78-0.39,1.29,2.07,0.56,2.54c-0.4,0.26-0.94-1.15-1.39-0.94
	l-0.92,0.43"/>
<path class="st6" d="M8.51,41.63C7.84,41.95,7.03,41.67,6.7,41c-0.32-0.67-0.04-1.48,0.63-1.81c0.67-0.32,1.48-0.04,1.81,0.63
	C9.47,40.49,9.18,41.3,8.51,41.63z"/>
<path class="st7" d="M8.51,41.63C7.84,41.95,7.03,41.67,6.7,41c-0.32-0.67-0.04-1.48,0.63-1.81c0.67-0.32,1.48-0.04,1.81,0.63
	C9.47,40.49,9.18,41.3,8.51,41.63z"/>
<path class="st5" d="M35.58,38.51c0.27,0.17,0.6,0.67,0.98,0.48c0.39-0.19,0.85-1.04,1.25-0.74c0.73,0.56-0.24,2.96-0.81,2.62
	c-0.78-0.47,1.17-2.4,1.95-1.93c0.78,0.47-0.24,2.96-0.81,2.62c-0.78-0.47,1.17-2.4,1.95-1.93c0.78,0.47-0.24,2.96-0.81,2.62
	c-0.78-0.47,1.17-2.4,1.95-1.93c0.78,0.47-0.24,2.96-0.81,2.62c-0.78-0.47,1.17-2.4,1.95-1.93c0.78,0.47-0.24,2.96-0.81,2.62
	c-0.78-0.47,1.17-2.4,1.95-1.93c0.78,0.47-0.24,2.96-0.81,2.62c-0.78-0.47,1.12-2.32,1.95-1.93c0.45,0.21-0.49,1.48-0.06,1.76
	l0.9,0.58"/>
<path class="st6" d="M47.44,44.28c0.67,0.42,0.87,1.3,0.45,1.96c-0.42,0.67-1.3,0.87-1.96,0.45c-0.67-0.42-0.87-1.3-0.45-1.96
	C45.89,44.07,46.77,43.87,47.44,44.28z"/>
<path class="st7" d="M47.44,44.28c0.67,0.42,0.87,1.3,0.45,1.96c-0.42,0.67-1.3,0.87-1.96,0.45c-0.67-0.42-0.87-1.3-0.45-1.96
	C45.89,44.07,46.77,43.87,47.44,44.28z"/>
<path class="st5" d="M19.74,30.11c-0.38-0.16-0.91-0.71-1.36-0.38c-0.45,0.33-0.85,1.52-1.42,1.22c-1.05-0.54-0.37-3.83,0.43-3.52
	c1.1,0.42-0.94,3.33-2.04,2.9c-1.1-0.42-0.37-3.83,0.43-3.52c1.1,0.42-0.94,3.33-2.04,2.9c-1.1-0.42-0.37-3.83,0.43-3.52
	c1.1,0.42-0.94,3.33-2.04,2.9c-1.1-0.42-0.37-3.83,0.43-3.52c1.1,0.42-0.94,3.33-2.04,2.9c-1.1-0.42-0.37-3.83,0.43-3.52
	c1.1,0.42-0.94,3.33-2.04,2.9c-1.1-0.42-0.37-3.83,0.43-3.52c1.1,0.42-0.9,3.21-2.04,2.9c-0.62-0.16,0.29-2-0.33-2.26L5.7,24.44"/>
<path class="st6" d="M3.31,25.47c-0.94-0.38-1.4-1.45-1.02-2.4c0.38-0.94,1.45-1.4,2.4-1.02c0.94,0.38,1.4,1.45,1.02,2.4
	C5.32,25.39,4.25,25.84,3.31,25.47z"/>
<path class="st7" d="M3.31,25.47c-0.94-0.38-1.4-1.45-1.02-2.4c0.38-0.94,1.45-1.4,2.4-1.02c0.94,0.38,1.4,1.45,1.02,2.4
	C5.32,25.39,4.25,25.84,3.31,25.47z"/>
<path class="st5" d="M26.15,24.77c-0.45-0.48-0.87-1.64-1.74-1.45c-0.88,0.18-2.24,1.66-2.88,0.86c-1.18-1.48,1.96-5.85,2.94-4.87
	c1.34,1.34-3.55,4.26-4.88,2.92c-1.34-1.34,1.96-5.85,2.94-4.87c1.34,1.34-3.55,4.26-4.88,2.92c-1.34-1.34,1.96-5.85,2.94-4.87
	c1.34,1.34-3.55,4.26-4.88,2.92c-1.34-1.34,1.96-5.85,2.94-4.87c1.34,1.34-3.55,4.26-4.88,2.92c-1.34-1.34,1.96-5.85,2.94-4.87
	c1.34,1.34-3.55,4.26-4.88,2.92c-1.34-1.34,1.96-5.85,2.94-4.87c1.34,1.34-3.41,4.1-4.88,2.92c-0.8-0.65,1.73-2.73,0.99-3.52
	L9.32,7.3"/>
<path class="st6" d="M5.14,7.23C4,6.06,4.03,4.19,5.21,3.05c1.17-1.13,3.04-1.1,4.18,0.07c1.13,1.17,1.1,3.04-0.07,4.18
	C8.14,8.44,6.27,8.41,5.14,7.23z"/>
<path class="st7" d="M5.14,7.23C4,6.06,4.03,4.19,5.21,3.05c1.17-1.13,3.04-1.1,4.18,0.07c1.13,1.17,1.1,3.04-0.07,4.18
	C8.14,8.44,6.27,8.41,5.14,7.23z"/>
<path class="st5" d="M22.51,40.71c-0.34,0.56-1.35,1.27-0.94,2.07c0.41,0.8,2.19,1.72,1.59,2.55c-1.12,1.53-6.16-0.36-5.47-1.55
	c0.94-1.64,5.04,2.3,4.1,3.94c-0.94,1.64-6.16-0.36-5.47-1.55c0.94-1.64,5.04,2.3,4.1,3.94c-0.94,1.64-6.16-0.36-5.47-1.55
	c0.94-1.64,5.04,2.3,4.1,3.94c-0.94,1.64-6.16-0.36-5.47-1.55c0.94-1.64,5.04,2.3,4.1,3.94c-0.94,1.64-6.16-0.36-5.47-1.55
	c0.94-1.64,5.04,2.3,4.1,3.94c-0.94,1.64-6.16-0.36-5.47-1.55c0.94-1.64,4.86,2.21,4.1,3.94c-0.41,0.94-3.09-0.95-3.66-0.03
	l-1.16,1.89"/>
<path class="st6" d="M11.12,65.6c-0.83,1.4-2.65,1.87-4.05,1.03c-1.4-0.83-1.87-2.65-1.03-4.05c0.83-1.4,2.65-1.87,4.05-1.03
	C11.49,62.38,11.95,64.19,11.12,65.6z"/>
<path class="st7" d="M11.12,65.6c-0.83,1.4-2.65,1.87-4.05,1.03c-1.4-0.83-1.87-2.65-1.03-4.05c0.83-1.4,2.65-1.87,4.05-1.03
	C11.49,62.38,11.95,64.19,11.12,65.6z"/>
</svg>
