<svg xmlns="http://www.w3.org/2000/svg" xmlns:xlink="http://www.w3.org/1999/xlink" xmlns:inkscape="http://www.inkscape.org/namespaces/inkscape" version="1.1" width="720" height="648" viewBox="0 0 720 648">
<defs>
<clipPath id="clip_1">
<path transform="matrix(1,0,0,-1,0,648)" d="M104.49 195.5H585.36V637.2H104.49Z"/>
</clipPath>
<clipPath id="clip_2">
<path transform="matrix(1,0,0,-1,0,648)" d="M104.49 195.5H585.36V637.2H104.49Z"/>
</clipPath>
<clipPath id="clip_3">
<path transform="matrix(1,0,0,-1,0,648)" d="M104.49 195.5H585.36V637.2H104.49Z"/>
</clipPath>
<clipPath id="clip_4">
<path transform="matrix(1,0,0,-1,0,648)" d="M104.49 195.5H585.36V637.2H104.49Z"/>
</clipPath>
<clipPath id="clip_5">
<path transform="matrix(1,0,0,-1,0,648)" d="M104.49 195.5H585.36V637.2H104.49Z"/>
</clipPath>
<clipPath id="clip_6">
<path transform="matrix(1,0,0,-1,0,648)" d="M104.49 195.5H585.36V637.2H104.49Z"/>
</clipPath>
<clipPath id="clip_7">
<path transform="matrix(1,0,0,-1,0,648)" d="M104.49 195.5H585.36V637.2H104.49Z"/>
</clipPath>
<clipPath id="clip_8">
<path transform="matrix(1,0,0,-1,0,648)" d="M104.49 195.5H585.36V637.2H104.49Z"/>
</clipPath>
<clipPath id="clip_9">
<path transform="matrix(1,0,0,-1,0,648)" d="M104.49 195.5H585.36V637.2H104.49Z"/>
</clipPath>
<clipPath id="clip_10">
<path transform="matrix(1,0,0,-1,0,648)" d="M104.49 195.5H585.36V637.2H104.49Z"/>
</clipPath>
<g id="font_11_40">
<path transform="matrix(.001,0,0,.001,0,0)" d="M310 759C266 683 234 609 213 536 191 463 181 389 181 314 181 238 191 164 213 91 234 17 266-56 310-131H232C183-54 146 20 122 94 98 168 86 241 86 314 86 386 98 459 122 533 146 607 182 682 232 759H310Z"/>
</g>
<g id="font_11_45">
<path transform="matrix(.001,0,0,.001,0,0)" d="M49 314H312V234H49V314Z"/>
</g>
<g id="font_11_48">
<path transform="matrix(.001,0,0,.001,0,0)" d="M318 664C267 664 229 639 203 589 177 539 165 464 165 364 165 264 177 189 203 139 229 89 267 64 318 64 369 64 407 89 433 139 458 189 471 264 471 364 471 464 458 539 433 589 407 639 369 664 318 664ZM318 742C399 742 461 709 505 645 548 580 570 486 570 364 570 241 548 147 505 83 461 19 399-13 317-13 235-13 173 19 130 83 87 147 66 241 66 364 66 486 87 580 130 645 173 709 236 742 318 742Z"/>
</g>
<g id="font_11_46">
<path transform="matrix(.001,0,0,.001,0,0)" d="M107 124H210V0H107V124Z"/>
</g>
<g id="font_11_49">
<path transform="matrix(.001,0,0,.001,0,0)" d="M124 83H285V639L110 604V694L284 729H383V83H544V0H124V83Z"/>
</g>
<g id="font_11_44">
<path transform="matrix(.001,0,0,.001,0,0)" d="M117 124H220V40L140-115H77L117 40V124Z"/>
</g>
<g id="font_11_32">
</g>
<g id="font_11_93">
<path transform="matrix(.001,0,0,.001,0,0)" d="M304 760V-131H97V-61H214V690H97V760H304Z"/>
</g>
<g id="font_11_50">
<path transform="matrix(.001,0,0,.001,0,0)" d="M192 83H536V0H73V83C110 121 161 173 226 239 290 304 331 346 348 365 380 400 402 430 414 455 426 479 433 504 433 528 433 566 419 598 392 622 365 646 330 659 286 659 255 659 222 653 188 643 154 632 117 616 78 594V694C118 710 155 722 189 730 223 738 255 742 284 742 359 742 419 723 464 685 509 647 532 597 532 534 532 504 526 475 515 449 504 422 484 390 454 354 446 344 420 317 376 272 332 227 271 164 192 83Z"/>
</g>
<g id="font_11_51">
<path transform="matrix(.001,0,0,.001,0,0)" d="M406 393C453 383 490 362 516 330 542 298 556 258 556 212 556 140 531 84 482 45 432 6 362-13 271-13 240-13 208-10 176-4 144 1 110 10 76 22V117C103 101 133 89 166 81 198 73 232 69 268 69 330 69 377 81 409 105 441 129 458 165 458 212 458 254 443 288 413 312 383 336 341 349 287 349H202V430H291C339 430 376 439 402 459 428 478 441 506 441 543 441 580 427 609 401 629 374 649 336 659 287 659 260 659 231 656 200 650 169 644 135 635 98 623V711C135 721 170 729 203 734 235 739 266 742 296 742 370 742 429 725 473 691 517 657 539 611 539 553 539 513 527 479 504 451 481 423 448 403 406 393Z"/>
</g>
<g id="font_11_52">
<path transform="matrix(.001,0,0,.001,0,0)" d="M378 643 129 254H378V643ZM352 729H476V254H580V172H476V0H378V172H49V267L352 729Z"/>
</g>
<g id="font_11_53">
<path transform="matrix(.001,0,0,.001,0,0)" d="M108 729H495V646H198V467C212 472 227 476 241 478 255 480 270 482 284 482 365 482 429 459 477 415 525 370 549 310 549 234 549 155 524 94 475 51 426 8 357-13 269-13 238-13 207-10 175-6 143-1 111 6 77 17V116C106 100 136 88 168 80 199 72 232 69 267 69 323 69 368 83 401 113 433 143 450 183 450 234 450 284 433 324 401 354 368 384 323 399 267 399 241 399 214 396 188 390 162 384 135 375 108 363V729Z"/>
</g>
<g id="font_11_54">
<path transform="matrix(.001,0,0,.001,0,0)" d="M330 404C286 404 251 388 225 358 199 328 186 286 186 234 186 181 199 139 225 109 251 79 286 64 330 64 374 64 409 79 435 109 461 139 474 181 474 234 474 286 461 328 435 358 409 388 374 404 330 404ZM526 713V623C501 635 476 644 451 650 425 656 400 659 376 659 310 659 260 637 226 593 192 549 172 482 168 394 187 422 211 444 240 459 269 474 301 482 336 482 409 482 467 459 509 415 551 371 573 310 573 234 573 159 550 99 506 54 462 9 403-13 330-13 246-13 181 19 137 83 92 147 70 241 70 364 70 479 97 571 152 639 206 707 280 742 372 742 396 742 421 739 447 735 472 730 498 723 526 713Z"/>
</g>
<g id="font_11_55">
<path transform="matrix(.001,0,0,.001,0,0)" d="M82 729H551V687L286 0H183L432 646H82V729Z"/>
</g>
<g id="font_11_56">
<path transform="matrix(.001,0,0,.001,0,0)" d="M318 346C271 346 234 333 207 308 180 283 167 249 167 205 167 161 180 126 207 101 234 76 271 64 318 64 364 64 401 76 428 102 455 127 469 161 469 205 469 249 455 283 429 308 402 333 365 346 318 346ZM219 388C177 398 144 418 120 447 96 476 85 511 85 553 85 611 105 657 147 691 188 725 245 742 318 742 390 742 447 725 489 691 530 657 551 611 551 553 551 511 539 476 515 447 491 418 459 398 417 388 464 377 501 355 528 323 554 291 568 251 568 205 568 134 546 80 503 43 459 5 397-13 317-13 237-13 175 5 132 43 89 80 68 134 68 205 68 251 81 291 108 323 134 355 171 377 219 388ZM183 544C183 506 194 476 218 455 242 434 275 424 318 424 360 424 393 434 417 455 441 476 453 506 453 544 453 582 441 611 417 632 393 653 360 664 318 664 275 664 242 653 218 632 194 611 183 582 183 544Z"/>
</g>
<g id="font_11_57">
<path transform="matrix(.001,0,0,.001,0,0)" d="M110 15V105C134 93 159 84 185 78 210 72 235 69 260 69 324 69 374 90 408 134 442 178 462 244 468 334 448 306 424 284 396 269 367 254 335 247 300 247 226 247 168 269 126 313 84 357 63 417 63 494 63 568 85 628 129 674 173 719 232 742 306 742 390 742 455 709 499 645 543 580 566 486 566 364 566 248 538 157 484 89 429 21 356-13 264-13 239-13 214-10 189-6 163-2 137 5 110 15ZM306 324C350 324 385 339 411 369 437 399 450 441 450 494 450 546 437 588 411 618 385 648 350 664 306 664 262 664 227 648 201 618 175 588 162 546 162 494 162 441 175 399 201 369 227 339 262 324 306 324Z"/>
</g>
<g id="font_11_66">
<path transform="matrix(.001,0,0,.001,0,0)" d="M197 348V81H355C408 81 447 92 473 114 498 136 511 169 511 215 511 260 498 293 473 315 447 337 408 348 355 348H197ZM197 648V428H343C391 428 426 437 450 455 474 473 486 500 486 538 486 574 474 602 450 620 426 638 391 648 343 648H197ZM98 729H350C425 729 483 713 524 682 564 650 585 606 585 549 585 504 574 468 553 442 532 416 502 399 462 393 510 382 548 360 575 327 601 294 615 253 615 204 615 138 592 88 548 53 504 17 441 0 360 0H98V729Z"/>
</g>
<g id="font_11_105">
<path transform="matrix(.001,0,0,.001,0,0)" d="M94 547H184V0H94V547ZM94 760H184V646H94V760Z"/>
</g>
<g id="font_11_110">
<path transform="matrix(.001,0,0,.001,0,0)" d="M549 330V0H459V327C459 379 448 417 428 443 408 469 378 482 338 482 289 482 251 466 223 435 195 404 181 362 181 309V0H91V547H181V462C202 494 227 519 257 535 286 551 320 560 358 560 420 560 468 540 500 501 532 462 549 405 549 330Z"/>
</g>
<g id="font_11_82">
<path transform="matrix(.001,0,0,.001,0,0)" d="M444 342C465 334 486 319 506 296 526 272 546 240 566 199L666 0H560L467 187C443 235 419 268 397 284 374 300 343 308 304 308H197V0H98V729H321C404 729 466 711 507 677 548 642 569 589 569 519 569 473 558 434 537 404 515 374 484 353 444 342ZM197 648V389H321C368 389 404 400 428 422 452 444 465 476 465 519 465 561 452 593 428 615 404 637 368 648 321 648H197Z"/>
</g>
<g id="font_11_97">
<path transform="matrix(.001,0,0,.001,0,0)" d="M343 275C270 275 220 266 192 250 164 233 150 205 150 165 150 133 160 107 181 89 202 70 231 61 267 61 317 61 357 78 387 114 417 149 432 196 432 255V275H343ZM522 312V0H432V83C411 49 385 25 355 10 325-5 287-13 243-13 187-13 142 2 109 33 76 64 60 106 60 159 60 220 80 266 122 298 163 329 224 345 306 345H432V354C432 395 418 427 391 450 364 472 326 484 277 484 245 484 215 480 185 472 155 464 127 453 100 439V522C132 534 164 544 195 550 226 556 256 560 286 560 365 560 424 539 463 498 502 457 522 395 522 312Z"/>
</g>
<g id="font_11_103">
<path transform="matrix(.001,0,0,.001,0,0)" d="M454 280C454 344 440 395 414 431 387 467 349 485 301 485 253 485 215 467 188 431 161 395 148 344 148 280 148 215 161 165 188 129 215 93 253 75 301 75 349 75 387 93 414 129 440 165 454 215 454 280ZM544 68C544-24 523-93 482-139 440-184 377-207 292-207 260-207 231-204 203-200 175-195 147-188 121-178V-91C147-105 173-115 199-122 225-129 251-133 278-133 336-133 380-117 410-87 439-56 454-10 454 52V96C435 64 411 40 382 24 353 8 319 0 279 0 211 0 157 25 116 76 75 127 55 195 55 280 55 364 75 432 116 483 157 534 211 560 279 560 319 560 353 552 382 536 411 520 435 496 454 464V547H544V68Z"/>
</g>
<g id="font_11_101">
<path transform="matrix(.001,0,0,.001,0,0)" d="M562 296V252H149C153 190 171 142 205 110 238 78 284 62 344 62 378 62 412 66 444 74 476 82 509 95 541 113V28C509 14 476 3 442-3 408-9 373-13 339-13 251-13 182 12 131 62 80 112 55 181 55 268 55 357 79 428 127 481 175 533 241 560 323 560 397 560 455 536 498 489 540 441 562 377 562 296ZM472 322C471 371 457 410 431 440 404 469 368 484 324 484 274 484 234 469 204 441 174 413 156 373 152 322H472Z"/>
</g>
<g id="font_11_115">
<path transform="matrix(.001,0,0,.001,0,0)" d="M443 531V446C417 458 391 468 364 475 336 481 308 485 279 485 234 485 200 478 178 464 156 450 145 430 145 403 145 382 153 366 169 354 185 342 217 330 265 320L296 313C360 299 405 279 432 255 458 230 472 195 472 151 472 100 452 60 412 31 372 1 316-13 246-13 216-13 186-10 154-5 122 0 89 8 54 20V113C87 95 120 82 152 74 184 65 216 61 248 61 290 61 323 68 346 82 368 96 380 117 380 144 380 168 371 187 355 200 339 213 303 226 247 238L216 245C160 257 119 275 95 299 70 323 58 356 58 399 58 450 76 490 112 518 148 546 200 560 268 560 301 560 332 557 362 552 391 547 418 540 443 531Z"/>
</g>
<g id="font_11_80">
<path transform="matrix(.001,0,0,.001,0,0)" d="M197 648V374H321C367 374 402 385 427 409 452 433 465 467 465 511 465 555 452 588 427 612 402 636 367 648 321 648H197ZM98 729H321C402 729 464 710 506 673 548 636 569 582 569 511 569 439 548 384 506 348 464 311 402 293 321 293H197V0H98V729Z"/>
</g>
<g id="font_11_99">
<path transform="matrix(.001,0,0,.001,0,0)" d="M488 526V442C462 456 437 466 411 473 385 480 360 484 334 484 276 484 230 465 198 428 166 391 150 339 150 273 150 206 166 154 198 117 230 80 276 62 334 62 360 62 385 65 411 72 437 79 462 90 488 104V21C462 9 436 0 410-5 383-10 354-13 324-13 242-13 176 12 128 64 79 115 55 185 55 273 55 362 79 432 128 483 177 534 244 560 330 560 358 560 385 557 411 551 437 545 463 537 488 526Z"/>
</g>
<g id="font_11_111">
<path transform="matrix(.001,0,0,.001,0,0)" d="M306 484C258 484 220 465 192 427 164 389 150 338 150 273 150 207 163 156 191 118 219 80 257 62 306 62 354 62 392 80 420 118 448 156 462 207 462 273 462 337 448 389 420 427 392 465 354 484 306 484ZM306 560C384 560 445 534 490 484 534 433 557 363 557 273 557 183 534 113 490 63 445 12 384-13 306-13 227-13 165 12 121 63 77 113 55 183 55 273 55 363 77 433 121 484 165 534 227 560 306 560Z"/>
</g>
<g id="font_11_114">
<path transform="matrix(.001,0,0,.001,0,0)" d="M411 463C401 469 390 473 378 476 366 478 353 480 339 480 288 480 249 463 222 430 194 397 181 350 181 288V0H91V547H181V462C199 495 224 520 254 536 284 552 321 560 365 560 371 560 378 559 386 559 393 558 401 557 411 555V463Z"/>
</g>
<g id="font_11_116">
<path transform="matrix(.001,0,0,.001,0,0)" d="M183 702V547H368V477H183V180C183 135 189 106 201 94 213 81 238 75 276 75H368V0H276C206 0 158 13 132 39 106 65 93 112 93 180V477H27V547H93V702H183Z"/>
</g>
<g id="font_11_41">
<path transform="matrix(.001,0,0,.001,0,0)" d="M80 759H158C206 682 243 607 267 533 291 459 304 386 304 314 304 241 291 168 267 94 243 20 206-54 158-131H80C123-56 155 17 177 91 198 164 209 238 209 314 209 389 198 463 177 536 155 609 123 683 80 759Z"/>
</g>
<clipPath id="clip_12">
<path transform="matrix(1,0,0,-1,0,648)" d="M104.49 195.5H585.36V637.2H104.49Z"/>
</clipPath>
<clipPath id="clip_13">
<path transform="matrix(1,0,0,-1,0,648)" d="M104.49 195.5H585.36V637.2H104.49Z"/>
</clipPath>
<clipPath id="clip_14">
<path transform="matrix(1,0,0,-1,0,648)" d="M104.49 195.5H585.36V637.2H104.49Z"/>
</clipPath>
<clipPath id="clip_15">
<path transform="matrix(1,0,0,-1,0,648)" d="M104.49 195.5H585.36V637.2H104.49Z"/>
</clipPath>
<clipPath id="clip_16">
<path transform="matrix(1,0,0,-1,0,648)" d="M104.49 195.5H585.36V637.2H104.49Z"/>
</clipPath>
<clipPath id="clip_17">
<path transform="matrix(1,0,0,-1,0,648)" d="M104.49 195.5H585.36V637.2H104.49Z"/>
</clipPath>
<clipPath id="clip_18">
<path transform="matrix(1,0,0,-1,0,648)" d="M104.49 195.5H585.36V637.2H104.49Z"/>
</clipPath>
<clipPath id="clip_19">
<path transform="matrix(1,0,0,-1,0,648)" d="M104.49 195.5H585.36V637.2H104.49Z"/>
</clipPath>
<clipPath id="clip_20">
<path transform="matrix(1,0,0,-1,0,648)" d="M104.49 195.5H585.36V637.2H104.49Z"/>
</clipPath>
<clipPath id="clip_21">
<path transform="matrix(1,0,0,-1,0,648)" d="M104.49 195.5H585.36V637.2H104.49Z"/>
</clipPath>
<clipPath id="clip_22">
<path transform="matrix(1,0,0,-1,0,648)" d="M104.49 195.5H585.36V637.2H104.49Z"/>
</clipPath>
<clipPath id="clip_23">
<path transform="matrix(1,0,0,-1,0,648)" d="M104.49 195.5H585.36V637.2H104.49Z"/>
</clipPath>
<clipPath id="clip_24">
<path transform="matrix(1,0,0,-1,0,648)" d="M104.49 195.5H585.36V637.2H104.49Z"/>
</clipPath>
<clipPath id="clip_25">
<path transform="matrix(1,0,0,-1,0,648)" d="M104.49 195.5H585.36V637.2H104.49Z"/>
</clipPath>
<clipPath id="clip_26">
<path transform="matrix(1,0,0,-1,0,648)" d="M104.49 195.5H585.36V637.2H104.49Z"/>
</clipPath>
<clipPath id="clip_27">
<path transform="matrix(1,0,0,-1,0,648)" d="M104.49 195.5H585.36V637.2H104.49Z"/>
</clipPath>
<clipPath id="clip_28">
<path transform="matrix(1,0,0,-1,0,648)" d="M104.49 195.5H585.36V637.2H104.49Z"/>
</clipPath>
<clipPath id="clip_29">
<path transform="matrix(1,0,0,-1,0,648)" d="M104.49 195.5H585.36V637.2H104.49Z"/>
</clipPath>
<clipPath id="clip_30">
<path transform="matrix(1,0,0,-1,0,648)" d="M104.49 195.5H585.36V637.2H104.49Z"/>
</clipPath>
<clipPath id="clip_31">
<path transform="matrix(1,0,0,-1,0,648)" d="M104.49 195.5H585.36V637.2H104.49Z"/>
</clipPath>
<clipPath id="clip_32">
<path transform="matrix(1,0,0,-1,0,648)" d="M104.49 195.5H585.36V637.2H104.49Z"/>
</clipPath>
<g id="font_11_78">
<path transform="matrix(.001,0,0,.001,0,0)" d="M98 729H231L554 119V729H650V0H517L194 610V0H98V729Z"/>
</g>
<g id="font_11_117">
<path transform="matrix(.001,0,0,.001,0,0)" d="M85 216V547H175V219C175 167 185 129 205 103 225 77 255 64 296 64 344 64 383 79 411 110 439 141 453 183 453 237V547H543V0H453V84C431 50 405 26 377 10 348-5 315-13 277-13 214-13 166 6 134 45 101 83 85 140 85 216ZM311 560V560Z"/>
</g>
<g id="font_11_109">
<path transform="matrix(.001,0,0,.001,0,0)" d="M520 442C542 482 569 511 600 531 631 550 668 560 711 560 767 560 811 540 842 500 873 460 889 403 889 330V0H799V327C799 379 789 418 771 444 752 469 724 482 686 482 639 482 602 466 575 435 548 404 535 362 535 309V0H445V327C445 379 435 418 417 444 398 469 369 482 331 482 285 482 248 466 221 435 194 404 181 362 181 309V0H91V547H181V462C201 495 226 520 255 536 283 552 317 560 357 560 397 560 430 550 458 530 486 510 506 480 520 442Z"/>
</g>
<g id="font_11_98">
<path transform="matrix(.001,0,0,.001,0,0)" d="M487 273C487 339 473 390 446 428 418 466 381 485 334 485 286 485 249 466 222 428 194 390 181 339 181 273 181 207 194 155 222 117 249 79 286 61 334 61 381 61 418 79 446 117 473 155 487 207 487 273ZM181 464C199 496 223 520 252 536 281 552 316 560 356 560 422 560 476 533 518 481 559 428 580 359 580 273 580 187 559 117 518 65 476 13 422-13 356-13 316-13 281-5 252 10 223 25 199 49 181 82V0H91V760H181V464Z"/>
</g>
<g id="font_11_102">
<path transform="matrix(.001,0,0,.001,0,0)" d="M371 760V685H285C253 685 230 678 218 665 205 652 199 629 199 595V547H347V477H199V0H109V477H23V547H109V585C109 645 123 690 151 718 179 746 224 760 286 760H371Z"/>
</g>
<g id="font_11_79">
<path transform="matrix(.001,0,0,.001,0,0)" d="M394 662C322 662 265 635 223 582 181 528 160 456 160 364 160 272 181 199 223 146 265 92 322 66 394 66 465 66 522 92 564 146 606 199 627 272 627 364 627 456 606 528 564 582 522 635 465 662 394 662ZM394 742C496 742 577 707 639 639 700 571 731 479 731 364 731 248 700 157 639 89 577 21 496-13 394-13 291-13 209 21 148 89 86 157 56 248 56 364 56 479 86 571 148 639 209 707 291 742 394 742Z"/>
</g>
<clipPath id="clip_33">
<path transform="matrix(1,0,0,-1,0,648)" d="M104.49 195.5H585.36V637.2H104.49Z"/>
</clipPath>
<clipPath id="clip_34">
<path transform="matrix(1,0,0,-1,0,648)" d="M104.49 195.5H585.36V637.2H104.49Z"/>
</clipPath>
<clipPath id="clip_35">
<path transform="matrix(1,0,0,-1,0,648)" d="M104.49 195.5H585.36V637.2H104.49Z"/>
</clipPath>
<clipPath id="clip_36">
<path transform="matrix(1,0,0,-1,0,648)" d="M104.49 195.5H585.36V637.2H104.49Z"/>
</clipPath>
<clipPath id="clip_37">
<path transform="matrix(1,0,0,-1,0,648)" d="M104.49 195.5H585.36V637.2H104.49Z"/>
</clipPath>
<clipPath id="clip_38">
<path transform="matrix(1,0,0,-1,0,648)" d="M104.49 195.5H585.36V637.2H104.49Z"/>
</clipPath>
<clipPath id="clip_39">
<path transform="matrix(1,0,0,-1,0,648)" d="M104.49 195.5H585.36V637.2H104.49Z"/>
</clipPath>
<clipPath id="clip_40">
<path transform="matrix(1,0,0,-1,0,648)" d="M104.49 195.5H585.36V637.2H104.49Z"/>
</clipPath>
<clipPath id="clip_41">
<path transform="matrix(1,0,0,-1,0,648)" d="M104.49 195.5H585.36V637.2H104.49Z"/>
</clipPath>
<clipPath id="clip_42">
<path transform="matrix(1,0,0,-1,0,648)" d="M104.49 195.5H585.36V637.2H104.49Z"/>
</clipPath>
<clipPath id="clip_43">
<path transform="matrix(1,0,0,-1,0,648)" d="M104.49 195.5H585.36V637.2H104.49Z"/>
</clipPath>
</defs>
<path transform="matrix(1,0,0,-1,0,648)" d="M0 0H720V648H0Z" fill="#ffffff"/>
<path transform="matrix(1,0,0,-1,0,648)" d="M104.49 195.5H585.36V637.2H104.49Z" fill="#ffffff"/>
<g clip-path="url(#clip_1)">
<path transform="matrix(1,0,0,-1,0,648)" d="M126.347728 195.5H162.03382V201.19243H126.347728Z" fill="#221724"/>
</g>
<g clip-path="url(#clip_2)">
<path transform="matrix(1,0,0,-1,0,648)" d="M170.95534 195.5H206.64142V251.45694H170.95534Z" fill="#362b47"/>
</g>
<g clip-path="url(#clip_3)">
<path transform="matrix(1,0,0,-1,0,648)" d="M215.56295 195.5H251.24903V286.23204H215.56295Z" fill="#45406d"/>
</g>
<g clip-path="url(#clip_4)">
<path transform="matrix(1,0,0,-1,0,648)" d="M260.17054 195.5H295.85664V316.52903H260.17054Z" fill="#48588b"/>
</g>
<g clip-path="url(#clip_5)">
<path transform="matrix(1,0,0,-1,0,648)" d="M304.77818 195.5H340.46424V377.26515H304.77818Z" fill="#436d93"/>
</g>
<g clip-path="url(#clip_6)">
<path transform="matrix(1,0,0,-1,0,648)" d="M349.38578 195.5H385.07185V406.1172H349.38578Z" fill="#428197"/>
</g>
<g clip-path="url(#clip_7)">
<path transform="matrix(1,0,0,-1,0,648)" d="M393.99339 195.5H429.67945V457.21247H393.99339Z" fill="#44959c"/>
</g>
<g clip-path="url(#clip_8)">
<path transform="matrix(1,0,0,-1,0,648)" d="M438.60099 195.5H474.28706V460.74479H438.60099Z" fill="#53ada2"/>
</g>
<g clip-path="url(#clip_9)">
<path transform="matrix(1,0,0,-1,0,648)" d="M483.2086 195.5H518.89468V489.71174H483.2086Z" fill="#7ac6aa"/>
</g>
<g clip-path="url(#clip_10)">
<path transform="matrix(1,0,0,-1,0,648)" d="M527.81619 195.5H563.50228V598.0711H527.81619Z" fill="#b4dcc2"/>
</g>
<path transform="matrix(1,0,0,-1,0,648)" d="M144.19077 195.5V192"/>
<path transform="matrix(1,0,0,-1,0,648)" stroke-width=".8" stroke-linecap="butt" stroke-linejoin="round" fill="none" stroke="#000000" d="M144.19077 195.5V192"/>
<use data-text="(" xlink:href="#font_11_40" transform="matrix(0,24,24,0,137.57358,459.5)"/>
<use data-text="-" xlink:href="#font_11_45" transform="matrix(0,24,24,0,137.57358,468.86)"/>
<use data-text="0" xlink:href="#font_11_48" transform="matrix(0,24,24,0,137.57358,477.524)"/>
<use data-text="." xlink:href="#font_11_46" transform="matrix(0,24,24,0,137.57358,492.788)"/>
<use data-text="0" xlink:href="#font_11_48" transform="matrix(0,24,24,0,137.57358,500.42)"/>
<use data-text="0" xlink:href="#font_11_48" transform="matrix(0,24,24,0,137.57358,515.684)"/>
<use data-text="1" xlink:href="#font_11_49" transform="matrix(0,24,24,0,137.57358,530.948)"/>
<use data-text="," xlink:href="#font_11_44" transform="matrix(0,24,24,0,137.57358,546.21206)"/>
<use data-text=" " xlink:href="#font_11_32" transform="matrix(0,24,24,0,137.57358,553.844)"/>
<use data-text="0" xlink:href="#font_11_48" transform="matrix(0,24,24,0,137.57358,561.476)"/>
<use data-text="." xlink:href="#font_11_46" transform="matrix(0,24,24,0,137.57358,576.74)"/>
<use data-text="1" xlink:href="#font_11_49" transform="matrix(0,24,24,0,137.57358,584.372)"/>
<use data-text="]" xlink:href="#font_11_93" transform="matrix(0,24,24,0,137.57358,599.636)"/>
<path transform="matrix(1,0,0,-1,0,648)" d="M188.79837 195.5V192"/>
<path transform="matrix(1,0,0,-1,0,648)" stroke-width=".8" stroke-linecap="butt" stroke-linejoin="round" fill="none" stroke="#000000" d="M188.79837 195.5V192"/>
<use data-text="(" xlink:href="#font_11_40" transform="matrix(0,24,24,0,182.18119,459.5)"/>
<use data-text="0" xlink:href="#font_11_48" transform="matrix(0,24,24,0,182.18119,468.86)"/>
<use data-text="." xlink:href="#font_11_46" transform="matrix(0,24,24,0,182.18119,484.124)"/>
<use data-text="1" xlink:href="#font_11_49" transform="matrix(0,24,24,0,182.18119,491.756)"/>
<use data-text="," xlink:href="#font_11_44" transform="matrix(0,24,24,0,182.18119,507.02)"/>
<use data-text=" " xlink:href="#font_11_32" transform="matrix(0,24,24,0,182.18119,514.652)"/>
<use data-text="0" xlink:href="#font_11_48" transform="matrix(0,24,24,0,182.18119,522.284)"/>
<use data-text="." xlink:href="#font_11_46" transform="matrix(0,24,24,0,182.18119,537.548)"/>
<use data-text="2" xlink:href="#font_11_50" transform="matrix(0,24,24,0,182.18119,545.18)"/>
<use data-text="]" xlink:href="#font_11_93" transform="matrix(0,24,24,0,182.18119,560.44406)"/>
<path transform="matrix(1,0,0,-1,0,648)" d="M233.40599 195.5V192"/>
<path transform="matrix(1,0,0,-1,0,648)" stroke-width=".8" stroke-linecap="butt" stroke-linejoin="round" fill="none" stroke="#000000" d="M233.40599 195.5V192"/>
<use data-text="(" xlink:href="#font_11_40" transform="matrix(0,24,24,0,226.78879,459.5)"/>
<use data-text="0" xlink:href="#font_11_48" transform="matrix(0,24,24,0,226.78879,468.86)"/>
<use data-text="." xlink:href="#font_11_46" transform="matrix(0,24,24,0,226.78879,484.124)"/>
<use data-text="2" xlink:href="#font_11_50" transform="matrix(0,24,24,0,226.78879,491.756)"/>
<use data-text="," xlink:href="#font_11_44" transform="matrix(0,24,24,0,226.78879,507.02)"/>
<use data-text=" " xlink:href="#font_11_32" transform="matrix(0,24,24,0,226.78879,514.652)"/>
<use data-text="0" xlink:href="#font_11_48" transform="matrix(0,24,24,0,226.78879,522.284)"/>
<use data-text="." xlink:href="#font_11_46" transform="matrix(0,24,24,0,226.78879,537.548)"/>
<use data-text="3" xlink:href="#font_11_51" transform="matrix(0,24,24,0,226.78879,545.18)"/>
<use data-text="]" xlink:href="#font_11_93" transform="matrix(0,24,24,0,226.78879,560.44406)"/>
<path transform="matrix(1,0,0,-1,0,648)" d="M278.01359 195.5V192"/>
<path transform="matrix(1,0,0,-1,0,648)" stroke-width=".8" stroke-linecap="butt" stroke-linejoin="round" fill="none" stroke="#000000" d="M278.01359 195.5V192"/>
<use data-text="(" xlink:href="#font_11_40" transform="matrix(0,24,24,0,271.3964,459.5)"/>
<use data-text="0" xlink:href="#font_11_48" transform="matrix(0,24,24,0,271.3964,468.86)"/>
<use data-text="." xlink:href="#font_11_46" transform="matrix(0,24,24,0,271.3964,484.124)"/>
<use data-text="3" xlink:href="#font_11_51" transform="matrix(0,24,24,0,271.3964,491.756)"/>
<use data-text="," xlink:href="#font_11_44" transform="matrix(0,24,24,0,271.3964,507.02)"/>
<use data-text=" " xlink:href="#font_11_32" transform="matrix(0,24,24,0,271.3964,514.652)"/>
<use data-text="0" xlink:href="#font_11_48" transform="matrix(0,24,24,0,271.3964,522.284)"/>
<use data-text="." xlink:href="#font_11_46" transform="matrix(0,24,24,0,271.3964,537.548)"/>
<use data-text="4" xlink:href="#font_11_52" transform="matrix(0,24,24,0,271.3964,545.18)"/>
<use data-text="]" xlink:href="#font_11_93" transform="matrix(0,24,24,0,271.3964,560.44406)"/>
<path transform="matrix(1,0,0,-1,0,648)" d="M322.6212 195.5V192"/>
<path transform="matrix(1,0,0,-1,0,648)" stroke-width=".8" stroke-linecap="butt" stroke-linejoin="round" fill="none" stroke="#000000" d="M322.6212 195.5V192"/>
<use data-text="(" xlink:href="#font_11_40" transform="matrix(0,24,24,0,316.004,459.5)"/>
<use data-text="0" xlink:href="#font_11_48" transform="matrix(0,24,24,0,316.004,468.86)"/>
<use data-text="." xlink:href="#font_11_46" transform="matrix(0,24,24,0,316.004,484.124)"/>
<use data-text="4" xlink:href="#font_11_52" transform="matrix(0,24,24,0,316.004,491.756)"/>
<use data-text="," xlink:href="#font_11_44" transform="matrix(0,24,24,0,316.004,507.02)"/>
<use data-text=" " xlink:href="#font_11_32" transform="matrix(0,24,24,0,316.004,514.652)"/>
<use data-text="0" xlink:href="#font_11_48" transform="matrix(0,24,24,0,316.004,522.284)"/>
<use data-text="." xlink:href="#font_11_46" transform="matrix(0,24,24,0,316.004,537.548)"/>
<use data-text="5" xlink:href="#font_11_53" transform="matrix(0,24,24,0,316.004,545.18)"/>
<use data-text="]" xlink:href="#font_11_93" transform="matrix(0,24,24,0,316.004,560.44406)"/>
<path transform="matrix(1,0,0,-1,0,648)" d="M367.2288 195.5V192"/>
<path transform="matrix(1,0,0,-1,0,648)" stroke-width=".8" stroke-linecap="butt" stroke-linejoin="round" fill="none" stroke="#000000" d="M367.2288 195.5V192"/>
<use data-text="(" xlink:href="#font_11_40" transform="matrix(0,24,24,0,360.6116,459.5)"/>
<use data-text="0" xlink:href="#font_11_48" transform="matrix(0,24,24,0,360.6116,468.86)"/>
<use data-text="." xlink:href="#font_11_46" transform="matrix(0,24,24,0,360.6116,484.124)"/>
<use data-text="5" xlink:href="#font_11_53" transform="matrix(0,24,24,0,360.6116,491.756)"/>
<use data-text="," xlink:href="#font_11_44" transform="matrix(0,24,24,0,360.6116,507.02)"/>
<use data-text=" " xlink:href="#font_11_32" transform="matrix(0,24,24,0,360.6116,514.652)"/>
<use data-text="0" xlink:href="#font_11_48" transform="matrix(0,24,24,0,360.6116,522.284)"/>
<use data-text="." xlink:href="#font_11_46" transform="matrix(0,24,24,0,360.6116,537.548)"/>
<use data-text="6" xlink:href="#font_11_54" transform="matrix(0,24,24,0,360.6116,545.18)"/>
<use data-text="]" xlink:href="#font_11_93" transform="matrix(0,24,24,0,360.6116,560.44406)"/>
<path transform="matrix(1,0,0,-1,0,648)" d="M411.8364 195.5V192"/>
<path transform="matrix(1,0,0,-1,0,648)" stroke-width=".8" stroke-linecap="butt" stroke-linejoin="round" fill="none" stroke="#000000" d="M411.8364 195.5V192"/>
<use data-text="(" xlink:href="#font_11_40" transform="matrix(0,24,24,0,405.2192,459.5)"/>
<use data-text="0" xlink:href="#font_11_48" transform="matrix(0,24,24,0,405.2192,468.86)"/>
<use data-text="." xlink:href="#font_11_46" transform="matrix(0,24,24,0,405.2192,484.124)"/>
<use data-text="6" xlink:href="#font_11_54" transform="matrix(0,24,24,0,405.2192,491.756)"/>
<use data-text="," xlink:href="#font_11_44" transform="matrix(0,24,24,0,405.2192,507.02)"/>
<use data-text=" " xlink:href="#font_11_32" transform="matrix(0,24,24,0,405.2192,514.652)"/>
<use data-text="0" xlink:href="#font_11_48" transform="matrix(0,24,24,0,405.2192,522.284)"/>
<use data-text="." xlink:href="#font_11_46" transform="matrix(0,24,24,0,405.2192,537.548)"/>
<use data-text="7" xlink:href="#font_11_55" transform="matrix(0,24,24,0,405.2192,545.18)"/>
<use data-text="]" xlink:href="#font_11_93" transform="matrix(0,24,24,0,405.2192,560.44406)"/>
<path transform="matrix(1,0,0,-1,0,648)" d="M456.44404 195.5V192"/>
<path transform="matrix(1,0,0,-1,0,648)" stroke-width=".8" stroke-linecap="butt" stroke-linejoin="round" fill="none" stroke="#000000" d="M456.44404 195.5V192"/>
<use data-text="(" xlink:href="#font_11_40" transform="matrix(0,24,24,0,449.82685,459.5)"/>
<use data-text="0" xlink:href="#font_11_48" transform="matrix(0,24,24,0,449.82685,468.86)"/>
<use data-text="." xlink:href="#font_11_46" transform="matrix(0,24,24,0,449.82685,484.124)"/>
<use data-text="7" xlink:href="#font_11_55" transform="matrix(0,24,24,0,449.82685,491.756)"/>
<use data-text="," xlink:href="#font_11_44" transform="matrix(0,24,24,0,449.82685,507.02)"/>
<use data-text=" " xlink:href="#font_11_32" transform="matrix(0,24,24,0,449.82685,514.652)"/>
<use data-text="0" xlink:href="#font_11_48" transform="matrix(0,24,24,0,449.82685,522.284)"/>
<use data-text="." xlink:href="#font_11_46" transform="matrix(0,24,24,0,449.82685,537.548)"/>
<use data-text="8" xlink:href="#font_11_56" transform="matrix(0,24,24,0,449.82685,545.18)"/>
<use data-text="]" xlink:href="#font_11_93" transform="matrix(0,24,24,0,449.82685,560.44406)"/>
<path transform="matrix(1,0,0,-1,0,648)" d="M501.05165 195.5V192"/>
<path transform="matrix(1,0,0,-1,0,648)" stroke-width=".8" stroke-linecap="butt" stroke-linejoin="round" fill="none" stroke="#000000" d="M501.05165 195.5V192"/>
<use data-text="(" xlink:href="#font_11_40" transform="matrix(0,24,24,0,494.43446,459.5)"/>
<use data-text="0" xlink:href="#font_11_48" transform="matrix(0,24,24,0,494.43446,468.86)"/>
<use data-text="." xlink:href="#font_11_46" transform="matrix(0,24,24,0,494.43446,484.124)"/>
<use data-text="8" xlink:href="#font_11_56" transform="matrix(0,24,24,0,494.43446,491.756)"/>
<use data-text="," xlink:href="#font_11_44" transform="matrix(0,24,24,0,494.43446,507.02)"/>
<use data-text=" " xlink:href="#font_11_32" transform="matrix(0,24,24,0,494.43446,514.652)"/>
<use data-text="0" xlink:href="#font_11_48" transform="matrix(0,24,24,0,494.43446,522.284)"/>
<use data-text="." xlink:href="#font_11_46" transform="matrix(0,24,24,0,494.43446,537.548)"/>
<use data-text="9" xlink:href="#font_11_57" transform="matrix(0,24,24,0,494.43446,545.18)"/>
<use data-text="]" xlink:href="#font_11_93" transform="matrix(0,24,24,0,494.43446,560.44406)"/>
<path transform="matrix(1,0,0,-1,0,648)" d="M545.65927 195.5V192"/>
<path transform="matrix(1,0,0,-1,0,648)" stroke-width=".8" stroke-linecap="butt" stroke-linejoin="round" fill="none" stroke="#000000" d="M545.65927 195.5V192"/>
<use data-text="(" xlink:href="#font_11_40" transform="matrix(0,24,24,0,539.04208,459.5)"/>
<use data-text="0" xlink:href="#font_11_48" transform="matrix(0,24,24,0,539.04208,468.86)"/>
<use data-text="." xlink:href="#font_11_46" transform="matrix(0,24,24,0,539.04208,484.124)"/>
<use data-text="9" xlink:href="#font_11_57" transform="matrix(0,24,24,0,539.04208,491.756)"/>
<use data-text="," xlink:href="#font_11_44" transform="matrix(0,24,24,0,539.04208,507.02)"/>
<use data-text=" " xlink:href="#font_11_32" transform="matrix(0,24,24,0,539.04208,514.652)"/>
<use data-text="1" xlink:href="#font_11_49" transform="matrix(0,24,24,0,539.04208,522.284)"/>
<use data-text="." xlink:href="#font_11_46" transform="matrix(0,24,24,0,539.04208,537.548)"/>
<use data-text="0" xlink:href="#font_11_48" transform="matrix(0,24,24,0,539.04208,545.18)"/>
<use data-text="]" xlink:href="#font_11_93" transform="matrix(0,24,24,0,539.04208,560.44406)"/>
<use data-text="B" xlink:href="#font_11_66" transform="matrix(24,0,0,-24,277.63594,631.2031)"/>
<use data-text="i" xlink:href="#font_11_105" transform="matrix(24,0,0,-24,294.0999,631.2031)"/>
<use data-text="n" xlink:href="#font_11_110" transform="matrix(24,0,0,-24,300.7719,631.2031)"/>
<use data-text=" " xlink:href="#font_11_32" transform="matrix(24,0,0,-24,315.9879,631.2031)"/>
<use data-text="R" xlink:href="#font_11_82" transform="matrix(24,0,0,-24,323.61994,631.2031)"/>
<use data-text="a" xlink:href="#font_11_97" transform="matrix(24,0,0,-24,339.7843,631.2031)"/>
<use data-text="n" xlink:href="#font_11_110" transform="matrix(24,0,0,-24,354.4963,631.2031)"/>
<use data-text="g" xlink:href="#font_11_103" transform="matrix(24,0,0,-24,369.71229,631.2031)"/>
<use data-text="e" xlink:href="#font_11_101" transform="matrix(24,0,0,-24,384.9523,631.2031)"/>
<use data-text="s" xlink:href="#font_11_115" transform="matrix(24,0,0,-24,399.7123,631.2031)"/>
<path transform="matrix(1,0,0,-1,0,648)" d="M104.49 195.5H80.49" fill="#413d7b"/>
<path transform="matrix(1,0,0,-1,0,648)" stroke-width=".8" stroke-linecap="butt" stroke-linejoin="round" fill="none" stroke="#413d7b" d="M104.49 195.5H80.49"/>
<use data-text="0" xlink:href="#font_11_48" transform="matrix(24,0,0,-24,38.83375,461.6172)" fill="#413d7b"/>
<use data-text="." xlink:href="#font_11_46" transform="matrix(24,0,0,-24,54.09775,461.6172)" fill="#413d7b"/>
<use data-text="0" xlink:href="#font_11_48" transform="matrix(24,0,0,-24,61.72975,461.6172)" fill="#413d7b"/>
<path transform="matrix(1,0,0,-1,0,648)" d="M104.49 279.63334H80.49" fill="#413d7b"/>
<path transform="matrix(1,0,0,-1,0,648)" stroke-width=".8" stroke-linecap="butt" stroke-linejoin="round" fill="none" stroke="#413d7b" d="M104.49 279.63334H80.49"/>
<use data-text="0" xlink:href="#font_11_48" transform="matrix(24,0,0,-24,38.83375,377.48387)" fill="#413d7b"/>
<use data-text="." xlink:href="#font_11_46" transform="matrix(24,0,0,-24,54.09775,377.48387)" fill="#413d7b"/>
<use data-text="2" xlink:href="#font_11_50" transform="matrix(24,0,0,-24,61.72975,377.48387)" fill="#413d7b"/>
<path transform="matrix(1,0,0,-1,0,648)" d="M104.49 363.76667H80.49" fill="#413d7b"/>
<path transform="matrix(1,0,0,-1,0,648)" stroke-width=".8" stroke-linecap="butt" stroke-linejoin="round" fill="none" stroke="#413d7b" d="M104.49 363.76667H80.49"/>
<use data-text="0" xlink:href="#font_11_48" transform="matrix(24,0,0,-24,38.83375,293.35054)" fill="#413d7b"/>
<use data-text="." xlink:href="#font_11_46" transform="matrix(24,0,0,-24,54.09775,293.35054)" fill="#413d7b"/>
<use data-text="4" xlink:href="#font_11_52" transform="matrix(24,0,0,-24,61.72975,293.35054)" fill="#413d7b"/>
<path transform="matrix(1,0,0,-1,0,648)" d="M104.49 447.9H80.49" fill="#413d7b"/>
<path transform="matrix(1,0,0,-1,0,648)" stroke-width=".8" stroke-linecap="butt" stroke-linejoin="round" fill="none" stroke="#413d7b" d="M104.49 447.9H80.49"/>
<use data-text="0" xlink:href="#font_11_48" transform="matrix(24,0,0,-24,38.83375,209.2172)" fill="#413d7b"/>
<use data-text="." xlink:href="#font_11_46" transform="matrix(24,0,0,-24,54.09775,209.2172)" fill="#413d7b"/>
<use data-text="6" xlink:href="#font_11_54" transform="matrix(24,0,0,-24,61.72975,209.2172)" fill="#413d7b"/>
<path transform="matrix(1,0,0,-1,0,648)" d="M104.49 532.0333H80.49" fill="#413d7b"/>
<path transform="matrix(1,0,0,-1,0,648)" stroke-width=".8" stroke-linecap="butt" stroke-linejoin="round" fill="none" stroke="#413d7b" d="M104.49 532.0333H80.49"/>
<use data-text="0" xlink:href="#font_11_48" transform="matrix(24,0,0,-24,38.83375,125.08386)" fill="#413d7b"/>
<use data-text="." xlink:href="#font_11_46" transform="matrix(24,0,0,-24,54.09775,125.08386)" fill="#413d7b"/>
<use data-text="8" xlink:href="#font_11_56" transform="matrix(24,0,0,-24,61.72975,125.08386)" fill="#413d7b"/>
<path transform="matrix(1,0,0,-1,0,648)" d="M104.49 616.1667H80.49" fill="#413d7b"/>
<path transform="matrix(1,0,0,-1,0,648)" stroke-width=".8" stroke-linecap="butt" stroke-linejoin="round" fill="none" stroke="#413d7b" d="M104.49 616.1667H80.49"/>
<use data-text="1" xlink:href="#font_11_49" transform="matrix(24,0,0,-24,38.83375,40.9505)" fill="#413d7b"/>
<use data-text="." xlink:href="#font_11_46" transform="matrix(24,0,0,-24,54.09775,40.9505)" fill="#413d7b"/>
<use data-text="0" xlink:href="#font_11_48" transform="matrix(24,0,0,-24,61.72975,40.9505)" fill="#413d7b"/>
<use data-text="P" xlink:href="#font_11_80" transform="matrix(0,-24,-24,-0,29.83375,290.31407)" fill="#413d7b"/>
<use data-text="(" xlink:href="#font_11_40" transform="matrix(0,-24,-24,-0,29.83375,275.84205)" fill="#413d7b"/>
<use data-text="c" xlink:href="#font_11_99" transform="matrix(0,-24,-24,-0,29.83375,266.48207)" fill="#413d7b"/>
<use data-text="o" xlink:href="#font_11_111" transform="matrix(0,-24,-24,-0,29.83375,253.28206)" fill="#413d7b"/>
<use data-text="r" xlink:href="#font_11_114" transform="matrix(0,-24,-24,-0,29.83375,238.59406)" fill="#413d7b"/>
<use data-text="r" xlink:href="#font_11_114" transform="matrix(0,-24,-24,-0,29.83375,229.15193)" fill="#413d7b"/>
<use data-text="e" xlink:href="#font_11_101" transform="matrix(0,-24,-24,-0,29.83375,219.80356)" fill="#413d7b"/>
<use data-text="c" xlink:href="#font_11_99" transform="matrix(0,-24,-24,-0,29.83375,205.04355)" fill="#413d7b"/>
<use data-text="t" xlink:href="#font_11_116" transform="matrix(0,-24,-24,-0,29.83375,191.84355)" fill="#413d7b"/>
<use data-text=")" xlink:href="#font_11_41" transform="matrix(0,-24,-24,-0,29.83375,182.43555)" fill="#413d7b"/>
<g clip-path="url(#clip_12)">
<path transform="matrix(1,0,0,-1,0,648)" stroke-width="2.25" stroke-linecap="square" stroke-linejoin="round" fill="none" stroke="#424242" d=""/>
</g>
<g clip-path="url(#clip_13)">
<path transform="matrix(1,0,0,-1,0,648)" stroke-width="2.25" stroke-linecap="square" stroke-linejoin="round" fill="none" stroke="#424242" d=""/>
</g>
<g clip-path="url(#clip_14)">
<path transform="matrix(1,0,0,-1,0,648)" stroke-width="2.25" stroke-linecap="square" stroke-linejoin="round" fill="none" stroke="#424242" d=""/>
</g>
<g clip-path="url(#clip_15)">
<path transform="matrix(1,0,0,-1,0,648)" stroke-width="2.25" stroke-linecap="square" stroke-linejoin="round" fill="none" stroke="#424242" d=""/>
</g>
<g clip-path="url(#clip_16)">
<path transform="matrix(1,0,0,-1,0,648)" stroke-width="2.25" stroke-linecap="square" stroke-linejoin="round" fill="none" stroke="#424242" d=""/>
</g>
<g clip-path="url(#clip_17)">
<path transform="matrix(1,0,0,-1,0,648)" stroke-width="2.25" stroke-linecap="square" stroke-linejoin="round" fill="none" stroke="#424242" d=""/>
</g>
<g clip-path="url(#clip_18)">
<path transform="matrix(1,0,0,-1,0,648)" stroke-width="2.25" stroke-linecap="square" stroke-linejoin="round" fill="none" stroke="#424242" d=""/>
</g>
<g clip-path="url(#clip_19)">
<path transform="matrix(1,0,0,-1,0,648)" stroke-width="2.25" stroke-linecap="square" stroke-linejoin="round" fill="none" stroke="#424242" d=""/>
</g>
<g clip-path="url(#clip_20)">
<path transform="matrix(1,0,0,-1,0,648)" stroke-width="2.25" stroke-linecap="square" stroke-linejoin="round" fill="none" stroke="#424242" d=""/>
</g>
<g clip-path="url(#clip_21)">
<path transform="matrix(1,0,0,-1,0,648)" stroke-width="2.25" stroke-linecap="square" stroke-linejoin="round" fill="none" stroke="#424242" d=""/>
</g>
<g clip-path="url(#clip_22)">
<path transform="matrix(1,0,0,-1,0,648)" stroke-width="1.5" stroke-linecap="butt" stroke-dasharray="5.55,2.4" stroke-linejoin="round" fill="none" stroke="#808080" stroke-opacity=".7" d="M144.19077 195.5 148.246 199.74916 152.30124 203.99832 156.35648 208.24748 160.41172 212.49663 164.46695 216.74579 168.52219 220.99495 172.57743 225.24411 176.63266 229.49327 180.6879 233.74242 184.74314 237.99158 188.79837 242.24074 192.8536 246.4899 196.90885 250.73906 200.96408 254.98822 205.01932 259.23738 209.07456 263.48655 213.12979 267.7357 217.18503 271.98484 221.24027 276.234 225.2955 280.48316 229.35074 284.73234 233.40599 288.98149 237.46123 293.23066 241.51647 297.4798 245.5717 301.72895 249.62694 305.97813 253.68218 310.22727 257.7374 314.47645 261.79264 318.7256 265.84788 322.97477 269.9031 327.2239 273.95835 331.47306 278.01359 335.72224 282.06883 339.97138 286.12406 344.22056 290.1793 348.4697 294.23454 352.71885 298.28977 356.96803 302.345 361.21717 306.40025 365.46635 310.45549 369.71549 314.5107 373.96467 318.56596 378.2138 322.6212 382.46296 326.67643 386.71214 330.73167 390.96128 334.7869 395.21046 338.84214 399.4596 342.89738 403.70875 346.9526 407.95793 351.00785 412.20707 355.06309 416.45625 359.11833 420.70539 363.17356 424.95457 367.2288 429.2037 371.28404 433.45286 375.33927 437.70204 379.3945 441.95118 383.44975 446.20036 387.50498 450.4495 391.5602 454.69865 395.61546 458.9478 399.6707 463.19697 403.72593 467.44615 407.78117 471.69529 411.8364 475.94447 415.89164 480.1936 419.94688 484.44276 424.00215 488.69194 428.05738 492.94108 432.1126 497.19026 436.16786 501.4394 440.22309 505.68855 444.27833 509.9377 448.33357 514.1869 452.3888 518.43606 456.44404 522.6852 460.49928 526.9343 464.5545 531.1835 468.60975 535.4327 472.66499 539.6818 476.7202 543.93099 480.77546 548.1801 484.8307 552.4293 488.88594 556.67849 492.94117 560.9276 496.9964 565.17678 501.05165 569.4259 505.10688 573.6751 509.1621 577.92428 513.21737 582.1734 517.2726 586.42257 521.3278 590.6717 525.38308 594.9209 529.4383 599.17007 533.4935 603.4192 537.54879 607.66836 541.604 611.9175 545.65927 616.1667"/>
</g>
<path transform="matrix(1,0,0,-1,0,648)" stroke-width=".8" stroke-linecap="square" stroke-miterlimit="10" stroke-linejoin="miter" fill="none" stroke="#000000" d="M104.49 195.5V637.2"/>
<path transform="matrix(1,0,0,-1,0,648)" stroke-width=".8" stroke-linecap="square" stroke-miterlimit="10" stroke-linejoin="miter" fill="none" stroke="#000000" d="M585.36 195.5V637.2"/>
<path transform="matrix(1,0,0,-1,0,648)" stroke-width=".8" stroke-linecap="square" stroke-miterlimit="10" stroke-linejoin="miter" fill="none" stroke="#000000" d="M104.49 195.5H585.36"/>
<path transform="matrix(1,0,0,-1,0,648)" stroke-width=".8" stroke-linecap="square" stroke-miterlimit="10" stroke-linejoin="miter" fill="none" stroke="#000000" d="M104.49 637.2H585.36"/>
<g clip-path="url(#clip_23)">
<path transform="matrix(1,0,0,-1,0,648)" d="M137.49964 195.5H150.88191V616.1667H137.49964Z" fill-opacity=".7"/>
</g>
<g clip-path="url(#clip_24)">
<path transform="matrix(1,0,0,-1,0,648)" d="M182.10724 195.5H195.48952V201.01779H182.10724Z" fill-opacity=".7"/>
</g>
<g clip-path="url(#clip_25)">
<path transform="matrix(1,0,0,-1,0,648)" d="M226.71485 195.5H240.09712V199.83306H226.71485Z" fill-opacity=".7"/>
</g>
<g clip-path="url(#clip_26)">
<path transform="matrix(1,0,0,-1,0,648)" d="M271.32246 195.5H284.70475V199.05187H271.32246Z" fill-opacity=".7"/>
</g>
<g clip-path="url(#clip_27)">
<path transform="matrix(1,0,0,-1,0,648)" d="M315.93006 195.5H329.31236V198.28014H315.93006Z" fill-opacity=".7"/>
</g>
<g clip-path="url(#clip_28)">
<path transform="matrix(1,0,0,-1,0,648)" d="M360.53767 195.5H373.91996V197.2488H360.53767Z" fill-opacity=".7"/>
</g>
<g clip-path="url(#clip_29)">
<path transform="matrix(1,0,0,-1,0,648)" d="M405.14527 195.5H418.52757V197.355H405.14527Z" fill-opacity=".7"/>
</g>
<g clip-path="url(#clip_30)">
<path transform="matrix(1,0,0,-1,0,648)" d="M449.75288 195.5H463.13517V197.04584H449.75288Z" fill-opacity=".7"/>
</g>
<g clip-path="url(#clip_31)">
<path transform="matrix(1,0,0,-1,0,648)" d="M494.36048 195.5H507.74278V197.44704H494.36048Z" fill-opacity=".7"/>
</g>
<g clip-path="url(#clip_32)">
<path transform="matrix(1,0,0,-1,0,648)" d="M538.9681 195.5H552.35037V294.36476H538.9681Z" fill-opacity=".7"/>
</g>
<path transform="matrix(1,0,0,-1,0,648)" d="M585.36 195.5H609.36"/>
<path transform="matrix(1,0,0,-1,0,648)" stroke-width=".8" stroke-linecap="butt" stroke-linejoin="round" fill="none" stroke="#000000" d="M585.36 195.5H609.36"/>
<use data-text="0" xlink:href="#font_11_48" transform="matrix(18,0,0,-18,612.86,459.33595)"/>
<path transform="matrix(1,0,0,-1,0,648)" d="M585.36 254.50119H609.36"/>
<path transform="matrix(1,0,0,-1,0,648)" stroke-width=".8" stroke-linecap="butt" stroke-linejoin="round" fill="none" stroke="#000000" d="M585.36 254.50119H609.36"/>
<use data-text="2" xlink:href="#font_11_50" transform="matrix(18,0,0,-18,612.86,400.33476)"/>
<use data-text="5" xlink:href="#font_11_53" transform="matrix(18,0,0,-18,624.308,400.33476)"/>
<use data-text="0" xlink:href="#font_11_48" transform="matrix(18,0,0,-18,635.756,400.33476)"/>
<use data-text="0" xlink:href="#font_11_48" transform="matrix(18,0,0,-18,647.204,400.33476)"/>
<use data-text="0" xlink:href="#font_11_48" transform="matrix(18,0,0,-18,658.652,400.33476)"/>
<path transform="matrix(1,0,0,-1,0,648)" d="M585.36 313.50239H609.36"/>
<path transform="matrix(1,0,0,-1,0,648)" stroke-width=".8" stroke-linecap="butt" stroke-linejoin="round" fill="none" stroke="#000000" d="M585.36 313.50239H609.36"/>
<use data-text="5" xlink:href="#font_11_53" transform="matrix(18,0,0,-18,612.86,341.33357)"/>
<use data-text="0" xlink:href="#font_11_48" transform="matrix(18,0,0,-18,624.308,341.33357)"/>
<use data-text="0" xlink:href="#font_11_48" transform="matrix(18,0,0,-18,635.756,341.33357)"/>
<use data-text="0" xlink:href="#font_11_48" transform="matrix(18,0,0,-18,647.204,341.33357)"/>
<use data-text="0" xlink:href="#font_11_48" transform="matrix(18,0,0,-18,658.652,341.33357)"/>
<path transform="matrix(1,0,0,-1,0,648)" d="M585.36 372.50358H609.36"/>
<path transform="matrix(1,0,0,-1,0,648)" stroke-width=".8" stroke-linecap="butt" stroke-linejoin="round" fill="none" stroke="#000000" d="M585.36 372.50358H609.36"/>
<use data-text="7" xlink:href="#font_11_55" transform="matrix(18,0,0,-18,612.86,282.33238)"/>
<use data-text="5" xlink:href="#font_11_53" transform="matrix(18,0,0,-18,624.308,282.33238)"/>
<use data-text="0" xlink:href="#font_11_48" transform="matrix(18,0,0,-18,635.756,282.33238)"/>
<use data-text="0" xlink:href="#font_11_48" transform="matrix(18,0,0,-18,647.204,282.33238)"/>
<use data-text="0" xlink:href="#font_11_48" transform="matrix(18,0,0,-18,658.652,282.33238)"/>
<path transform="matrix(1,0,0,-1,0,648)" d="M585.36 431.50477H609.36"/>
<path transform="matrix(1,0,0,-1,0,648)" stroke-width=".8" stroke-linecap="butt" stroke-linejoin="round" fill="none" stroke="#000000" d="M585.36 431.50477H609.36"/>
<use data-text="1" xlink:href="#font_11_49" transform="matrix(18,0,0,-18,612.86,223.33118)"/>
<use data-text="0" xlink:href="#font_11_48" transform="matrix(18,0,0,-18,624.308,223.33118)"/>
<use data-text="0" xlink:href="#font_11_48" transform="matrix(18,0,0,-18,635.756,223.33118)"/>
<use data-text="0" xlink:href="#font_11_48" transform="matrix(18,0,0,-18,647.204,223.33118)"/>
<use data-text="0" xlink:href="#font_11_48" transform="matrix(18,0,0,-18,658.652,223.33118)"/>
<use data-text="0" xlink:href="#font_11_48" transform="matrix(18,0,0,-18,670.1,223.33118)"/>
<path transform="matrix(1,0,0,-1,0,648)" d="M585.36 490.50596H609.36"/>
<path transform="matrix(1,0,0,-1,0,648)" stroke-width=".8" stroke-linecap="butt" stroke-linejoin="round" fill="none" stroke="#000000" d="M585.36 490.50596H609.36"/>
<use data-text="1" xlink:href="#font_11_49" transform="matrix(18,0,0,-18,612.86,164.32999)"/>
<use data-text="2" xlink:href="#font_11_50" transform="matrix(18,0,0,-18,624.308,164.32999)"/>
<use data-text="5" xlink:href="#font_11_53" transform="matrix(18,0,0,-18,635.756,164.32999)"/>
<use data-text="0" xlink:href="#font_11_48" transform="matrix(18,0,0,-18,647.204,164.32999)"/>
<use data-text="0" xlink:href="#font_11_48" transform="matrix(18,0,0,-18,658.652,164.32999)"/>
<use data-text="0" xlink:href="#font_11_48" transform="matrix(18,0,0,-18,670.1,164.32999)"/>
<path transform="matrix(1,0,0,-1,0,648)" d="M585.36 549.50717H609.36"/>
<path transform="matrix(1,0,0,-1,0,648)" stroke-width=".8" stroke-linecap="butt" stroke-linejoin="round" fill="none" stroke="#000000" d="M585.36 549.50717H609.36"/>
<use data-text="1" xlink:href="#font_11_49" transform="matrix(18,0,0,-18,612.86,105.3288)"/>
<use data-text="5" xlink:href="#font_11_53" transform="matrix(18,0,0,-18,624.308,105.3288)"/>
<use data-text="0" xlink:href="#font_11_48" transform="matrix(18,0,0,-18,635.756,105.3288)"/>
<use data-text="0" xlink:href="#font_11_48" transform="matrix(18,0,0,-18,647.204,105.3288)"/>
<use data-text="0" xlink:href="#font_11_48" transform="matrix(18,0,0,-18,658.652,105.3288)"/>
<use data-text="0" xlink:href="#font_11_48" transform="matrix(18,0,0,-18,670.1,105.3288)"/>
<path transform="matrix(1,0,0,-1,0,648)" d="M585.36 608.5083H609.36"/>
<path transform="matrix(1,0,0,-1,0,648)" stroke-width=".8" stroke-linecap="butt" stroke-linejoin="round" fill="none" stroke="#000000" d="M585.36 608.5083H609.36"/>
<use data-text="1" xlink:href="#font_11_49" transform="matrix(18,0,0,-18,612.86,46.327638)"/>
<use data-text="7" xlink:href="#font_11_55" transform="matrix(18,0,0,-18,624.308,46.327638)"/>
<use data-text="5" xlink:href="#font_11_53" transform="matrix(18,0,0,-18,635.756,46.327638)"/>
<use data-text="0" xlink:href="#font_11_48" transform="matrix(18,0,0,-18,647.204,46.327638)"/>
<use data-text="0" xlink:href="#font_11_48" transform="matrix(18,0,0,-18,658.652,46.327638)"/>
<use data-text="0" xlink:href="#font_11_48" transform="matrix(18,0,0,-18,670.1,46.327638)"/>
<use data-text="N" xlink:href="#font_11_78" transform="matrix(0,-24,-24,-0,703.8131,369.22813)"/>
<use data-text="u" xlink:href="#font_11_117" transform="matrix(0,-24,-24,-0,703.8131,351.27613)"/>
<use data-text="m" xlink:href="#font_11_109" transform="matrix(0,-24,-24,-0,703.8131,336.06013)"/>
<use data-text="b" xlink:href="#font_11_98" transform="matrix(0,-24,-24,-0,703.8131,312.6841)"/>
<use data-text="e" xlink:href="#font_11_101" transform="matrix(0,-24,-24,-0,703.8131,297.44413)"/>
<use data-text="r" xlink:href="#font_11_114" transform="matrix(0,-24,-24,-0,703.8131,282.6841)"/>
<use data-text=" " xlink:href="#font_11_32" transform="matrix(0,-24,-24,-0,703.8131,272.82014)"/>
<use data-text="o" xlink:href="#font_11_111" transform="matrix(0,-24,-24,-0,703.8131,265.1881)"/>
<use data-text="f" xlink:href="#font_11_102" transform="matrix(0,-24,-24,-0,703.8131,250.50012)"/>
<use data-text=" " xlink:href="#font_11_32" transform="matrix(0,-24,-24,-0,703.8131,242.05213)"/>
<use data-text="O" xlink:href="#font_11_79" transform="matrix(0,-24,-24,-0,703.8131,234.42012)"/>
<use data-text="c" xlink:href="#font_11_99" transform="matrix(0,-24,-24,-0,703.8131,215.53212)"/>
<use data-text="c" xlink:href="#font_11_99" transform="matrix(0,-24,-24,-0,703.8131,202.33213)"/>
<use data-text="u" xlink:href="#font_11_117" transform="matrix(0,-24,-24,-0,703.8131,189.13213)"/>
<use data-text="r" xlink:href="#font_11_114" transform="matrix(0,-24,-24,-0,703.8131,173.91613)"/>
<use data-text="e" xlink:href="#font_11_101" transform="matrix(0,-24,-24,-0,703.8131,164.56775)"/>
<use data-text="n" xlink:href="#font_11_110" transform="matrix(0,-24,-24,-0,703.8131,149.80776)"/>
<use data-text="c" xlink:href="#font_11_99" transform="matrix(0,-24,-24,-0,703.8131,134.59175)"/>
<use data-text="e" xlink:href="#font_11_101" transform="matrix(0,-24,-24,-0,703.8131,121.391757)"/>
<use data-text="s" xlink:href="#font_11_115" transform="matrix(0,-24,-24,-0,703.8131,106.631748)"/>
<g clip-path="url(#clip_33)">
<path transform="matrix(1,0,0,-1,0,648)" stroke-width="2.25" stroke-linecap="square" stroke-linejoin="round" fill="none" stroke="#424242" d=""/>
</g>
<g clip-path="url(#clip_34)">
<path transform="matrix(1,0,0,-1,0,648)" stroke-width="2.25" stroke-linecap="square" stroke-linejoin="round" fill="none" stroke="#424242" d=""/>
</g>
<g clip-path="url(#clip_35)">
<path transform="matrix(1,0,0,-1,0,648)" stroke-width="2.25" stroke-linecap="square" stroke-linejoin="round" fill="none" stroke="#424242" d=""/>
</g>
<g clip-path="url(#clip_36)">
<path transform="matrix(1,0,0,-1,0,648)" stroke-width="2.25" stroke-linecap="square" stroke-linejoin="round" fill="none" stroke="#424242" d=""/>
</g>
<g clip-path="url(#clip_37)">
<path transform="matrix(1,0,0,-1,0,648)" stroke-width="2.25" stroke-linecap="square" stroke-linejoin="round" fill="none" stroke="#424242" d=""/>
</g>
<g clip-path="url(#clip_38)">
<path transform="matrix(1,0,0,-1,0,648)" stroke-width="2.25" stroke-linecap="square" stroke-linejoin="round" fill="none" stroke="#424242" d=""/>
</g>
<g clip-path="url(#clip_39)">
<path transform="matrix(1,0,0,-1,0,648)" stroke-width="2.25" stroke-linecap="square" stroke-linejoin="round" fill="none" stroke="#424242" d=""/>
</g>
<g clip-path="url(#clip_40)">
<path transform="matrix(1,0,0,-1,0,648)" stroke-width="2.25" stroke-linecap="square" stroke-linejoin="round" fill="none" stroke="#424242" d=""/>
</g>
<g clip-path="url(#clip_41)">
<path transform="matrix(1,0,0,-1,0,648)" stroke-width="2.25" stroke-linecap="square" stroke-linejoin="round" fill="none" stroke="#424242" d=""/>
</g>
<g clip-path="url(#clip_42)">
<path transform="matrix(1,0,0,-1,0,648)" stroke-width="2.25" stroke-linecap="square" stroke-linejoin="round" fill="none" stroke="#424242" d=""/>
</g>
<g clip-path="url(#clip_43)">
<path transform="matrix(1,0,0,-1,0,648)" stroke-width="1.5" stroke-linecap="butt" stroke-dasharray="5.55,2.4" stroke-linejoin="round" fill="none" stroke="#000000" stroke-opacity=".7" d="M144.19077 195.5 148.246 195.50003 152.30124 195.50005 156.35648 195.50008 160.41172 195.50009 164.46695 195.50012 168.52219 195.50014 172.57743 195.50017 176.63266 195.5002 180.6879 195.50022 184.74314 195.50025 188.79837 195.50026 192.8536 195.50029 196.90885 195.5003 200.96408 195.50034 205.01932 195.50035 209.07456 195.50038 213.12979 195.50041 217.18503 195.50043 221.24027 195.50046 225.2955 195.50048 229.35074 195.5005 233.40599 195.50052 237.46123 195.50055 241.51647 195.50057 245.5717 195.5006 249.62694 195.50063 253.68218 195.50064 257.7374 195.50067 261.79264 195.50069 265.84788 195.50072 269.9031 195.50074 273.95835 195.50077 278.01359 195.5008 282.06883 195.50081 286.12406 195.50084 290.1793 195.50086 294.23454 195.50089 298.28977 195.5009 302.345 195.50093 306.40025 195.50096 310.45549 195.50098 314.5107 195.501 318.56596 195.50102 322.6212 195.50106 326.67643 195.50107 330.73167 195.5011 334.7869 195.50112 338.84214 195.50115 342.89738 195.50118 346.9526 195.50119 351.00785 195.50122 355.06309 195.50124 359.11833 195.50127 363.17356 195.50128 367.2288 195.50131 371.28404 195.50133 375.33927 195.50136 379.3945 195.50139 383.44975 195.5014 387.50498 195.50144 391.5602 195.50145 395.61546 195.50148 399.6707 195.5015 403.72593 195.50153 407.78117 195.50156 411.8364 195.50157 415.89164 195.5016 419.94688 195.50162 424.00215 195.50165 428.05738 195.50167 432.1126 195.5017 436.16786 195.50171 440.22309 195.50174 444.27833 195.50177 448.33357 195.50179 452.3888 195.50182 456.44404 195.50183 460.49928 195.50186 464.5545 195.50188 468.60975 195.5019 472.66499 195.50194 476.7202 195.50196 480.77546 195.50199 484.8307 195.502 488.88594 195.50203 492.94117 195.50205 496.9964 195.50208 501.05165 195.50209 505.10688 195.50212 509.1621 195.50215 513.21737 195.50217 517.2726 195.5022 521.3278 195.50222 525.38308 195.50225 529.4383 195.50226 533.4935 195.50229 537.54879 195.50232 541.604 195.50234 545.65927 195.50237"/>
</g>
<path transform="matrix(1,0,0,-1,0,648)" stroke-width=".8" stroke-linecap="square" stroke-miterlimit="10" stroke-linejoin="miter" fill="none" stroke="#000000" d="M104.49 195.5V637.2"/>
<path transform="matrix(1,0,0,-1,0,648)" stroke-width=".8" stroke-linecap="square" stroke-miterlimit="10" stroke-linejoin="miter" fill="none" stroke="#000000" d="M585.36 195.5V637.2"/>
<path transform="matrix(1,0,0,-1,0,648)" stroke-width=".8" stroke-linecap="square" stroke-miterlimit="10" stroke-linejoin="miter" fill="none" stroke="#000000" d="M104.49 195.5H585.36"/>
<path transform="matrix(1,0,0,-1,0,648)" stroke-width=".8" stroke-linecap="square" stroke-miterlimit="10" stroke-linejoin="miter" fill="none" stroke="#000000" d="M104.49 637.2H585.36"/>
</svg>
