<svg xmlns="http://www.w3.org/2000/svg" xmlns:xlink="http://www.w3.org/1999/xlink" xmlns:inkscape="http://www.inkscape.org/namespaces/inkscape" version="1.1" width="685.2431" height="481.64967" viewBox="0 0 685.2431 481.64967">
<defs>
<g id="font_1_73">
<path transform="matrix(.001,0,0,.001,0,0)" d="M98 729H197V0H98V729"/>
</g>
<g id="font_1_109">
<path transform="matrix(.001,0,0,.001,0,0)" d="M520 442C542 482 569 511 600 531 631 550 668 560 711 560 767 560 811 540 842 500 873 460 889 403 889 330V0H799V327C799 379 789 418 771 444 752 469 724 482 686 482 639 482 602 466 575 435 548 404 535 362 535 309V0H445V327C445 379 435 418 417 444 398 469 369 482 331 482 285 482 248 466 221 435 194 404 181 362 181 309V0H91V547H181V462C201 495 226 520 255 536 283 552 317 560 357 560 397 560 430 550 458 530 486 510 506 480 520 442"/>
</g>
<g id="font_1_112">
<path transform="matrix(.001,0,0,.001,0,0)" d="M181 82V-207H91V547H181V464C199 496 223 520 252 536 281 552 316 560 356 560 422 560 476 533 518 481 559 428 580 359 580 273 580 187 559 117 518 65 476 13 422-13 356-13 316-13 281-5 252 10 223 25 199 49 181 82M487 273C487 339 473 390 446 428 418 466 381 485 334 485 286 485 249 466 222 428 194 390 181 339 181 273 181 207 194 155 222 117 249 79 286 61 334 61 381 61 418 79 446 117 473 155 487 207 487 273"/>
</g>
<g id="font_1_114">
<path transform="matrix(.001,0,0,.001,0,0)" d="M411 463C401 469 390 473 378 476 366 478 353 480 339 480 288 480 249 463 222 430 194 397 181 350 181 288V0H91V547H181V462C199 495 224 520 254 536 284 552 321 560 365 560 371 560 378 559 386 559 393 558 401 557 411 555V463"/>
</g>
<g id="font_1_111">
<path transform="matrix(.001,0,0,.001,0,0)" d="M306 484C258 484 220 465 192 427 164 389 150 338 150 273 150 207 163 156 191 118 219 80 257 62 306 62 354 62 392 80 420 118 448 156 462 207 462 273 462 337 448 389 420 427 392 465 354 484 306 484M306 560C384 560 445 534 490 484 534 433 557 363 557 273 557 183 534 113 490 63 445 12 384-13 306-13 227-13 165 12 121 63 77 113 55 183 55 273 55 363 77 433 121 484 165 534 227 560 306 560"/>
</g>
<g id="font_1_118">
<path transform="matrix(.001,0,0,.001,0,0)" d="M30 547H125L296 88 467 547H562L357 0H235L30 547"/>
</g>
<g id="font_1_101">
<path transform="matrix(.001,0,0,.001,0,0)" d="M562 296V252H149C153 190 171 142 205 110 238 78 284 62 344 62 378 62 412 66 444 74 476 82 509 95 541 113V28C509 14 476 3 442-3 408-9 373-13 339-13 251-13 182 12 131 62 80 112 55 181 55 268 55 357 79 428 127 481 175 533 241 560 323 560 397 560 455 536 498 489 540 441 562 377 562 296M472 322C471 371 457 410 431 440 404 469 368 484 324 484 274 484 234 469 204 441 174 413 156 373 152 322H472"/>
</g>
<g id="font_1_110">
<path transform="matrix(.001,0,0,.001,0,0)" d="M549 330V0H459V327C459 379 448 417 428 443 408 469 378 482 338 482 289 482 251 466 223 435 195 404 181 362 181 309V0H91V547H181V462C202 494 227 519 257 535 286 551 320 560 358 560 420 560 468 540 500 501 532 462 549 405 549 330"/>
</g>
<g id="font_1_116">
<path transform="matrix(.001,0,0,.001,0,0)" d="M183 702V547H368V477H183V180C183 135 189 106 201 94 213 81 238 75 276 75H368V0H276C206 0 158 13 132 39 106 65 93 112 93 180V477H27V547H93V702H183"/>
</g>
<clipPath id="clip_2">
<path transform="matrix(1,0,0,-1,0,481.64967)" d="M75.40312 32.496877H678.04318V395.34989H75.40312Z"/>
</clipPath>
<g id="font_1_48">
<path transform="matrix(.001,0,0,.001,0,0)" d="M318 664C267 664 229 639 203 589 177 539 165 464 165 364 165 264 177 189 203 139 229 89 267 64 318 64 369 64 407 89 433 139 458 189 471 264 471 364 471 464 458 539 433 589 407 639 369 664 318 664M318 742C399 742 461 709 505 645 548 580 570 486 570 364 570 241 548 147 505 83 461 19 399-13 318-13 236-13 173 19 130 83 87 147 66 241 66 364 66 486 87 580 130 645 173 709 236 742 318 742"/>
</g>
<g id="font_1_46">
<path transform="matrix(.001,0,0,.001,0,0)" d="M107 124H210V0H107V124"/>
</g>
<g id="font_1_53">
<path transform="matrix(.001,0,0,.001,0,0)" d="M108 729H495V646H198V467C212 472 227 476 241 478 255 480 270 482 284 482 365 482 429 459 477 415 525 370 549 310 549 234 549 155 524 94 475 51 426 8 357-13 269-13 238-13 207-10 175-6 143-1 111 6 77 17V116C106 100 136 88 168 80 199 72 232 69 267 69 323 69 368 83 401 113 433 143 450 183 450 234 450 284 433 324 401 354 368 384 323 399 267 399 241 399 214 396 188 390 162 384 135 375 108 363V729"/>
</g>
<clipPath id="clip_3">
<path transform="matrix(1,0,0,-1,0,481.64967)" d="M75.40312 32.496877H678.04318V395.34989H75.40312Z"/>
</clipPath>
<g id="font_1_54">
<path transform="matrix(.001,0,0,.001,0,0)" d="M330 404C286 404 251 388 225 358 199 328 186 286 186 234 186 181 199 139 225 109 251 79 286 64 330 64 374 64 409 79 435 109 461 139 474 181 474 234 474 286 461 328 435 358 409 388 374 404 330 404M526 713V623C501 635 476 644 451 650 425 656 400 659 376 659 310 659 260 637 226 593 192 549 172 482 168 394 187 422 211 444 240 459 269 474 301 482 336 482 409 482 467 459 509 415 551 371 573 310 573 234 573 159 550 99 506 54 462 9 403-13 330-13 246-13 181 19 137 83 92 147 70 241 70 364 70 479 97 571 152 639 206 707 280 742 372 742 396 742 421 739 447 735 472 730 498 723 526 713"/>
</g>
<clipPath id="clip_4">
<path transform="matrix(1,0,0,-1,0,481.64967)" d="M75.40312 32.496877H678.04318V395.34989H75.40312Z"/>
</clipPath>
<clipPath id="clip_5">
<path transform="matrix(1,0,0,-1,0,481.64967)" d="M75.40312 32.496877H678.04318V395.34989H75.40312Z"/>
</clipPath>
<g id="font_1_55">
<path transform="matrix(.001,0,0,.001,0,0)" d="M82 729H551V687L286 0H183L432 646H82V729"/>
</g>
<clipPath id="clip_6">
<path transform="matrix(1,0,0,-1,0,481.64967)" d="M75.40312 32.496877H678.04318V395.34989H75.40312Z"/>
</clipPath>
<clipPath id="clip_7">
<path transform="matrix(1,0,0,-1,0,481.64967)" d="M75.40312 32.496877H678.04318V395.34989H75.40312Z"/>
</clipPath>
<g id="font_1_56">
<path transform="matrix(.001,0,0,.001,0,0)" d="M318 346C271 346 234 333 207 308 180 283 167 249 167 205 167 161 180 126 207 101 234 76 271 64 318 64 364 64 401 76 428 102 455 127 469 161 469 205 469 249 455 283 429 308 402 333 365 346 318 346M219 388C177 398 144 418 120 447 96 476 85 511 85 553 85 611 105 657 147 691 188 725 245 742 318 742 390 742 447 725 489 691 530 657 551 611 551 553 551 511 539 476 515 447 491 418 459 398 417 388 464 377 501 355 528 323 554 291 568 251 568 205 568 134 546 80 503 43 459 5 398-13 318-13 237-13 175 5 132 43 89 80 68 134 68 205 68 251 81 291 108 323 134 355 171 377 219 388M183 544C183 506 194 476 218 455 242 434 275 424 318 424 360 424 393 434 417 455 441 476 453 506 453 544 453 582 441 611 417 632 393 653 360 664 318 664 275 664 242 653 218 632 194 611 183 582 183 544"/>
</g>
<clipPath id="clip_8">
<path transform="matrix(1,0,0,-1,0,481.64967)" d="M75.40312 32.496877H678.04318V395.34989H75.40312Z"/>
</clipPath>
<clipPath id="clip_9">
<path transform="matrix(1,0,0,-1,0,481.64967)" d="M75.40312 32.496877H678.04318V395.34989H75.40312Z"/>
</clipPath>
<g id="font_1_57">
<path transform="matrix(.001,0,0,.001,0,0)" d="M110 15V105C134 93 159 84 185 78 210 72 235 69 260 69 324 69 374 90 408 134 442 178 462 244 468 334 448 306 424 284 396 269 367 254 335 247 300 247 226 247 168 269 126 313 84 357 63 417 63 494 63 568 85 628 129 674 173 719 232 742 306 742 390 742 455 709 499 645 543 580 566 486 566 364 566 248 538 157 484 89 429 21 356-13 264-13 239-13 214-10 189-6 163-2 137 5 110 15M306 324C350 324 385 339 411 369 437 399 450 441 450 494 450 546 437 588 411 618 385 648 350 664 306 664 262 664 227 648 201 618 175 588 162 546 162 494 162 441 175 399 201 369 227 339 262 324 306 324"/>
</g>
<clipPath id="clip_10">
<path transform="matrix(1,0,0,-1,0,481.64967)" d="M75.40312 32.496877H678.04318V395.34989H75.40312Z"/>
</clipPath>
<clipPath id="clip_11">
<path transform="matrix(1,0,0,-1,0,481.64967)" d="M75.40312 32.496877H678.04318V395.34989H75.40312Z"/>
</clipPath>
<g id="font_1_49">
<path transform="matrix(.001,0,0,.001,0,0)" d="M124 83H285V639L110 604V694L284 729H383V83H544V0H124V83"/>
</g>
<g id="font_1_80">
<path transform="matrix(.001,0,0,.001,0,0)" d="M197 648V374H321C367 374 402 385 427 409 452 433 465 467 465 511 465 555 452 588 427 612 402 636 367 648 321 648H197M98 729H321C402 729 464 710 506 673 548 636 569 582 569 511 569 439 548 384 506 348 464 311 402 293 321 293H197V0H98V729"/>
</g>
<g id="font_1_102">
<path transform="matrix(.001,0,0,.001,0,0)" d="M371 760V685H285C253 685 230 678 218 665 205 652 199 629 199 595V547H347V477H199V0H109V477H23V547H109V585C109 645 123 690 151 718 179 746 224 760 286 760H371"/>
</g>
<g id="font_1_97">
<path transform="matrix(.001,0,0,.001,0,0)" d="M343 275C270 275 220 266 192 250 164 233 150 205 150 165 150 133 160 107 181 89 202 70 231 61 267 61 317 61 357 78 387 114 417 149 432 196 432 255V275H343M522 312V0H432V83C411 49 385 25 355 10 325-5 287-13 243-13 187-13 142 2 109 33 76 64 60 106 60 159 60 220 80 266 122 298 163 329 224 345 306 345H432V354C432 395 418 427 391 450 364 472 326 484 277 484 245 484 215 480 185 472 155 464 127 453 100 439V522C132 534 164 544 195 550 226 556 256 560 286 560 365 560 424 539 463 498 502 457 522 395 522 312"/>
</g>
<g id="font_1_99">
<path transform="matrix(.001,0,0,.001,0,0)" d="M488 526V442C462 456 437 466 411 473 385 480 360 484 334 484 276 484 230 465 198 428 166 391 150 339 150 273 150 206 166 154 198 117 230 80 276 62 334 62 360 62 385 65 411 72 437 79 462 90 488 104V21C462 9 436 0 410-5 383-10 354-13 324-13 242-13 176 12 128 64 79 115 55 185 55 273 55 362 79 432 128 483 177 534 244 560 330 560 358 560 385 557 411 551 437 545 463 537 488 526"/>
</g>
<clipPath id="clip_12">
<path transform="matrix(1,0,0,-1,0,481.64967)" d="M75.40312 32.496877H678.04318V395.34989H75.40312Z"/>
</clipPath>
<clipPath id="clip_13">
<path transform="matrix(1,0,0,-1,128.4854,392.70899)" d="M-10.75-10.75H10.75V10.75H-10.75Z"/>
</clipPath>
<clipPath id="clip_14">
<path transform="matrix(1,0,0,-1,197.18012,263.69459)" d="M-10.75-10.75H10.75V10.75H-10.75Z"/>
</clipPath>
<clipPath id="clip_15">
<path transform="matrix(1,0,0,-1,253.38489,246.76145)" d="M-10.75-10.75H10.75V10.75H-10.75Z"/>
</clipPath>
<clipPath id="clip_16">
<path transform="matrix(1,0,0,-1,347.0595,227.40929)" d="M-10.75-10.75H10.75V10.75H-10.75Z"/>
</clipPath>
<clipPath id="clip_17">
<path transform="matrix(1,0,0,-1,409.50926,219.34589)" d="M-10.75-10.75H10.75V10.75H-10.75Z"/>
</clipPath>
<clipPath id="clip_18">
<path transform="matrix(1,0,0,-1,471.95899,196.76837)" d="M-10.75-10.75H10.75V10.75H-10.75Z"/>
</clipPath>
<clipPath id="clip_19">
<path transform="matrix(1,0,0,-1,540.6537,161.28942)" d="M-10.75-10.75H10.75V10.75H-10.75Z"/>
</clipPath>
<clipPath id="clip_20">
<path transform="matrix(1,0,0,-1,615.5934,153.22602)" d="M-10.75-10.75H10.75V10.75H-10.75Z"/>
</clipPath>
<g id="font_1_82">
<path transform="matrix(.001,0,0,.001,0,0)" d="M444 342C465 334 486 319 506 296 526 272 546 240 566 199L666 0H560L467 187C443 235 419 268 397 284 374 300 343 308 304 308H197V0H98V729H321C404 729 466 711 507 677 548 642 569 589 569 519 569 473 558 434 537 404 515 374 484 353 444 342M197 648V389H321C368 389 404 400 428 422 452 444 465 476 465 519 465 561 452 593 428 615 404 637 368 648 321 648H197"/>
</g>
<g id="font_1_100">
<path transform="matrix(.001,0,0,.001,0,0)" d="M454 464V760H544V0H454V82C435 49 411 25 382 10 353-5 319-13 279-13 213-13 159 13 117 65 75 117 55 187 55 273 55 359 75 428 117 481 159 533 213 560 279 560 319 560 353 552 382 536 411 520 435 496 454 464M148 273C148 207 161 155 188 117 215 79 253 61 301 61 348 61 385 79 413 117 440 155 454 207 454 273 454 339 440 390 413 428 385 466 348 485 301 485 253 485 215 466 188 428 161 390 148 339 148 273"/>
</g>
<g id="font_1_108">
<path transform="matrix(.001,0,0,.001,0,0)" d="M94 760H184V0H94V760"/>
</g>
<g id="font_1_121">
<path transform="matrix(.001,0,0,.001,0,0)" d="M322-50C296-114 271-157 247-177 223-197 191-207 151-207H79V-132H132C156-132 175-126 189-114 203-102 218-75 235-31L251 9 30 547H125L296 119 467 547H562L322-50"/>
</g>
<g id="font_1_32">
</g>
<g id="font_1_105">
<path transform="matrix(.001,0,0,.001,0,0)" d="M94 547H184V0H94V547M94 760H184V646H94V760"/>
</g>
<g id="font_1_122">
<path transform="matrix(.001,0,0,.001,0,0)" d="M55 547H482V465L144 72H482V0H43V82L381 475H55V547"/>
</g>
<g id="font_1_45">
<path transform="matrix(.001,0,0,.001,0,0)" d="M49 314H312V234H49V314"/>
</g>
<g id="font_1_84">
<path transform="matrix(.001,0,0,.001,0,0)" d="M-2 729H614V646H355V0H256V646H-2V729"/>
</g>
<g id="font_1_40">
<path transform="matrix(.001,0,0,.001,0,0)" d="M310 759C266 683 234 609 213 536 191 463 181 389 181 314 181 238 191 164 213 91 234 17 266-56 310-131H232C183-54 146 20 122 94 98 168 86 241 86 314 86 386 98 459 122 533 146 607 182 682 232 759H310"/>
</g>
<g id="font_1_67">
<path transform="matrix(.001,0,0,.001,0,0)" d="M644 673V569C610 599 575 622 537 638 499 653 460 661 418 661 334 661 270 635 226 584 182 533 160 460 160 364 160 268 182 194 226 143 270 92 334 67 418 67 460 67 499 74 537 90 575 105 610 128 644 159V56C609 32 572 15 534 4 496-7 455-13 412-13 302-13 215 20 151 87 87 154 56 246 56 364 56 481 87 573 151 641 215 708 302 742 412 742 456 742 497 736 535 725 573 713 610 696 644 673"/>
</g>
<g id="font_1_117">
<path transform="matrix(.001,0,0,.001,0,0)" d="M85 216V547H175V219C175 167 185 129 205 103 225 77 255 64 296 64 344 64 383 79 411 110 439 141 453 183 453 237V547H543V0H453V84C431 50 405 26 377 10 348-5 315-13 277-13 214-13 166 6 134 45 101 83 85 140 85 216M311 560V560"/>
</g>
<g id="font_1_115">
<path transform="matrix(.001,0,0,.001,0,0)" d="M443 531V446C417 458 391 468 364 475 336 481 308 485 279 485 234 485 200 478 178 464 156 450 145 430 145 403 145 382 153 366 169 354 185 342 217 330 265 320L296 313C360 299 405 279 432 255 458 230 472 195 472 151 472 100 452 60 412 31 372 1 316-13 246-13 216-13 186-10 154-5 122 0 89 8 54 20V113C87 95 120 82 152 74 184 65 216 61 248 61 290 61 323 68 346 82 368 96 380 117 380 144 380 168 371 187 355 200 339 213 303 226 247 238L216 245C160 257 119 275 95 299 70 323 58 356 58 399 58 450 76 490 112 518 148 546 200 560 268 560 301 560 332 557 362 552 391 547 418 540 443 531"/>
</g>
<g id="font_1_44">
<path transform="matrix(.001,0,0,.001,0,0)" d="M117 124H220V40L140-115H77L117 40V124"/>
</g>
<g id="font_1_77">
<path transform="matrix(.001,0,0,.001,0,0)" d="M98 729H245L431 233 618 729H765V0H669V640L481 140H382L194 640V0H98V729"/>
</g>
<g id="font_1_41">
<path transform="matrix(.001,0,0,.001,0,0)" d="M80 759H158C206 682 243 607 267 533 291 459 304 386 304 314 304 241 291 168 267 94 243 20 206-54 158-131H80C123-56 155 17 177 91 198 164 209 238 209 314 209 389 198 463 177 536 155 609 123 683 80 759"/>
</g>
<g id="font_1_83">
<path transform="matrix(.001,0,0,.001,0,0)" d="M535 705V609C497 627 462 640 429 649 395 657 363 662 333 662 279 662 237 651 208 631 179 610 165 580 165 542 165 510 174 485 194 469 213 452 250 439 304 429L364 417C437 403 491 378 526 343 561 307 579 260 579 201 579 130 555 77 508 41 460 5 391-13 300-13 265-13 228-9 189-2 150 5 110 16 69 32V134C109 111 148 94 186 83 224 71 262 66 300 66 356 66 399 77 430 99 460 121 476 152 476 194 476 230 465 258 443 278 421 298 385 313 335 323L275 335C201 349 148 372 115 404 82 435 66 478 66 534 66 598 88 649 134 686 179 723 242 742 322 742 356 742 390 739 426 733 461 727 497 717 535 705"/>
</g>
<g id="font_1_79">
<path transform="matrix(.001,0,0,.001,0,0)" d="M394 662C322 662 265 635 223 582 181 528 160 456 160 364 160 272 181 199 223 146 265 92 322 66 394 66 465 66 522 92 564 146 606 199 627 272 627 364 627 456 606 528 564 582 522 635 465 662 394 662M394 742C496 742 577 707 639 639 700 571 731 479 731 364 731 248 700 157 639 89 577 21 496-13 394-13 291-13 209 21 148 89 86 157 56 248 56 364 56 479 86 571 148 639 209 707 291 742 394 742"/>
</g>
<g id="font_1_107">
<path transform="matrix(.001,0,0,.001,0,0)" d="M91 760H181V311L449 547H564L274 291 576 0H459L181 267V0H91V760"/>
</g>
<g id="font_1_103">
<path transform="matrix(.001,0,0,.001,0,0)" d="M454 280C454 344 440 395 414 431 387 467 349 485 301 485 253 485 215 467 188 431 161 395 148 344 148 280 148 215 161 165 188 129 215 93 253 75 301 75 349 75 387 93 414 129 440 165 454 215 454 280M544 68C544-24 523-93 482-139 440-184 377-207 292-207 260-207 231-204 203-200 175-195 147-188 121-178V-91C147-105 173-115 199-122 225-129 251-133 278-133 336-133 380-117 410-87 439-56 454-10 454 52V96C435 64 411 40 382 24 353 8 319 0 279 0 211 0 157 25 116 76 75 127 55 195 55 280 55 364 75 432 116 483 157 534 211 560 279 560 319 560 353 552 382 536 411 520 435 496 454 464V547H544V68"/>
</g>
<g id="font_1_76">
<path transform="matrix(.001,0,0,.001,0,0)" d="M98 729H197V83H552V0H98V729"/>
</g>
<g id="font_1_66">
<path transform="matrix(.001,0,0,.001,0,0)" d="M197 348V81H355C408 81 447 92 473 114 498 136 511 169 511 215 511 260 498 293 473 315 447 337 408 348 355 348H197M197 648V428H343C391 428 426 437 450 455 474 473 486 500 486 538 486 574 474 602 450 620 426 638 391 648 343 648H197M98 729H350C425 729 483 713 524 682 564 650 585 606 585 549 585 504 574 468 553 442 532 416 502 399 462 393 510 382 548 360 575 327 601 294 615 253 615 204 615 138 592 88 548 53 504 17 441 0 360 0H98V729"/>
</g>
<g id="font_1_70">
<path transform="matrix(.001,0,0,.001,0,0)" d="M98 729H517V646H197V431H486V348H197V0H98V729"/>
</g>
<g id="font_1_98">
<path transform="matrix(.001,0,0,.001,0,0)" d="M487 273C487 339 473 390 446 428 418 466 381 485 334 485 286 485 249 466 222 428 194 390 181 339 181 273 181 207 194 155 222 117 249 79 286 61 334 61 381 61 418 79 446 117 473 155 487 207 487 273M181 464C199 496 223 520 252 536 281 552 316 560 356 560 422 560 476 533 518 481 559 428 580 359 580 273 580 187 559 117 518 65 476 13 422-13 356-13 316-13 281-5 252 10 223 25 199 49 181 82V0H91V760H181V464"/>
</g>
<g id="font_1_106">
<path transform="matrix(.001,0,0,.001,0,0)" d="M94 547H184V-9C184-78 170-128 144-160 117-191 74-207 16-207H-17V-131H6C40-131 63-123 75-107 87-91 94-58 94-9V547M94 760H184V646H94V760"/>
</g>
</defs>
<g>
<path transform="matrix(1,0,0,-1,0,481.64967)" d="M0 0H685.2431V481.64967H0Z" fill="#ffffff"/>
<path transform="matrix(1,0,0,-1,0,481.64967)" d="M75.40312 32.496877H678.04318V395.34989H75.40312Z" fill="#ffffff"/>
<use data-text="I" xlink:href="#font_1_73" transform="matrix(22,0,0,-22,302.73094,469.87153)" fill="#262626"/>
<use data-text="m" xlink:href="#font_1_109" transform="matrix(22,0,0,-22,309.22093,469.87153)" fill="#262626"/>
<use data-text="p" xlink:href="#font_1_112" transform="matrix(22,0,0,-22,330.64894,469.87153)" fill="#262626"/>
<use data-text="r" xlink:href="#font_1_114" transform="matrix(22,0,0,-22,344.61894,469.87153)" fill="#262626"/>
<use data-text="o" xlink:href="#font_1_111" transform="matrix(22,0,0,-22,353.66093,469.87153)" fill="#262626"/>
<use data-text="v" xlink:href="#font_1_118" transform="matrix(22,0,0,-22,367.1249,469.87153)" fill="#262626"/>
<use data-text="e" xlink:href="#font_1_101" transform="matrix(22,0,0,-22,380.1489,469.87153)" fill="#262626"/>
<use data-text="m" xlink:href="#font_1_109" transform="matrix(22,0,0,-22,393.6789,469.87153)" fill="#262626"/>
<use data-text="e" xlink:href="#font_1_101" transform="matrix(22,0,0,-22,415.1069,469.87153)" fill="#262626"/>
<use data-text="n" xlink:href="#font_1_110" transform="matrix(22,0,0,-22,428.6369,469.87153)" fill="#262626"/>
<use data-text="t" xlink:href="#font_1_116" transform="matrix(22,0,0,-22,442.5849,469.87153)" fill="#262626"/>
<g clip-path="url(#clip_2)">
<path transform="matrix(1,0,0,-1,0,481.64967)" stroke-width="1" stroke-linecap="round" stroke-linejoin="round" fill="none" stroke="#cccccc" d="M75.40312 32.496877H678.04318"/>
</g>
<use data-text="0" xlink:href="#font_1_48" transform="matrix(15,0,0,-15,32.496877,454.84809)" fill="#262626"/>
<use data-text="." xlink:href="#font_1_46" transform="matrix(15,0,0,-15,42.036878,454.84809)" fill="#262626"/>
<use data-text="5" xlink:href="#font_1_53" transform="matrix(15,0,0,-15,46.806879,454.84809)" fill="#262626"/>
<use data-text="5" xlink:href="#font_1_53" transform="matrix(15,0,0,-15,56.346879,454.84809)" fill="#262626"/>
<g clip-path="url(#clip_3)">
<path transform="matrix(1,0,0,-1,0,481.64967)" stroke-width="1" stroke-linecap="round" stroke-linejoin="round" fill="none" stroke="#cccccc" d="M75.40312 72.81387H678.04318"/>
</g>
<use data-text="0" xlink:href="#font_1_48" transform="matrix(15,0,0,-15,32.496877,414.5311)" fill="#262626"/>
<use data-text="." xlink:href="#font_1_46" transform="matrix(15,0,0,-15,42.036878,414.5311)" fill="#262626"/>
<use data-text="6" xlink:href="#font_1_54" transform="matrix(15,0,0,-15,46.806879,414.5311)" fill="#262626"/>
<use data-text="0" xlink:href="#font_1_48" transform="matrix(15,0,0,-15,56.346879,414.5311)" fill="#262626"/>
<g clip-path="url(#clip_4)">
<path transform="matrix(1,0,0,-1,0,481.64967)" stroke-width="1" stroke-linecap="round" stroke-linejoin="round" fill="none" stroke="#cccccc" d="M75.40312 113.130878H678.04318"/>
</g>
<use data-text="0" xlink:href="#font_1_48" transform="matrix(15,0,0,-15,32.496877,374.2141)" fill="#262626"/>
<use data-text="." xlink:href="#font_1_46" transform="matrix(15,0,0,-15,42.036878,374.2141)" fill="#262626"/>
<use data-text="6" xlink:href="#font_1_54" transform="matrix(15,0,0,-15,46.806879,374.2141)" fill="#262626"/>
<use data-text="5" xlink:href="#font_1_53" transform="matrix(15,0,0,-15,56.346879,374.2141)" fill="#262626"/>
<g clip-path="url(#clip_5)">
<path transform="matrix(1,0,0,-1,0,481.64967)" stroke-width="1" stroke-linecap="round" stroke-linejoin="round" fill="none" stroke="#cccccc" d="M75.40312 153.44788H678.04318"/>
</g>
<use data-text="0" xlink:href="#font_1_48" transform="matrix(15,0,0,-15,32.496877,333.8971)" fill="#262626"/>
<use data-text="." xlink:href="#font_1_46" transform="matrix(15,0,0,-15,42.036878,333.8971)" fill="#262626"/>
<use data-text="7" xlink:href="#font_1_55" transform="matrix(15,0,0,-15,46.806879,333.8971)" fill="#262626"/>
<use data-text="0" xlink:href="#font_1_48" transform="matrix(15,0,0,-15,56.346879,333.8971)" fill="#262626"/>
<g clip-path="url(#clip_6)">
<path transform="matrix(1,0,0,-1,0,481.64967)" stroke-width="1" stroke-linecap="round" stroke-linejoin="round" fill="none" stroke="#cccccc" d="M75.40312 193.76488H678.04318"/>
</g>
<use data-text="0" xlink:href="#font_1_48" transform="matrix(15,0,0,-15,32.496877,293.58009)" fill="#262626"/>
<use data-text="." xlink:href="#font_1_46" transform="matrix(15,0,0,-15,42.036878,293.58009)" fill="#262626"/>
<use data-text="7" xlink:href="#font_1_55" transform="matrix(15,0,0,-15,46.806879,293.58009)" fill="#262626"/>
<use data-text="5" xlink:href="#font_1_53" transform="matrix(15,0,0,-15,56.346879,293.58009)" fill="#262626"/>
<g clip-path="url(#clip_7)">
<path transform="matrix(1,0,0,-1,0,481.64967)" stroke-width="1" stroke-linecap="round" stroke-linejoin="round" fill="none" stroke="#cccccc" d="M75.40312 234.08188H678.04318"/>
</g>
<use data-text="0" xlink:href="#font_1_48" transform="matrix(15,0,0,-15,32.496877,253.26309)" fill="#262626"/>
<use data-text="." xlink:href="#font_1_46" transform="matrix(15,0,0,-15,42.036878,253.26309)" fill="#262626"/>
<use data-text="8" xlink:href="#font_1_56" transform="matrix(15,0,0,-15,46.806879,253.26309)" fill="#262626"/>
<use data-text="0" xlink:href="#font_1_48" transform="matrix(15,0,0,-15,56.346879,253.26309)" fill="#262626"/>
<g clip-path="url(#clip_8)">
<path transform="matrix(1,0,0,-1,0,481.64967)" stroke-width="1" stroke-linecap="round" stroke-linejoin="round" fill="none" stroke="#cccccc" d="M75.40312 274.39888H678.04318"/>
</g>
<use data-text="0" xlink:href="#font_1_48" transform="matrix(15,0,0,-15,32.496877,212.9461)" fill="#262626"/>
<use data-text="." xlink:href="#font_1_46" transform="matrix(15,0,0,-15,42.036878,212.9461)" fill="#262626"/>
<use data-text="8" xlink:href="#font_1_56" transform="matrix(15,0,0,-15,46.806879,212.9461)" fill="#262626"/>
<use data-text="5" xlink:href="#font_1_53" transform="matrix(15,0,0,-15,56.346879,212.9461)" fill="#262626"/>
<g clip-path="url(#clip_9)">
<path transform="matrix(1,0,0,-1,0,481.64967)" stroke-width="1" stroke-linecap="round" stroke-linejoin="round" fill="none" stroke="#cccccc" d="M75.40312 314.71589H678.04318"/>
</g>
<use data-text="0" xlink:href="#font_1_48" transform="matrix(15,0,0,-15,32.496877,172.62909)" fill="#262626"/>
<use data-text="." xlink:href="#font_1_46" transform="matrix(15,0,0,-15,42.036878,172.62909)" fill="#262626"/>
<use data-text="9" xlink:href="#font_1_57" transform="matrix(15,0,0,-15,46.806879,172.62909)" fill="#262626"/>
<use data-text="0" xlink:href="#font_1_48" transform="matrix(15,0,0,-15,56.346879,172.62909)" fill="#262626"/>
<g clip-path="url(#clip_10)">
<path transform="matrix(1,0,0,-1,0,481.64967)" stroke-width="1" stroke-linecap="round" stroke-linejoin="round" fill="none" stroke="#cccccc" d="M75.40312 355.03288H678.04318"/>
</g>
<use data-text="0" xlink:href="#font_1_48" transform="matrix(15,0,0,-15,32.496877,132.3121)" fill="#262626"/>
<use data-text="." xlink:href="#font_1_46" transform="matrix(15,0,0,-15,42.036878,132.3121)" fill="#262626"/>
<use data-text="9" xlink:href="#font_1_57" transform="matrix(15,0,0,-15,46.806879,132.3121)" fill="#262626"/>
<use data-text="5" xlink:href="#font_1_53" transform="matrix(15,0,0,-15,56.346879,132.3121)" fill="#262626"/>
<g clip-path="url(#clip_11)">
<path transform="matrix(1,0,0,-1,0,481.64967)" stroke-width="1" stroke-linecap="round" stroke-linejoin="round" fill="none" stroke="#cccccc" d="M75.40312 395.34989H678.04318"/>
</g>
<use data-text="1" xlink:href="#font_1_49" transform="matrix(15,0,0,-15,32.496877,91.99509)" fill="#262626"/>
<use data-text="." xlink:href="#font_1_46" transform="matrix(15,0,0,-15,42.036878,91.99509)" fill="#262626"/>
<use data-text="0" xlink:href="#font_1_48" transform="matrix(15,0,0,-15,46.806879,91.99509)" fill="#262626"/>
<use data-text="0" xlink:href="#font_1_48" transform="matrix(15,0,0,-15,56.346879,91.99509)" fill="#262626"/>
<use data-text="P" xlink:href="#font_1_80" transform="matrix(0,-22,-22,-0,23.91875,337.46067)" fill="#262626"/>
<use data-text="e" xlink:href="#font_1_101" transform="matrix(0,-22,-22,-0,23.91875,324.19465)" fill="#262626"/>
<use data-text="r" xlink:href="#font_1_114" transform="matrix(0,-22,-22,-0,23.91875,310.66468)" fill="#262626"/>
<use data-text="f" xlink:href="#font_1_102" transform="matrix(0,-22,-22,-0,23.91875,301.62266)" fill="#262626"/>
<use data-text="o" xlink:href="#font_1_111" transform="matrix(0,-22,-22,-0,23.91875,293.87867)" fill="#262626"/>
<use data-text="r" xlink:href="#font_1_114" transform="matrix(0,-22,-22,-0,23.91875,280.41465)" fill="#262626"/>
<use data-text="m" xlink:href="#font_1_109" transform="matrix(0,-22,-22,-0,23.91875,271.37266)" fill="#262626"/>
<use data-text="a" xlink:href="#font_1_97" transform="matrix(0,-22,-22,-0,23.91875,249.94464)" fill="#262626"/>
<use data-text="n" xlink:href="#font_1_110" transform="matrix(0,-22,-22,-0,23.91875,236.45864)" fill="#262626"/>
<use data-text="c" xlink:href="#font_1_99" transform="matrix(0,-22,-22,-0,23.91875,222.51062)" fill="#262626"/>
<use data-text="e" xlink:href="#font_1_101" transform="matrix(0,-22,-22,-0,23.91875,210.41062)" fill="#262626"/>
<g clip-path="url(#clip_12)">
<path transform="matrix(1,0,0,-1,0,481.64967)" stroke-width="1.5" stroke-linecap="round" stroke-linejoin="round" fill="none" stroke="#4c72b0" d="M128.48542 88.940677 197.18012 217.95508 253.38489 234.88822 347.0595 254.24037 409.50926 262.30378 471.95899 284.8813 540.6537 320.36027 615.5934 328.42366"/>
<g clip-path="url(#clip_13)">
<path transform="matrix(1,0,0,-1,128.4854,392.70899)" d="M0-7C1.856422-7 3.637059-6.262436 4.949747-4.949747 6.262436-3.637059 7-1.856422 7 0 7 1.856422 6.262436 3.637059 4.949747 4.949747 3.637059 6.262436 1.856422 7 0 7-1.856422 7-3.637059 6.262436-4.949747 4.949747-6.262436 3.637059-7 1.856422-7 0-7-1.856422-6.262436-3.637059-4.949747-4.949747-3.637059-6.262436-1.856422-7 0-7Z" fill="#4c72b0"/>
<path transform="matrix(1,0,0,-1,128.4854,392.70899)" stroke-width=".75" stroke-linecap="butt" stroke-linejoin="round" fill="none" stroke="#ffffff" d="M0-7C1.856422-7 3.637059-6.262436 4.949747-4.949747 6.262436-3.637059 7-1.856422 7 0 7 1.856422 6.262436 3.637059 4.949747 4.949747 3.637059 6.262436 1.856422 7 0 7-1.856422 7-3.637059 6.262436-4.949747 4.949747-6.262436 3.637059-7 1.856422-7 0-7-1.856422-6.262436-3.637059-4.949747-4.949747-3.637059-6.262436-1.856422-7 0-7Z"/>
</g>
<g clip-path="url(#clip_14)">
<path transform="matrix(1,0,0,-1,197.18012,263.69459)" d="M0-7C1.856422-7 3.637059-6.262436 4.949747-4.949747 6.262436-3.637059 7-1.856422 7 0 7 1.856422 6.262436 3.637059 4.949747 4.949747 3.637059 6.262436 1.856422 7 0 7-1.856422 7-3.637059 6.262436-4.949747 4.949747-6.262436 3.637059-7 1.856422-7 0-7-1.856422-6.262436-3.637059-4.949747-4.949747-3.637059-6.262436-1.856422-7 0-7Z" fill="#4c72b0"/>
<path transform="matrix(1,0,0,-1,197.18012,263.69459)" stroke-width=".75" stroke-linecap="butt" stroke-linejoin="round" fill="none" stroke="#ffffff" d="M0-7C1.856422-7 3.637059-6.262436 4.949747-4.949747 6.262436-3.637059 7-1.856422 7 0 7 1.856422 6.262436 3.637059 4.949747 4.949747 3.637059 6.262436 1.856422 7 0 7-1.856422 7-3.637059 6.262436-4.949747 4.949747-6.262436 3.637059-7 1.856422-7 0-7-1.856422-6.262436-3.637059-4.949747-4.949747-3.637059-6.262436-1.856422-7 0-7Z"/>
</g>
<g clip-path="url(#clip_15)">
<path transform="matrix(1,0,0,-1,253.38489,246.76145)" d="M0-7C1.856422-7 3.637059-6.262436 4.949747-4.949747 6.262436-3.637059 7-1.856422 7 0 7 1.856422 6.262436 3.637059 4.949747 4.949747 3.637059 6.262436 1.856422 7 0 7-1.856422 7-3.637059 6.262436-4.949747 4.949747-6.262436 3.637059-7 1.856422-7 0-7-1.856422-6.262436-3.637059-4.949747-4.949747-3.637059-6.262436-1.856422-7 0-7Z" fill="#4c72b0"/>
<path transform="matrix(1,0,0,-1,253.38489,246.76145)" stroke-width=".75" stroke-linecap="butt" stroke-linejoin="round" fill="none" stroke="#ffffff" d="M0-7C1.856422-7 3.637059-6.262436 4.949747-4.949747 6.262436-3.637059 7-1.856422 7 0 7 1.856422 6.262436 3.637059 4.949747 4.949747 3.637059 6.262436 1.856422 7 0 7-1.856422 7-3.637059 6.262436-4.949747 4.949747-6.262436 3.637059-7 1.856422-7 0-7-1.856422-6.262436-3.637059-4.949747-4.949747-3.637059-6.262436-1.856422-7 0-7Z"/>
</g>
<g clip-path="url(#clip_16)">
<path transform="matrix(1,0,0,-1,347.0595,227.40929)" d="M0-7C1.856422-7 3.637059-6.262436 4.949747-4.949747 6.262436-3.637059 7-1.856422 7 0 7 1.856422 6.262436 3.637059 4.949747 4.949747 3.637059 6.262436 1.856422 7 0 7-1.856422 7-3.637059 6.262436-4.949747 4.949747-6.262436 3.637059-7 1.856422-7 0-7-1.856422-6.262436-3.637059-4.949747-4.949747-3.637059-6.262436-1.856422-7 0-7Z" fill="#4c72b0"/>
<path transform="matrix(1,0,0,-1,347.0595,227.40929)" stroke-width=".75" stroke-linecap="butt" stroke-linejoin="round" fill="none" stroke="#ffffff" d="M0-7C1.856422-7 3.637059-6.262436 4.949747-4.949747 6.262436-3.637059 7-1.856422 7 0 7 1.856422 6.262436 3.637059 4.949747 4.949747 3.637059 6.262436 1.856422 7 0 7-1.856422 7-3.637059 6.262436-4.949747 4.949747-6.262436 3.637059-7 1.856422-7 0-7-1.856422-6.262436-3.637059-4.949747-4.949747-3.637059-6.262436-1.856422-7 0-7Z"/>
</g>
<g clip-path="url(#clip_17)">
<path transform="matrix(1,0,0,-1,409.50926,219.34589)" d="M0-7C1.856422-7 3.637059-6.262436 4.949747-4.949747 6.262436-3.637059 7-1.856422 7 0 7 1.856422 6.262436 3.637059 4.949747 4.949747 3.637059 6.262436 1.856422 7 0 7-1.856422 7-3.637059 6.262436-4.949747 4.949747-6.262436 3.637059-7 1.856422-7 0-7-1.856422-6.262436-3.637059-4.949747-4.949747-3.637059-6.262436-1.856422-7 0-7Z" fill="#4c72b0"/>
<path transform="matrix(1,0,0,-1,409.50926,219.34589)" stroke-width=".75" stroke-linecap="butt" stroke-linejoin="round" fill="none" stroke="#ffffff" d="M0-7C1.856422-7 3.637059-6.262436 4.949747-4.949747 6.262436-3.637059 7-1.856422 7 0 7 1.856422 6.262436 3.637059 4.949747 4.949747 3.637059 6.262436 1.856422 7 0 7-1.856422 7-3.637059 6.262436-4.949747 4.949747-6.262436 3.637059-7 1.856422-7 0-7-1.856422-6.262436-3.637059-4.949747-4.949747-3.637059-6.262436-1.856422-7 0-7Z"/>
</g>
<g clip-path="url(#clip_18)">
<path transform="matrix(1,0,0,-1,471.95899,196.76837)" d="M0-7C1.856422-7 3.637059-6.262436 4.949747-4.949747 6.262436-3.637059 7-1.856422 7 0 7 1.856422 6.262436 3.637059 4.949747 4.949747 3.637059 6.262436 1.856422 7 0 7-1.856422 7-3.637059 6.262436-4.949747 4.949747-6.262436 3.637059-7 1.856422-7 0-7-1.856422-6.262436-3.637059-4.949747-4.949747-3.637059-6.262436-1.856422-7 0-7Z" fill="#4c72b0"/>
<path transform="matrix(1,0,0,-1,471.95899,196.76837)" stroke-width=".75" stroke-linecap="butt" stroke-linejoin="round" fill="none" stroke="#ffffff" d="M0-7C1.856422-7 3.637059-6.262436 4.949747-4.949747 6.262436-3.637059 7-1.856422 7 0 7 1.856422 6.262436 3.637059 4.949747 4.949747 3.637059 6.262436 1.856422 7 0 7-1.856422 7-3.637059 6.262436-4.949747 4.949747-6.262436 3.637059-7 1.856422-7 0-7-1.856422-6.262436-3.637059-4.949747-4.949747-3.637059-6.262436-1.856422-7 0-7Z"/>
</g>
<g clip-path="url(#clip_19)">
<path transform="matrix(1,0,0,-1,540.6537,161.28942)" d="M0-7C1.856422-7 3.637059-6.262436 4.949747-4.949747 6.262436-3.637059 7-1.856422 7 0 7 1.856422 6.262436 3.637059 4.949747 4.949747 3.637059 6.262436 1.856422 7 0 7-1.856422 7-3.637059 6.262436-4.949747 4.949747-6.262436 3.637059-7 1.856422-7 0-7-1.856422-6.262436-3.637059-4.949747-4.949747-3.637059-6.262436-1.856422-7 0-7Z" fill="#4c72b0"/>
<path transform="matrix(1,0,0,-1,540.6537,161.28942)" stroke-width=".75" stroke-linecap="butt" stroke-linejoin="round" fill="none" stroke="#ffffff" d="M0-7C1.856422-7 3.637059-6.262436 4.949747-4.949747 6.262436-3.637059 7-1.856422 7 0 7 1.856422 6.262436 3.637059 4.949747 4.949747 3.637059 6.262436 1.856422 7 0 7-1.856422 7-3.637059 6.262436-4.949747 4.949747-6.262436 3.637059-7 1.856422-7 0-7-1.856422-6.262436-3.637059-4.949747-4.949747-3.637059-6.262436-1.856422-7 0-7Z"/>
</g>
<g clip-path="url(#clip_20)">
<path transform="matrix(1,0,0,-1,615.5934,153.22602)" d="M0-7C1.856422-7 3.637059-6.262436 4.949747-4.949747 6.262436-3.637059 7-1.856422 7 0 7 1.856422 6.262436 3.637059 4.949747 4.949747 3.637059 6.262436 1.856422 7 0 7-1.856422 7-3.637059 6.262436-4.949747 4.949747-6.262436 3.637059-7 1.856422-7 0-7-1.856422-6.262436-3.637059-4.949747-4.949747-3.637059-6.262436-1.856422-7 0-7Z" fill="#4c72b0"/>
<path transform="matrix(1,0,0,-1,615.5934,153.22602)" stroke-width=".75" stroke-linecap="butt" stroke-linejoin="round" fill="none" stroke="#ffffff" d="M0-7C1.856422-7 3.637059-6.262436 4.949747-4.949747 6.262436-3.637059 7-1.856422 7 0 7 1.856422 6.262436 3.637059 4.949747 4.949747 3.637059 6.262436 1.856422 7 0 7-1.856422 7-3.637059 6.262436-4.949747 4.949747-6.262436 3.637059-7 1.856422-7 0-7-1.856422-6.262436-3.637059-4.949747-4.949747-3.637059-6.262436-1.856422-7 0-7Z"/>
</g>
</g>
<path transform="matrix(1,0,0,-1,0,481.64967)" stroke-width="1.25" stroke-linecap="square" stroke-miterlimit="10" stroke-linejoin="miter" fill="none" stroke="#cccccc" d="M75.40312 32.496877H678.04318"/>
<path transform="matrix(1,0,0,-1,0,481.64967)" stroke-width="1" stroke-linecap="round" stroke-linejoin="round" fill="none" stroke="#000000" d="M128.48542 205.39395C128.48542 167.24314 128.48542 129.09232 128.48542 90.941509"/>
<use data-text="R" xlink:href="#font_1_82" transform="matrix(12,0,0,-12,96.50103,255.80799)" fill="#dd8452"/>
<use data-text="a" xlink:href="#font_1_97" transform="matrix(12,0,0,-12,104.841037,255.80799)" fill="#dd8452"/>
<use data-text="n" xlink:href="#font_1_110" transform="matrix(12,0,0,-12,112.19704,255.80799)" fill="#dd8452"/>
<use data-text="d" xlink:href="#font_1_100" transform="matrix(12,0,0,-12,119.80504,255.80799)" fill="#dd8452"/>
<use data-text="o" xlink:href="#font_1_111" transform="matrix(12,0,0,-12,127.42504,255.80799)" fill="#dd8452"/>
<use data-text="m" xlink:href="#font_1_109" transform="matrix(12,0,0,-12,134.76905,255.80799)" fill="#dd8452"/>
<use data-text="l" xlink:href="#font_1_108" transform="matrix(12,0,0,-12,146.45705,255.80799)" fill="#dd8452"/>
<use data-text="y" xlink:href="#font_1_121" transform="matrix(12,0,0,-12,149.79305,255.80799)" fill="#dd8452"/>
<use data-text=" " xlink:href="#font_1_32" transform="matrix(12,0,0,-12,156.89705,255.80799)" fill="#dd8452"/>
<use data-text="I" xlink:href="#font_1_73" transform="matrix(12,0,0,-12,99.56353,269.258)" fill="#dd8452"/>
<use data-text="n" xlink:href="#font_1_110" transform="matrix(12,0,0,-12,103.10353,269.258)" fill="#dd8452"/>
<use data-text="i" xlink:href="#font_1_105" transform="matrix(12,0,0,-12,110.71153,269.258)" fill="#dd8452"/>
<use data-text="t" xlink:href="#font_1_116" transform="matrix(12,0,0,-12,114.04753,269.258)" fill="#dd8452"/>
<use data-text="i" xlink:href="#font_1_105" transform="matrix(12,0,0,-12,118.75153,269.258)" fill="#dd8452"/>
<use data-text="a" xlink:href="#font_1_97" transform="matrix(12,0,0,-12,122.08753,269.258)" fill="#dd8452"/>
<use data-text="l" xlink:href="#font_1_108" transform="matrix(12,0,0,-12,129.44353,269.258)" fill="#dd8452"/>
<use data-text="i" xlink:href="#font_1_105" transform="matrix(12,0,0,-12,132.77953,269.258)" fill="#dd8452"/>
<use data-text="z" xlink:href="#font_1_122" transform="matrix(12,0,0,-12,136.11553,269.258)" fill="#dd8452"/>
<use data-text="e" xlink:href="#font_1_101" transform="matrix(12,0,0,-12,142.41553,269.258)" fill="#dd8452"/>
<use data-text="d" xlink:href="#font_1_100" transform="matrix(12,0,0,-12,149.79553,269.258)" fill="#dd8452"/>
<path transform="matrix(1,0,0,-1,0,481.64967)" stroke-width="1" stroke-linecap="round" stroke-linejoin="round" fill="none" stroke="#000000" d="M197.18012 294.08985C197.18012 269.37919 197.18012 244.66855 197.18012 219.95789"/>
<use data-text="P" xlink:href="#font_1_80" transform="matrix(12,0,0,-12,169.7348,167.1106)" fill="#55a868"/>
<use data-text="r" xlink:href="#font_1_114" transform="matrix(12,0,0,-12,176.97081,167.1106)" fill="#55a868"/>
<use data-text="e" xlink:href="#font_1_101" transform="matrix(12,0,0,-12,181.90282,167.1106)" fill="#55a868"/>
<use data-text="-" xlink:href="#font_1_45" transform="matrix(12,0,0,-12,189.28282,167.1106)" fill="#55a868"/>
<use data-text="T" xlink:href="#font_1_84" transform="matrix(12,0,0,-12,193.61483,167.1106)" fill="#55a868"/>
<use data-text="r" xlink:href="#font_1_114" transform="matrix(12,0,0,-12,200.94683,167.1106)" fill="#55a868"/>
<use data-text="a" xlink:href="#font_1_97" transform="matrix(12,0,0,-12,205.87883,167.1106)" fill="#55a868"/>
<use data-text="i" xlink:href="#font_1_105" transform="matrix(12,0,0,-12,213.23484,167.1106)" fill="#55a868"/>
<use data-text="n" xlink:href="#font_1_110" transform="matrix(12,0,0,-12,216.57083,167.1106)" fill="#55a868"/>
<use data-text=" " xlink:href="#font_1_32" transform="matrix(12,0,0,-12,224.17884,167.1106)" fill="#55a868"/>
<use data-text="(" xlink:href="#font_1_40" transform="matrix(12,0,0,-12,149.05512,180.56058)" fill="#55a868"/>
<use data-text="C" xlink:href="#font_1_67" transform="matrix(12,0,0,-12,153.7351,180.56058)" fill="#55a868"/>
<use data-text="u" xlink:href="#font_1_117" transform="matrix(12,0,0,-12,162.11112,180.56058)" fill="#55a868"/>
<use data-text="s" xlink:href="#font_1_115" transform="matrix(12,0,0,-12,169.71912,180.56058)" fill="#55a868"/>
<use data-text="t" xlink:href="#font_1_116" transform="matrix(12,0,0,-12,175.97112,180.56058)" fill="#55a868"/>
<use data-text="o" xlink:href="#font_1_111" transform="matrix(12,0,0,-12,180.67511,180.56058)" fill="#55a868"/>
<use data-text="m" xlink:href="#font_1_109" transform="matrix(12,0,0,-12,188.0191,180.56058)" fill="#55a868"/>
<use data-text="," xlink:href="#font_1_44" transform="matrix(12,0,0,-12,199.7071,180.56058)" fill="#55a868"/>
<use data-text=" " xlink:href="#font_1_32" transform="matrix(12,0,0,-12,203.5231,180.56058)" fill="#55a868"/>
<use data-text="1" xlink:href="#font_1_49" transform="matrix(12,0,0,-12,207.3391,180.56058)" fill="#55a868"/>
<use data-text="0" xlink:href="#font_1_48" transform="matrix(12,0,0,-12,214.9711,180.56058)" fill="#55a868"/>
<use data-text="0" xlink:href="#font_1_48" transform="matrix(12,0,0,-12,222.6031,180.56058)" fill="#55a868"/>
<use data-text="M" xlink:href="#font_1_77" transform="matrix(12,0,0,-12,230.2351,180.56058)" fill="#55a868"/>
<use data-text=")" xlink:href="#font_1_41" transform="matrix(12,0,0,-12,240.59111,180.56058)" fill="#55a868"/>
<path transform="matrix(1,0,0,-1,0,481.64967)" stroke-width="1" stroke-linecap="round" stroke-linejoin="round" fill="none" stroke="#000000" d="M253.38489 327.14747C253.38489 297.06169 253.38489 266.97587 253.38489 236.89006"/>
<use data-text="P" xlink:href="#font_1_80" transform="matrix(12,0,0,-12,225.93958,134.05063)" fill="#55a868"/>
<use data-text="r" xlink:href="#font_1_114" transform="matrix(12,0,0,-12,233.17559,134.05063)" fill="#55a868"/>
<use data-text="e" xlink:href="#font_1_101" transform="matrix(12,0,0,-12,238.10759,134.05063)" fill="#55a868"/>
<use data-text="-" xlink:href="#font_1_45" transform="matrix(12,0,0,-12,245.4876,134.05063)" fill="#55a868"/>
<use data-text="T" xlink:href="#font_1_84" transform="matrix(12,0,0,-12,249.8196,134.05063)" fill="#55a868"/>
<use data-text="r" xlink:href="#font_1_114" transform="matrix(12,0,0,-12,257.15159,134.05063)" fill="#55a868"/>
<use data-text="a" xlink:href="#font_1_97" transform="matrix(12,0,0,-12,262.0836,134.05063)" fill="#55a868"/>
<use data-text="i" xlink:href="#font_1_105" transform="matrix(12,0,0,-12,269.43959,134.05063)" fill="#55a868"/>
<use data-text="n" xlink:href="#font_1_110" transform="matrix(12,0,0,-12,272.77558,134.05063)" fill="#55a868"/>
<use data-text=" " xlink:href="#font_1_32" transform="matrix(12,0,0,-12,280.38359,134.05063)" fill="#55a868"/>
<use data-text="(" xlink:href="#font_1_40" transform="matrix(12,0,0,-12,184.24427,147.50064)" fill="#55a868"/>
<use data-text="S" xlink:href="#font_1_83" transform="matrix(12,0,0,-12,188.92426,147.50064)" fill="#55a868"/>
<use data-text="e" xlink:href="#font_1_101" transform="matrix(12,0,0,-12,196.54425,147.50064)" fill="#55a868"/>
<use data-text="n" xlink:href="#font_1_110" transform="matrix(12,0,0,-12,203.92426,147.50064)" fill="#55a868"/>
<use data-text="t" xlink:href="#font_1_116" transform="matrix(12,0,0,-12,211.53226,147.50064)" fill="#55a868"/>
<use data-text="e" xlink:href="#font_1_101" transform="matrix(12,0,0,-12,216.23625,147.50064)" fill="#55a868"/>
<use data-text="n" xlink:href="#font_1_110" transform="matrix(12,0,0,-12,223.61626,147.50064)" fill="#55a868"/>
<use data-text="c" xlink:href="#font_1_99" transform="matrix(12,0,0,-12,231.22426,147.50064)" fill="#55a868"/>
<use data-text="e" xlink:href="#font_1_101" transform="matrix(12,0,0,-12,237.82427,147.50064)" fill="#55a868"/>
<use data-text="P" xlink:href="#font_1_80" transform="matrix(12,0,0,-12,245.20427,147.50064)" fill="#55a868"/>
<use data-text="i" xlink:href="#font_1_105" transform="matrix(12,0,0,-12,252.44028,147.50064)" fill="#55a868"/>
<use data-text="e" xlink:href="#font_1_101" transform="matrix(12,0,0,-12,255.77628,147.50064)" fill="#55a868"/>
<use data-text="c" xlink:href="#font_1_99" transform="matrix(12,0,0,-12,263.15629,147.50064)" fill="#55a868"/>
<use data-text="e" xlink:href="#font_1_101" transform="matrix(12,0,0,-12,269.7563,147.50064)" fill="#55a868"/>
<use data-text="," xlink:href="#font_1_44" transform="matrix(12,0,0,-12,277.1363,147.50064)" fill="#55a868"/>
<use data-text=" " xlink:href="#font_1_32" transform="matrix(12,0,0,-12,280.9523,147.50064)" fill="#55a868"/>
<use data-text="1" xlink:href="#font_1_49" transform="matrix(12,0,0,-12,284.7683,147.50064)" fill="#55a868"/>
<use data-text="0" xlink:href="#font_1_48" transform="matrix(12,0,0,-12,292.4003,147.50064)" fill="#55a868"/>
<use data-text="0" xlink:href="#font_1_48" transform="matrix(12,0,0,-12,300.0323,147.50064)" fill="#55a868"/>
<use data-text="M" xlink:href="#font_1_77" transform="matrix(12,0,0,-12,307.66429,147.50064)" fill="#55a868"/>
<use data-text=")" xlink:href="#font_1_41" transform="matrix(12,0,0,-12,318.02027,147.50064)" fill="#55a868"/>
<path transform="matrix(1,0,0,-1,0,481.64967)" stroke-width="1" stroke-linecap="round" stroke-linejoin="round" fill="none" stroke="#000000" d="M347.0595 354.56135C347.0595 321.7874 347.0595 289.0135 347.0595 256.23957"/>
<use data-text="O" xlink:href="#font_1_79" transform="matrix(12,0,0,-12,318.247,106.63507)" fill="#c44e52"/>
<use data-text="p" xlink:href="#font_1_112" transform="matrix(12,0,0,-12,327.691,106.63507)" fill="#c44e52"/>
<use data-text="t" xlink:href="#font_1_116" transform="matrix(12,0,0,-12,335.311,106.63507)" fill="#c44e52"/>
<use data-text="i" xlink:href="#font_1_105" transform="matrix(12,0,0,-12,340.015,106.63507)" fill="#c44e52"/>
<use data-text="m" xlink:href="#font_1_109" transform="matrix(12,0,0,-12,343.351,106.63507)" fill="#c44e52"/>
<use data-text="i" xlink:href="#font_1_105" transform="matrix(12,0,0,-12,355.039,106.63507)" fill="#c44e52"/>
<use data-text="z" xlink:href="#font_1_122" transform="matrix(12,0,0,-12,358.375,106.63507)" fill="#c44e52"/>
<use data-text="e" xlink:href="#font_1_101" transform="matrix(12,0,0,-12,364.675,106.63507)" fill="#c44e52"/>
<use data-text=" " xlink:href="#font_1_32" transform="matrix(12,0,0,-12,372.055,106.63507)" fill="#c44e52"/>
<use data-text="M" xlink:href="#font_1_77" transform="matrix(12,0,0,-12,286.60639,120.08508)" fill="#c44e52"/>
<use data-text="a" xlink:href="#font_1_97" transform="matrix(12,0,0,-12,296.96238,120.08508)" fill="#c44e52"/>
<use data-text="s" xlink:href="#font_1_115" transform="matrix(12,0,0,-12,304.31837,120.08508)" fill="#c44e52"/>
<use data-text="k" xlink:href="#font_1_107" transform="matrix(12,0,0,-12,310.57038,120.08508)" fill="#c44e52"/>
<use data-text="i" xlink:href="#font_1_105" transform="matrix(12,0,0,-12,317.51838,120.08508)" fill="#c44e52"/>
<use data-text="n" xlink:href="#font_1_110" transform="matrix(12,0,0,-12,320.85438,120.08508)" fill="#c44e52"/>
<use data-text="g" xlink:href="#font_1_103" transform="matrix(12,0,0,-12,328.46238,120.08508)" fill="#c44e52"/>
<use data-text=" " xlink:href="#font_1_32" transform="matrix(12,0,0,-12,336.08238,120.08508)" fill="#c44e52"/>
<use data-text="P" xlink:href="#font_1_80" transform="matrix(12,0,0,-12,339.89839,120.08508)" fill="#c44e52"/>
<use data-text="e" xlink:href="#font_1_101" transform="matrix(12,0,0,-12,347.13438,120.08508)" fill="#c44e52"/>
<use data-text="r" xlink:href="#font_1_114" transform="matrix(12,0,0,-12,354.51438,120.08508)" fill="#c44e52"/>
<use data-text="c" xlink:href="#font_1_99" transform="matrix(12,0,0,-12,359.44639,120.08508)" fill="#c44e52"/>
<use data-text="e" xlink:href="#font_1_101" transform="matrix(12,0,0,-12,366.0464,120.08508)" fill="#c44e52"/>
<use data-text="n" xlink:href="#font_1_110" transform="matrix(12,0,0,-12,373.4264,120.08508)" fill="#c44e52"/>
<use data-text="t" xlink:href="#font_1_116" transform="matrix(12,0,0,-12,381.0344,120.08508)" fill="#c44e52"/>
<use data-text="a" xlink:href="#font_1_97" transform="matrix(12,0,0,-12,385.7384,120.08508)" fill="#c44e52"/>
<use data-text="g" xlink:href="#font_1_103" transform="matrix(12,0,0,-12,393.0944,120.08508)" fill="#c44e52"/>
<use data-text="e" xlink:href="#font_1_101" transform="matrix(12,0,0,-12,400.7144,120.08508)" fill="#c44e52"/>
<path transform="matrix(1,0,0,-1,0,481.64967)" stroke-width="1" stroke-linecap="round" stroke-linejoin="round" fill="none" stroke="#000000" d="M409.50926 378.75706C409.50926 340.60624 409.50926 302.4554 409.50926 264.3046"/>
<use data-text="R" xlink:href="#font_1_82" transform="matrix(12,0,0,-12,383.22019,82.444889)" fill="#c44e52"/>
<use data-text="e" xlink:href="#font_1_101" transform="matrix(12,0,0,-12,391.56019,82.444889)" fill="#c44e52"/>
<use data-text="m" xlink:href="#font_1_109" transform="matrix(12,0,0,-12,398.9402,82.444889)" fill="#c44e52"/>
<use data-text="o" xlink:href="#font_1_111" transform="matrix(12,0,0,-12,410.62818,82.444889)" fill="#c44e52"/>
<use data-text="v" xlink:href="#font_1_118" transform="matrix(12,0,0,-12,417.97218,82.444889)" fill="#c44e52"/>
<use data-text="e" xlink:href="#font_1_101" transform="matrix(12,0,0,-12,425.07618,82.444889)" fill="#c44e52"/>
<use data-text=" " xlink:href="#font_1_32" transform="matrix(12,0,0,-12,432.45619,82.444889)" fill="#c44e52"/>
<use data-text="R" xlink:href="#font_1_82" transform="matrix(12,0,0,-12,362.49363,95.8949)" fill="#c44e52"/>
<use data-text="a" xlink:href="#font_1_97" transform="matrix(12,0,0,-12,370.83363,95.8949)" fill="#c44e52"/>
<use data-text="n" xlink:href="#font_1_110" transform="matrix(12,0,0,-12,378.1896,95.8949)" fill="#c44e52"/>
<use data-text="d" xlink:href="#font_1_100" transform="matrix(12,0,0,-12,385.7976,95.8949)" fill="#c44e52"/>
<use data-text="o" xlink:href="#font_1_111" transform="matrix(12,0,0,-12,393.4176,95.8949)" fill="#c44e52"/>
<use data-text="m" xlink:href="#font_1_109" transform="matrix(12,0,0,-12,400.7616,95.8949)" fill="#c44e52"/>
<use data-text=" " xlink:href="#font_1_32" transform="matrix(12,0,0,-12,412.4496,95.8949)" fill="#c44e52"/>
<use data-text="T" xlink:href="#font_1_84" transform="matrix(12,0,0,-12,416.2656,95.8949)" fill="#c44e52"/>
<use data-text="o" xlink:href="#font_1_111" transform="matrix(12,0,0,-12,423.5976,95.8949)" fill="#c44e52"/>
<use data-text="k" xlink:href="#font_1_107" transform="matrix(12,0,0,-12,430.9416,95.8949)" fill="#c44e52"/>
<use data-text="e" xlink:href="#font_1_101" transform="matrix(12,0,0,-12,437.8896,95.8949)" fill="#c44e52"/>
<use data-text="n" xlink:href="#font_1_110" transform="matrix(12,0,0,-12,445.2696,95.8949)" fill="#c44e52"/>
<use data-text="s" xlink:href="#font_1_115" transform="matrix(12,0,0,-12,452.8776,95.8949)" fill="#c44e52"/>
<path transform="matrix(1,0,0,-1,0,481.64967)" stroke-width="1" stroke-linecap="round" stroke-linejoin="round" fill="none" stroke="#000000" d="M471.95899 401.33457C471.95899 363.18376 471.95899 325.03294 471.95899 286.8821"/>
<use data-text="L" xlink:href="#font_1_76" transform="matrix(12,0,0,-12,421.43556,59.86737)" fill="#8172b3"/>
<use data-text="a" xlink:href="#font_1_97" transform="matrix(12,0,0,-12,428.11955,59.86737)" fill="#8172b3"/>
<use data-text="r" xlink:href="#font_1_114" transform="matrix(12,0,0,-12,435.47554,59.86737)" fill="#8172b3"/>
<use data-text="g" xlink:href="#font_1_103" transform="matrix(12,0,0,-12,440.40754,59.86737)" fill="#8172b3"/>
<use data-text="e" xlink:href="#font_1_101" transform="matrix(12,0,0,-12,448.02754,59.86737)" fill="#8172b3"/>
<use data-text="r" xlink:href="#font_1_114" transform="matrix(12,0,0,-12,455.40754,59.86737)" fill="#8172b3"/>
<use data-text=" " xlink:href="#font_1_32" transform="matrix(12,0,0,-12,460.33955,59.86737)" fill="#8172b3"/>
<use data-text="C" xlink:href="#font_1_67" transform="matrix(12,0,0,-12,464.15556,59.86737)" fill="#8172b3"/>
<use data-text="o" xlink:href="#font_1_111" transform="matrix(12,0,0,-12,472.53157,59.86737)" fill="#8172b3"/>
<use data-text="m" xlink:href="#font_1_109" transform="matrix(12,0,0,-12,479.87556,59.86737)" fill="#8172b3"/>
<use data-text="p" xlink:href="#font_1_112" transform="matrix(12,0,0,-12,491.56355,59.86737)" fill="#8172b3"/>
<use data-text="u" xlink:href="#font_1_117" transform="matrix(12,0,0,-12,499.18354,59.86737)" fill="#8172b3"/>
<use data-text="t" xlink:href="#font_1_116" transform="matrix(12,0,0,-12,506.79154,59.86737)" fill="#8172b3"/>
<use data-text="e" xlink:href="#font_1_101" transform="matrix(12,0,0,-12,511.49555,59.86737)" fill="#8172b3"/>
<use data-text=" " xlink:href="#font_1_32" transform="matrix(12,0,0,-12,518.87557,59.86737)" fill="#8172b3"/>
<use data-text="(" xlink:href="#font_1_40" transform="matrix(12,0,0,-12,434.91993,73.31735)" fill="#8172b3"/>
<use data-text="1" xlink:href="#font_1_49" transform="matrix(12,0,0,-12,439.5999,73.31735)" fill="#8172b3"/>
<use data-text="B" xlink:href="#font_1_66" transform="matrix(12,0,0,-12,447.2319,73.31735)" fill="#8172b3"/>
<use data-text=" " xlink:href="#font_1_32" transform="matrix(12,0,0,-12,455.4639,73.31735)" fill="#8172b3"/>
<use data-text="S" xlink:href="#font_1_83" transform="matrix(12,0,0,-12,459.2799,73.31735)" fill="#8172b3"/>
<use data-text="a" xlink:href="#font_1_97" transform="matrix(12,0,0,-12,466.8999,73.31735)" fill="#8172b3"/>
<use data-text="m" xlink:href="#font_1_109" transform="matrix(12,0,0,-12,474.2559,73.31735)" fill="#8172b3"/>
<use data-text="p" xlink:href="#font_1_112" transform="matrix(12,0,0,-12,485.94389,73.31735)" fill="#8172b3"/>
<use data-text="l" xlink:href="#font_1_108" transform="matrix(12,0,0,-12,493.56388,73.31735)" fill="#8172b3"/>
<use data-text="e" xlink:href="#font_1_101" transform="matrix(12,0,0,-12,496.89988,73.31735)" fill="#8172b3"/>
<use data-text=")" xlink:href="#font_1_41" transform="matrix(12,0,0,-12,504.27989,73.31735)" fill="#8172b3"/>
<path transform="matrix(1,0,0,-1,0,481.64967)" stroke-width="1" stroke-linecap="round" stroke-linejoin="round" fill="none" stroke="#000000" d="M540.6537 436.81355C540.6537 398.66273 540.6537 360.5119 540.6537 322.36109"/>
<use data-text="L" xlink:href="#font_1_76" transform="matrix(12,0,0,-12,499.474,24.388398)" fill="#8172b3"/>
<use data-text="a" xlink:href="#font_1_97" transform="matrix(12,0,0,-12,506.158,24.388398)" fill="#8172b3"/>
<use data-text="r" xlink:href="#font_1_114" transform="matrix(12,0,0,-12,513.514,24.388398)" fill="#8172b3"/>
<use data-text="g" xlink:href="#font_1_103" transform="matrix(12,0,0,-12,518.446,24.388398)" fill="#8172b3"/>
<use data-text="e" xlink:href="#font_1_101" transform="matrix(12,0,0,-12,526.066,24.388398)" fill="#8172b3"/>
<use data-text="r" xlink:href="#font_1_114" transform="matrix(12,0,0,-12,533.446,24.388398)" fill="#8172b3"/>
<use data-text=" " xlink:href="#font_1_32" transform="matrix(12,0,0,-12,538.378,24.388398)" fill="#8172b3"/>
<use data-text="M" xlink:href="#font_1_77" transform="matrix(12,0,0,-12,542.194,24.388398)" fill="#8172b3"/>
<use data-text="o" xlink:href="#font_1_111" transform="matrix(12,0,0,-12,552.55,24.388398)" fill="#8172b3"/>
<use data-text="d" xlink:href="#font_1_100" transform="matrix(12,0,0,-12,559.894,24.388398)" fill="#8172b3"/>
<use data-text="e" xlink:href="#font_1_101" transform="matrix(12,0,0,-12,567.514,24.388398)" fill="#8172b3"/>
<use data-text="l" xlink:href="#font_1_108" transform="matrix(12,0,0,-12,574.894,24.388398)" fill="#8172b3"/>
<use data-text=" " xlink:href="#font_1_32" transform="matrix(12,0,0,-12,578.23,24.388398)" fill="#8172b3"/>
<use data-text="S" xlink:href="#font_1_83" transform="matrix(12,0,0,-12,501.0365,37.83841)" fill="#8172b3"/>
<use data-text="c" xlink:href="#font_1_99" transform="matrix(12,0,0,-12,508.6565,37.83841)" fill="#8172b3"/>
<use data-text="a" xlink:href="#font_1_97" transform="matrix(12,0,0,-12,515.2565,37.83841)" fill="#8172b3"/>
<use data-text="l" xlink:href="#font_1_108" transform="matrix(12,0,0,-12,522.6125,37.83841)" fill="#8172b3"/>
<use data-text="e" xlink:href="#font_1_101" transform="matrix(12,0,0,-12,525.9485,37.83841)" fill="#8172b3"/>
<use data-text=" " xlink:href="#font_1_32" transform="matrix(12,0,0,-12,533.3285,37.83841)" fill="#8172b3"/>
<use data-text="(" xlink:href="#font_1_40" transform="matrix(12,0,0,-12,537.1445,37.83841)" fill="#8172b3"/>
<use data-text="L" xlink:href="#font_1_76" transform="matrix(12,0,0,-12,541.82449,37.83841)" fill="#8172b3"/>
<use data-text="a" xlink:href="#font_1_97" transform="matrix(12,0,0,-12,548.5085,37.83841)" fill="#8172b3"/>
<use data-text="r" xlink:href="#font_1_114" transform="matrix(12,0,0,-12,555.8645,37.83841)" fill="#8172b3"/>
<use data-text="g" xlink:href="#font_1_103" transform="matrix(12,0,0,-12,560.7965,37.83841)" fill="#8172b3"/>
<use data-text="e" xlink:href="#font_1_101" transform="matrix(12,0,0,-12,568.4165,37.83841)" fill="#8172b3"/>
<use data-text=")" xlink:href="#font_1_41" transform="matrix(12,0,0,-12,575.7965,37.83841)" fill="#8172b3"/>
<path transform="matrix(1,0,0,-1,0,481.64967)" stroke-width="1" stroke-linecap="round" stroke-linejoin="round" fill="none" stroke="#000000" d="M615.5934 444.87693C615.5934 406.7261 615.5934 368.5753 615.5934 330.4245"/>
<use data-text="F" xlink:href="#font_1_70" transform="matrix(12,0,0,-12,580.2887,16.325013)" fill="#937860"/>
<use data-text="i" xlink:href="#font_1_105" transform="matrix(12,0,0,-12,587.1887,16.325013)" fill="#937860"/>
<use data-text="n" xlink:href="#font_1_110" transform="matrix(12,0,0,-12,590.5247,16.325013)" fill="#937860"/>
<use data-text="e" xlink:href="#font_1_101" transform="matrix(12,0,0,-12,598.1327,16.325013)" fill="#937860"/>
<use data-text="-" xlink:href="#font_1_45" transform="matrix(12,0,0,-12,605.5127,16.325013)" fill="#937860"/>
<use data-text="T" xlink:href="#font_1_84" transform="matrix(12,0,0,-12,609.84469,16.325013)" fill="#937860"/>
<use data-text="u" xlink:href="#font_1_117" transform="matrix(12,0,0,-12,617.17666,16.325013)" fill="#937860"/>
<use data-text="n" xlink:href="#font_1_110" transform="matrix(12,0,0,-12,624.7846,16.325013)" fill="#937860"/>
<use data-text="i" xlink:href="#font_1_105" transform="matrix(12,0,0,-12,632.3926,16.325013)" fill="#937860"/>
<use data-text="n" xlink:href="#font_1_110" transform="matrix(12,0,0,-12,635.7286,16.325013)" fill="#937860"/>
<use data-text="g" xlink:href="#font_1_103" transform="matrix(12,0,0,-12,643.33657,16.325013)" fill="#937860"/>
<use data-text=" " xlink:href="#font_1_32" transform="matrix(12,0,0,-12,650.95657,16.325013)" fill="#937860"/>
<use data-text="R" xlink:href="#font_1_82" transform="matrix(12,0,0,-12,595.50747,29.774994)" fill="#937860"/>
<use data-text="e" xlink:href="#font_1_101" transform="matrix(12,0,0,-12,603.8475,29.774994)" fill="#937860"/>
<use data-text="c" xlink:href="#font_1_99" transform="matrix(12,0,0,-12,611.2275,29.774994)" fill="#937860"/>
<use data-text="i" xlink:href="#font_1_105" transform="matrix(12,0,0,-12,617.82748,29.774994)" fill="#937860"/>
<use data-text="p" xlink:href="#font_1_112" transform="matrix(12,0,0,-12,621.16348,29.774994)" fill="#937860"/>
<use data-text="e" xlink:href="#font_1_101" transform="matrix(12,0,0,-12,628.78347,29.774994)" fill="#937860"/>
<path transform="matrix(1,0,0,-1,0,481.64967)" stroke-width="4" stroke-linecap="round" stroke-linejoin="round" fill="none" stroke="#dd8452" d="M569.3744 113.09062H591.3744"/>
<use data-text="I" xlink:href="#font_1_73" transform="matrix(11,0,0,-11,600.1744,372.40904)" fill="#262626"/>
<use data-text="n" xlink:href="#font_1_110" transform="matrix(11,0,0,-11,603.4194,372.40904)" fill="#262626"/>
<use data-text="i" xlink:href="#font_1_105" transform="matrix(11,0,0,-11,610.3934,372.40904)" fill="#262626"/>
<use data-text="t" xlink:href="#font_1_116" transform="matrix(11,0,0,-11,613.45138,372.40904)" fill="#262626"/>
<use data-text="i" xlink:href="#font_1_105" transform="matrix(11,0,0,-11,617.76339,372.40904)" fill="#262626"/>
<use data-text="a" xlink:href="#font_1_97" transform="matrix(11,0,0,-11,620.82138,372.40904)" fill="#262626"/>
<use data-text="l" xlink:href="#font_1_108" transform="matrix(11,0,0,-11,627.56436,372.40904)" fill="#262626"/>
<use data-text="i" xlink:href="#font_1_105" transform="matrix(11,0,0,-11,630.6223,372.40904)" fill="#262626"/>
<use data-text="z" xlink:href="#font_1_122" transform="matrix(11,0,0,-11,633.6803,372.40904)" fill="#262626"/>
<use data-text="a" xlink:href="#font_1_97" transform="matrix(11,0,0,-11,639.4553,372.40904)" fill="#262626"/>
<use data-text="t" xlink:href="#font_1_116" transform="matrix(11,0,0,-11,646.1983,372.40904)" fill="#262626"/>
<use data-text="i" xlink:href="#font_1_105" transform="matrix(11,0,0,-11,650.5103,372.40904)" fill="#262626"/>
<use data-text="o" xlink:href="#font_1_111" transform="matrix(11,0,0,-11,653.5683,372.40904)" fill="#262626"/>
<use data-text="n" xlink:href="#font_1_110" transform="matrix(11,0,0,-11,660.3003,372.40904)" fill="#262626"/>
<path transform="matrix(1,0,0,-1,0,481.64967)" stroke-width="4" stroke-linecap="round" stroke-linejoin="round" fill="none" stroke="#55a868" d="M569.3744 96.95H591.3744"/>
<use data-text="T" xlink:href="#font_1_84" transform="matrix(11,0,0,-11,600.1744,388.54966)" fill="#262626"/>
<use data-text="o" xlink:href="#font_1_111" transform="matrix(11,0,0,-11,606.8954,388.54966)" fill="#262626"/>
<use data-text="k" xlink:href="#font_1_107" transform="matrix(11,0,0,-11,613.6274,388.54966)" fill="#262626"/>
<use data-text="e" xlink:href="#font_1_101" transform="matrix(11,0,0,-11,619.9964,388.54966)" fill="#262626"/>
<use data-text="n" xlink:href="#font_1_110" transform="matrix(11,0,0,-11,626.7614,388.54966)" fill="#262626"/>
<use data-text="i" xlink:href="#font_1_105" transform="matrix(11,0,0,-11,633.7354,388.54966)" fill="#262626"/>
<use data-text="z" xlink:href="#font_1_122" transform="matrix(11,0,0,-11,636.7934,388.54966)" fill="#262626"/>
<use data-text="a" xlink:href="#font_1_97" transform="matrix(11,0,0,-11,642.5684,388.54966)" fill="#262626"/>
<use data-text="t" xlink:href="#font_1_116" transform="matrix(11,0,0,-11,649.3114,388.54966)" fill="#262626"/>
<use data-text="i" xlink:href="#font_1_105" transform="matrix(11,0,0,-11,653.6234,388.54966)" fill="#262626"/>
<use data-text="o" xlink:href="#font_1_111" transform="matrix(11,0,0,-11,656.6814,388.54966)" fill="#262626"/>
<use data-text="n" xlink:href="#font_1_110" transform="matrix(11,0,0,-11,663.4134,388.54966)" fill="#262626"/>
<path transform="matrix(1,0,0,-1,0,481.64967)" stroke-width="4" stroke-linecap="round" stroke-linejoin="round" fill="none" stroke="#c44e52" d="M569.3744 80.80937H591.3744"/>
<use data-text="O" xlink:href="#font_1_79" transform="matrix(11,0,0,-11,600.1744,404.69029)" fill="#262626"/>
<use data-text="b" xlink:href="#font_1_98" transform="matrix(11,0,0,-11,608.83139,404.69029)" fill="#262626"/>
<use data-text="j" xlink:href="#font_1_106" transform="matrix(11,0,0,-11,615.81637,404.69029)" fill="#262626"/>
<use data-text="e" xlink:href="#font_1_101" transform="matrix(11,0,0,-11,618.8743,404.69029)" fill="#262626"/>
<use data-text="c" xlink:href="#font_1_99" transform="matrix(11,0,0,-11,625.63937,404.69029)" fill="#262626"/>
<use data-text="t" xlink:href="#font_1_116" transform="matrix(11,0,0,-11,631.68936,404.69029)" fill="#262626"/>
<use data-text="i" xlink:href="#font_1_105" transform="matrix(11,0,0,-11,636.00137,404.69029)" fill="#262626"/>
<use data-text="v" xlink:href="#font_1_118" transform="matrix(11,0,0,-11,639.0593,404.69029)" fill="#262626"/>
<use data-text="e" xlink:href="#font_1_101" transform="matrix(11,0,0,-11,645.57138,404.69029)" fill="#262626"/>
<path transform="matrix(1,0,0,-1,0,481.64967)" stroke-width="4" stroke-linecap="round" stroke-linejoin="round" fill="none" stroke="#8172b3" d="M569.3744 64.66875H591.3744"/>
<use data-text="S" xlink:href="#font_1_83" transform="matrix(11,0,0,-11,600.1744,420.8309)" fill="#262626"/>
<use data-text="c" xlink:href="#font_1_99" transform="matrix(11,0,0,-11,607.15939,420.8309)" fill="#262626"/>
<use data-text="a" xlink:href="#font_1_97" transform="matrix(11,0,0,-11,613.20938,420.8309)" fill="#262626"/>
<use data-text="l" xlink:href="#font_1_108" transform="matrix(11,0,0,-11,619.95236,420.8309)" fill="#262626"/>
<use data-text="e" xlink:href="#font_1_101" transform="matrix(11,0,0,-11,623.0103,420.8309)" fill="#262626"/>
<path transform="matrix(1,0,0,-1,0,481.64967)" stroke-width="4" stroke-linecap="round" stroke-linejoin="round" fill="none" stroke="#937860" d="M569.3744 48.528127H591.3744"/>
<use data-text="F" xlink:href="#font_1_70" transform="matrix(11,0,0,-11,600.1744,436.97154)" fill="#262626"/>
<use data-text="i" xlink:href="#font_1_105" transform="matrix(11,0,0,-11,606.4994,436.97154)" fill="#262626"/>
<use data-text="n" xlink:href="#font_1_110" transform="matrix(11,0,0,-11,609.5574,436.97154)" fill="#262626"/>
<use data-text="e" xlink:href="#font_1_101" transform="matrix(11,0,0,-11,616.5314,436.97154)" fill="#262626"/>
<use data-text="-" xlink:href="#font_1_45" transform="matrix(11,0,0,-11,623.2964,436.97154)" fill="#262626"/>
<use data-text="T" xlink:href="#font_1_84" transform="matrix(11,0,0,-11,627.2674,436.97154)" fill="#262626"/>
<use data-text="u" xlink:href="#font_1_117" transform="matrix(11,0,0,-11,633.9884,436.97154)" fill="#262626"/>
<use data-text="n" xlink:href="#font_1_110" transform="matrix(11,0,0,-11,640.9624,436.97154)" fill="#262626"/>
<use data-text="i" xlink:href="#font_1_105" transform="matrix(11,0,0,-11,647.9364,436.97154)" fill="#262626"/>
<use data-text="n" xlink:href="#font_1_110" transform="matrix(11,0,0,-11,650.9944,436.97154)" fill="#262626"/>
<use data-text="g" xlink:href="#font_1_103" transform="matrix(11,0,0,-11,657.9684,436.97154)" fill="#262626"/>
</g>
</svg>
