<svg xmlns="http://www.w3.org/2000/svg" xmlns:xlink="http://www.w3.org/1999/xlink" xmlns:inkscape="http://www.inkscape.org/namespaces/inkscape" version="1.1" width="338.4" height="338.4" viewBox="0 0 338.4 338.4">
<defs>
<g id="font_1_49">
<path transform="matrix(.001,0,0,.001,0,0)" d="M124 83H285V639L110 604V694L284 729H383V83H544V0H124V83Z"/>
</g>
<g id="font_1_48">
<path transform="matrix(.001,0,0,.001,0,0)" d="M318 664C267 664 229 639 203 589 177 539 165 464 165 364 165 264 177 189 203 139 229 89 267 64 318 64 369 64 407 89 433 139 458 189 471 264 471 364 471 464 458 539 433 589 407 639 369 664 318 664ZM318 742C399 742 461 709 505 645 548 580 570 486 570 364 570 241 548 147 505 83 461 19 399-13 317-13 235-13 173 19 130 83 87 147 66 241 66 364 66 486 87 580 130 645 173 709 236 742 318 742Z"/>
</g>
<g id="font_1_50">
<path transform="matrix(.001,0,0,.001,0,0)" d="M192 83H536V0H73V83C110 121 161 173 226 239 290 304 331 346 348 365 380 400 402 430 414 455 426 479 433 504 433 528 433 566 419 598 392 622 365 646 330 659 286 659 255 659 222 653 188 643 154 632 117 616 78 594V694C118 710 155 722 189 730 223 738 255 742 284 742 359 742 419 723 464 685 509 647 532 597 532 534 532 504 526 475 515 449 504 422 484 390 454 354 446 344 420 317 376 272 332 227 271 164 192 83Z"/>
</g>
<g id="font_1_78">
<path transform="matrix(.001,0,0,.001,0,0)" d="M98 729H231L554 119V729H650V0H517L194 610V0H98V729Z"/>
</g>
<g id="font_1_117">
<path transform="matrix(.001,0,0,.001,0,0)" d="M85 216V547H175V219C175 167 185 129 205 103 225 77 255 64 296 64 344 64 383 79 411 110 439 141 453 183 453 237V547H543V0H453V84C431 50 405 26 377 10 348-5 315-13 277-13 214-13 166 6 134 45 101 83 85 140 85 216ZM311 560V560Z"/>
</g>
<g id="font_1_109">
<path transform="matrix(.001,0,0,.001,0,0)" d="M520 442C542 482 569 511 600 531 631 550 668 560 711 560 767 560 811 540 842 500 873 460 889 403 889 330V0H799V327C799 379 789 418 771 444 752 469 724 482 686 482 639 482 602 466 575 435 548 404 535 362 535 309V0H445V327C445 379 435 418 417 444 398 469 369 482 331 482 285 482 248 466 221 435 194 404 181 362 181 309V0H91V547H181V462C201 495 226 520 255 536 283 552 317 560 357 560 397 560 430 550 458 530 486 510 506 480 520 442Z"/>
</g>
<g id="font_1_98">
<path transform="matrix(.001,0,0,.001,0,0)" d="M487 273C487 339 473 390 446 428 418 466 381 485 334 485 286 485 249 466 222 428 194 390 181 339 181 273 181 207 194 155 222 117 249 79 286 61 334 61 381 61 418 79 446 117 473 155 487 207 487 273ZM181 464C199 496 223 520 252 536 281 552 316 560 356 560 422 560 476 533 518 481 559 428 580 359 580 273 580 187 559 117 518 65 476 13 422-13 356-13 316-13 281-5 252 10 223 25 199 49 181 82V0H91V760H181V464Z"/>
</g>
<g id="font_1_101">
<path transform="matrix(.001,0,0,.001,0,0)" d="M562 296V252H149C153 190 171 142 205 110 238 78 284 62 344 62 378 62 412 66 444 74 476 82 509 95 541 113V28C509 14 476 3 442-3 408-9 373-13 339-13 251-13 182 12 131 62 80 112 55 181 55 268 55 357 79 428 127 481 175 533 241 560 323 560 397 560 455 536 498 489 540 441 562 377 562 296ZM472 322C471 371 457 410 431 440 404 469 368 484 324 484 274 484 234 469 204 441 174 413 156 373 152 322H472Z"/>
</g>
<g id="font_1_114">
<path transform="matrix(.001,0,0,.001,0,0)" d="M411 463C401 469 390 473 378 476 366 478 353 480 339 480 288 480 249 463 222 430 194 397 181 350 181 288V0H91V547H181V462C199 495 224 520 254 536 284 552 321 560 365 560 371 560 378 559 386 559 393 558 401 557 411 555V463Z"/>
</g>
<g id="font_1_32">
</g>
<g id="font_1_111">
<path transform="matrix(.001,0,0,.001,0,0)" d="M306 484C258 484 220 465 192 427 164 389 150 338 150 273 150 207 163 156 191 118 219 80 257 62 306 62 354 62 392 80 420 118 448 156 462 207 462 273 462 337 448 389 420 427 392 465 354 484 306 484ZM306 560C384 560 445 534 490 484 534 433 557 363 557 273 557 183 534 113 490 63 445 12 384-13 306-13 227-13 165 12 121 63 77 113 55 183 55 273 55 363 77 433 121 484 165 534 227 560 306 560Z"/>
</g>
<g id="font_1_102">
<path transform="matrix(.001,0,0,.001,0,0)" d="M371 760V685H285C253 685 230 678 218 665 205 652 199 629 199 595V547H347V477H199V0H109V477H23V547H109V585C109 645 123 690 151 718 179 746 224 760 286 760H371Z"/>
</g>
<g id="font_1_115">
<path transform="matrix(.001,0,0,.001,0,0)" d="M443 531V446C417 458 391 468 364 475 336 481 308 485 279 485 234 485 200 478 178 464 156 450 145 430 145 403 145 382 153 366 169 354 185 342 217 330 265 320L296 313C360 299 405 279 432 255 458 230 472 195 472 151 472 100 452 60 412 31 372 1 316-13 246-13 216-13 186-10 154-5 122 0 89 8 54 20V113C87 95 120 82 152 74 184 65 216 61 248 61 290 61 323 68 346 82 368 96 380 117 380 144 380 168 371 187 355 200 339 213 303 226 247 238L216 245C160 257 119 275 95 299 70 323 58 356 58 399 58 450 76 490 112 518 148 546 200 560 268 560 301 560 332 557 362 552 391 547 418 540 443 531Z"/>
</g>
<g id="font_1_108">
<path transform="matrix(.001,0,0,.001,0,0)" d="M94 760H184V0H94V760Z"/>
</g>
<g id="font_1_99">
<path transform="matrix(.001,0,0,.001,0,0)" d="M488 526V442C462 456 437 466 411 473 385 480 360 484 334 484 276 484 230 465 198 428 166 391 150 339 150 273 150 206 166 154 198 117 230 80 276 62 334 62 360 62 385 65 411 72 437 79 462 90 488 104V21C462 9 436 0 410-5 383-10 354-13 324-13 242-13 176 12 128 64 79 115 55 185 55 273 55 362 79 432 128 483 177 534 244 560 330 560 358 560 385 557 411 551 437 545 463 537 488 526Z"/>
</g>
<g id="font_1_116">
<path transform="matrix(.001,0,0,.001,0,0)" d="M183 702V547H368V477H183V180C183 135 189 106 201 94 213 81 238 75 276 75H368V0H276C206 0 158 13 132 39 106 65 93 112 93 180V477H27V547H93V702H183Z"/>
</g>
<g id="font_1_100">
<path transform="matrix(.001,0,0,.001,0,0)" d="M454 464V760H544V0H454V82C435 49 411 25 382 10 353-5 319-13 279-13 213-13 159 13 117 65 75 117 55 187 55 273 55 359 75 428 117 481 159 533 213 560 279 560 319 560 353 552 382 536 411 520 435 496 454 464ZM148 273C148 207 161 155 188 117 215 79 252 61 300 61 348 61 385 79 413 117 440 155 454 207 454 273 454 339 440 390 413 428 385 466 348 485 300 485 252 485 215 466 188 428 161 390 148 339 148 273Z"/>
</g>
<g id="font_1_97">
<path transform="matrix(.001,0,0,.001,0,0)" d="M343 275C270 275 220 266 192 250 164 233 150 205 150 165 150 133 160 107 181 89 202 70 231 61 267 61 317 61 357 78 387 114 417 149 432 196 432 255V275H343ZM522 312V0H432V83C411 49 385 25 355 10 325-5 287-13 243-13 187-13 142 2 109 33 76 64 60 106 60 159 60 220 80 266 122 298 163 329 224 345 306 345H432V354C432 395 418 427 391 450 364 472 326 484 277 484 245 484 215 480 185 472 155 464 127 453 100 439V522C132 534 164 544 195 550 226 556 256 560 286 560 365 560 424 539 463 498 502 457 522 395 522 312Z"/>
</g>
<g id="font_1_57">
<path transform="matrix(.001,0,0,.001,0,0)" d="M110 15V105C134 93 159 84 185 78 210 72 235 69 260 69 324 69 374 90 408 134 442 178 462 244 468 334 448 306 424 284 396 269 367 254 335 247 300 247 226 247 168 269 126 313 84 357 63 417 63 494 63 568 85 628 129 674 173 719 232 742 306 742 390 742 455 709 499 645 543 580 566 486 566 364 566 248 538 157 484 89 429 21 356-13 264-13 239-13 214-10 189-6 163-2 137 5 110 15ZM306 324C350 324 385 339 411 369 437 399 450 441 450 494 450 546 437 588 411 618 385 648 350 664 306 664 262 664 227 648 201 618 175 588 162 546 162 494 162 441 175 399 201 369 227 339 262 324 306 324Z"/>
</g>
<g id="font_1_53">
<path transform="matrix(.001,0,0,.001,0,0)" d="M108 729H495V646H198V467C212 472 227 476 241 478 255 480 270 482 284 482 365 482 429 459 477 415 525 370 549 310 549 234 549 155 524 94 475 51 426 8 357-13 269-13 238-13 207-10 175-6 143-1 111 6 77 17V116C106 100 136 88 168 80 199 72 232 69 267 69 323 69 368 83 401 113 433 143 450 183 450 234 450 284 433 324 401 354 368 384 323 399 267 399 241 399 214 396 188 390 162 384 135 375 108 363V729Z"/>
</g>
<g id="font_1_65">
<path transform="matrix(.001,0,0,.001,0,0)" d="M342 632 208 269H476L342 632ZM286 729H398L676 0H573L507 187H178L112 0H8L286 729Z"/>
</g>
<g id="font_1_85">
<path transform="matrix(.001,0,0,.001,0,0)" d="M87 729H186V286C186 208 200 151 228 117 256 83 302 66 366 66 429 66 475 83 503 117 531 151 546 208 546 286V729H645V274C645 178 621 107 574 59 527 11 458-13 366-13 274-13 204 11 157 59 110 107 87 178 87 274V729Z"/>
</g>
<g id="font_1_67">
<path transform="matrix(.001,0,0,.001,0,0)" d="M644 673V569C610 599 575 622 537 638 499 653 460 661 418 661 334 661 270 635 226 584 182 533 160 460 160 364 160 268 182 194 226 143 270 92 334 67 418 67 460 67 499 74 537 90 575 105 610 128 644 159V56C609 32 572 15 534 4 496-7 455-13 412-13 302-13 215 20 151 87 87 154 56 246 56 364 56 481 87 573 151 641 215 708 302 742 412 742 456 742 497 736 535 725 573 713 610 696 644 673Z"/>
</g>
<g id="font_1_45">
<path transform="matrix(.001,0,0,.001,0,0)" d="M49 314H312V234H49V314Z"/>
</g>
<g id="font_1_82">
<path transform="matrix(.001,0,0,.001,0,0)" d="M444 342C465 334 486 319 506 296 526 272 546 240 566 199L666 0H560L467 187C443 235 419 268 397 284 374 300 343 308 304 308H197V0H98V729H321C404 729 466 711 507 677 548 642 569 589 569 519 569 473 558 434 537 404 515 374 484 353 444 342ZM197 648V389H321C368 389 404 400 428 422 452 444 465 476 465 519 465 561 452 593 428 615 404 637 368 648 321 648H197Z"/>
</g>
<g id="font_1_79">
<path transform="matrix(.001,0,0,.001,0,0)" d="M394 662C322 662 265 635 223 582 181 528 160 456 160 364 160 272 181 199 223 146 265 92 322 66 394 66 465 66 522 92 564 146 606 199 627 272 627 364 627 456 606 528 564 582 522 635 465 662 394 662ZM394 742C496 742 577 707 639 639 700 571 731 479 731 364 731 248 700 157 639 89 577 21 496-13 394-13 291-13 209 21 148 89 86 157 56 248 56 364 56 479 86 571 148 639 209 707 291 742 394 742Z"/>
</g>
<clipPath id="clip_2">
<path transform="matrix(1,0,0,-1,0,338.4)" d="M44.66 52.87745H327.6V312.6341H44.66Z"/>
</clipPath>
<clipPath id="clip_3">
<path transform="matrix(1,0,0,-1,66.15051,224.75467)" d="M-7.5-7.5H7.5V7.5H-7.5Z"/>
</clipPath>
<clipPath id="clip_4">
<path transform="matrix(1,0,0,-1,66.15051,224.75467)" d="M-7.5-7.5H7.5V7.5H-7.5Z"/>
</clipPath>
<clipPath id="clip_5">
<path transform="matrix(1,0,0,-1,95.31132,193.55313)" d="M-7.5-7.5H7.5V7.5H-7.5Z"/>
</clipPath>
<clipPath id="clip_6">
<path transform="matrix(1,0,0,-1,148.01525,97.36826)" d="M-7.5-7.5H7.5V7.5H-7.5Z"/>
</clipPath>
<clipPath id="clip_7">
<path transform="matrix(1,0,0,-1,199.85172,91.30481)" d="M-7.5-7.5H7.5V7.5H-7.5Z"/>
</clipPath>
<clipPath id="clip_8">
<path transform="matrix(1,0,0,-1,221.34223,91.30481)" d="M-7.5-7.5H7.5V7.5H-7.5Z"/>
</clipPath>
<clipPath id="clip_9">
<path transform="matrix(1,0,0,-1,236.24228,100.88871)" d="M-7.5-7.5H7.5V7.5H-7.5Z"/>
</clipPath>
<clipPath id="clip_10">
<path transform="matrix(1,0,0,-1,248.34511,93.39609)" d="M-7.5-7.5H7.5V7.5H-7.5Z"/>
</clipPath>
<clipPath id="clip_11">
<path transform="matrix(1,0,0,-1,256.83766,84.54474)" d="M-7.5-7.5H7.5V7.5H-7.5Z"/>
</clipPath>
<clipPath id="clip_12">
<path transform="matrix(1,0,0,-1,0,338.4)" d="M44.66 52.87745H327.6V312.6341H44.66Z"/>
</clipPath>
<clipPath id="clip_13">
<path transform="matrix(1,0,0,-1,0,338.4)" d="M44.66 52.87745H327.6V312.6341H44.66Z"/>
</clipPath>
<clipPath id="clip_14">
<path transform="matrix(1,0,0,-1,66.15051,273.71543)" d="M-7.5-7.5H7.5V7.5H-7.5Z"/>
</clipPath>
<clipPath id="clip_15">
<path transform="matrix(1,0,0,-1,124.47212,216.41118)" d="M-7.5-7.5H7.5V7.5H-7.5Z"/>
</clipPath>
<clipPath id="clip_16">
<path transform="matrix(1,0,0,-1,170.6909,154.81638)" d="M-7.5-7.5H7.5V7.5H-7.5Z"/>
</clipPath>
<clipPath id="clip_17">
<path transform="matrix(1,0,0,-1,199.85172,163.34123)" d="M-7.5-7.5H7.5V7.5H-7.5Z"/>
</clipPath>
<clipPath id="clip_18">
<path transform="matrix(1,0,0,-1,225.35195,169.16963)" d="M-7.5-7.5H7.5V7.5H-7.5Z"/>
</clipPath>
<clipPath id="clip_19">
<path transform="matrix(1,0,0,-1,240.45282,150.64928)" d="M-7.5-7.5H7.5V7.5H-7.5Z"/>
</clipPath>
<clipPath id="clip_20">
<path transform="matrix(1,0,0,-1,261.54075,154.81638)" d="M-7.5-7.5H7.5V7.5H-7.5Z"/>
</clipPath>
<clipPath id="clip_21">
<path transform="matrix(1,0,0,-1,270.92845,163.34123)" d="M-7.5-7.5H7.5V7.5H-7.5Z"/>
</clipPath>
<clipPath id="clip_22">
<path transform="matrix(1,0,0,-1,0,338.4)" d="M44.66 52.87745H327.6V312.6341H44.66Z"/>
</clipPath>
<clipPath id="clip_23">
<path transform="matrix(1,0,0,-1,0,338.4)" d="M44.66 52.87745H327.6V312.6341H44.66Z"/>
</clipPath>
<clipPath id="clip_24">
<path transform="matrix(1,0,0,-1,66.15051,272.03514)" d="M-7.5-7.5H7.5V7.5H-7.5Z"/>
</clipPath>
<clipPath id="clip_25">
<path transform="matrix(1,0,0,-1,95.31132,253.68152)" d="M-7.5-7.5H7.5V7.5H-7.5Z"/>
</clipPath>
<clipPath id="clip_26">
<path transform="matrix(1,0,0,-1,180.07859,249.89833)" d="M-7.5-7.5H7.5V7.5H-7.5Z"/>
</clipPath>
<clipPath id="clip_27">
<path transform="matrix(1,0,0,-1,207.81314,246.97663)" d="M-7.5-7.5H7.5V7.5H-7.5Z"/>
</clipPath>
<clipPath id="clip_28">
<path transform="matrix(1,0,0,-1,249.4379,248.2254)" d="M-7.5-7.5H7.5V7.5H-7.5Z"/>
</clipPath>
<clipPath id="clip_29">
<path transform="matrix(1,0,0,-1,282.21434,245.68361)" d="M-7.5-7.5H7.5V7.5H-7.5Z"/>
</clipPath>
<clipPath id="clip_30">
<path transform="matrix(1,0,0,-1,304.53794,243.26064)" d="M-7.5-7.5H7.5V7.5H-7.5Z"/>
</clipPath>
<clipPath id="clip_31">
<path transform="matrix(1,0,0,-1,319.96336,243.63584)" d="M-7.5-7.5H7.5V7.5H-7.5Z"/>
</clipPath>
<clipPath id="clip_32">
<path transform="matrix(1,0,0,-1,0,338.4)" d="M44.66 52.87745H327.6V312.6341H44.66Z"/>
</clipPath>
<clipPath id="clip_33">
<path transform="matrix(1,0,0,-1,0,338.4)" d="M44.66 52.87745H327.6V312.6341H44.66Z"/>
</clipPath>
<clipPath id="clip_34">
<path transform="matrix(1,0,0,-1,66.15051,227.48793)" d="M-7.5-7.5H7.5V7.5H-7.5Z"/>
</clipPath>
<clipPath id="clip_35">
<path transform="matrix(1,0,0,-1,124.47212,169.73447)" d="M-7.5-7.5H7.5V7.5H-7.5Z"/>
</clipPath>
<clipPath id="clip_36">
<path transform="matrix(1,0,0,-1,167.03032,130.32865)" d="M-7.5-7.5H7.5V7.5H-7.5Z"/>
</clipPath>
<clipPath id="clip_37">
<path transform="matrix(1,0,0,-1,194.23403,105.71124)" d="M-7.5-7.5H7.5V7.5H-7.5Z"/>
</clipPath>
<clipPath id="clip_38">
<path transform="matrix(1,0,0,-1,231.563,86.37323)" d="M-7.5-7.5H7.5V7.5H-7.5Z"/>
</clipPath>
<clipPath id="clip_39">
<path transform="matrix(1,0,0,-1,250.50302,82.10724)" d="M-7.5-7.5H7.5V7.5H-7.5Z"/>
</clipPath>
<clipPath id="clip_40">
<path transform="matrix(1,0,0,-1,270.27616,80.70817)" d="M-7.5-7.5H7.5V7.5H-7.5Z"/>
</clipPath>
<clipPath id="clip_41">
<path transform="matrix(1,0,0,-1,283.9119,78.102909)" d="M-7.5-7.5H7.5V7.5H-7.5Z"/>
</clipPath>
<clipPath id="clip_42">
<path transform="matrix(1,0,0,-1,295.29557,86.62986)" d="M-7.5-7.5H7.5V7.5H-7.5Z"/>
</clipPath>
<clipPath id="clip_43">
<path transform="matrix(1,0,0,-1,0,338.4)" d="M44.66 52.87745H327.6V312.6341H44.66Z"/>
</clipPath>
<g id="font_1_105">
<path transform="matrix(.001,0,0,.001,0,0)" d="M94 547H184V0H94V547ZM94 760H184V646H94V760Z"/>
</g>
<g id="font_1_110">
<path transform="matrix(.001,0,0,.001,0,0)" d="M549 330V0H459V327C459 379 448 417 428 443 408 469 378 482 338 482 289 482 251 466 223 435 195 404 181 362 181 309V0H91V547H181V462C202 494 227 519 257 535 286 551 320 560 358 560 420 560 468 540 500 501 532 462 549 405 549 330Z"/>
</g>
<g id="font_1_120">
<path transform="matrix(.001,0,0,.001,0,0)" d="M549 547 351 281 559 0H453L294 215 135 0H29L241 286 47 547H153L298 352 443 547H549Z"/>
</g>
<g id="font_1_95">
<path transform="matrix(.001,0,0,.001,0,0)" d="M510-165V-235H-9V-165H510Z"/>
</g>
<g id="font_1_112">
<path transform="matrix(.001,0,0,.001,0,0)" d="M181 82V-207H91V547H181V464C199 496 223 520 252 536 281 552 316 560 356 560 422 560 476 533 518 481 559 428 580 359 580 273 580 187 559 117 518 65 476 13 422-13 356-13 316-13 281-5 252 10 223 25 199 49 181 82ZM487 273C487 339 473 390 446 428 418 466 381 485 334 485 286 485 249 466 222 428 194 390 181 339 181 273 181 207 194 155 222 117 249 79 286 61 334 61 381 61 418 79 446 117 473 155 487 207 487 273Z"/>
</g>
</defs>
<path transform="matrix(1,0,0,-1,0,338.4)" d="M44.66 52.87745H327.6V312.63414H44.66Z" fill="#ffffff"/>
<path transform="matrix(1,0,0,-1,0,338.4)" d="M66.15051 52.87745V49.37745"/>
<path transform="matrix(1,0,0,-1,0,338.4)" stroke-width=".8" stroke-linecap="butt" stroke-linejoin="round" fill="none" stroke="#000000" d="M66.15051 52.87745V49.37745"/>
<use data-text="1" xlink:href="#font_1_49" transform="matrix(10,0,0,-10,57.15051,300.46788)"/>
<use data-text="0" xlink:href="#font_1_48" transform="matrix(10,0,0,-10,63.512815,300.46788)"/>
<use data-text="0" xlink:href="#font_1_48" transform="matrix(7,0,0,-7,69.970829,296.63975)"/>
<path transform="matrix(1,0,0,-1,0,338.4)" d="M163.02062 52.87745V49.37745"/>
<path transform="matrix(1,0,0,-1,0,338.4)" stroke-width=".8" stroke-linecap="butt" stroke-linejoin="round" fill="none" stroke="#000000" d="M163.02062 52.87745V49.37745"/>
<use data-text="1" xlink:href="#font_1_49" transform="matrix(10,0,0,-10,154.02062,300.38038)"/>
<use data-text="0" xlink:href="#font_1_48" transform="matrix(10,0,0,-10,160.38292,300.38038)"/>
<use data-text="1" xlink:href="#font_1_49" transform="matrix(7,0,0,-7,166.84093,296.55226)"/>
<path transform="matrix(1,0,0,-1,0,338.4)" d="M259.89073 52.87745V49.37745"/>
<path transform="matrix(1,0,0,-1,0,338.4)" stroke-width=".8" stroke-linecap="butt" stroke-linejoin="round" fill="none" stroke="#000000" d="M259.89073 52.87745V49.37745"/>
<use data-text="1" xlink:href="#font_1_49" transform="matrix(10,0,0,-10,250.8907,300.46788)"/>
<use data-text="0" xlink:href="#font_1_48" transform="matrix(10,0,0,-10,257.253,300.46788)"/>
<use data-text="2" xlink:href="#font_1_50" transform="matrix(7,0,0,-7,263.711,296.63975)"/>
<path transform="matrix(1,0,0,-1,0,338.4)" d="M44.66 52.87745V50.87745"/>
<path transform="matrix(1,0,0,-1,0,338.4)" stroke-width=".6" stroke-linecap="butt" stroke-linejoin="round" fill="none" stroke="#000000" d="M44.66 52.87745V50.87745"/>
<path transform="matrix(1,0,0,-1,0,338.4)" d="M51.14514 52.87745V50.87745"/>
<path transform="matrix(1,0,0,-1,0,338.4)" stroke-width=".6" stroke-linecap="butt" stroke-linejoin="round" fill="none" stroke="#000000" d="M51.14514 52.87745V50.87745"/>
<path transform="matrix(1,0,0,-1,0,338.4)" d="M56.76283 52.87745V50.87745"/>
<path transform="matrix(1,0,0,-1,0,338.4)" stroke-width=".6" stroke-linecap="butt" stroke-linejoin="round" fill="none" stroke="#000000" d="M56.76283 52.87745V50.87745"/>
<path transform="matrix(1,0,0,-1,0,338.4)" d="M61.71798 52.87745V50.87745"/>
<path transform="matrix(1,0,0,-1,0,338.4)" stroke-width=".6" stroke-linecap="butt" stroke-linejoin="round" fill="none" stroke="#000000" d="M61.71798 52.87745V50.87745"/>
<path transform="matrix(1,0,0,-1,0,338.4)" d="M95.31132 52.87745V50.87745"/>
<path transform="matrix(1,0,0,-1,0,338.4)" stroke-width=".6" stroke-linecap="butt" stroke-linejoin="round" fill="none" stroke="#000000" d="M95.31132 52.87745V50.87745"/>
<path transform="matrix(1,0,0,-1,0,338.4)" d="M112.36929 52.87745V50.87745"/>
<path transform="matrix(1,0,0,-1,0,338.4)" stroke-width=".6" stroke-linecap="butt" stroke-linejoin="round" fill="none" stroke="#000000" d="M112.36929 52.87745V50.87745"/>
<path transform="matrix(1,0,0,-1,0,338.4)" d="M124.47212 52.87745V50.87745"/>
<path transform="matrix(1,0,0,-1,0,338.4)" stroke-width=".6" stroke-linecap="butt" stroke-linejoin="round" fill="none" stroke="#000000" d="M124.47212 52.87745V50.87745"/>
<path transform="matrix(1,0,0,-1,0,338.4)" d="M133.8598 52.87745V50.87745"/>
<path transform="matrix(1,0,0,-1,0,338.4)" stroke-width=".6" stroke-linecap="butt" stroke-linejoin="round" fill="none" stroke="#000000" d="M133.8598 52.87745V50.87745"/>
<path transform="matrix(1,0,0,-1,0,338.4)" d="M141.5301 52.87745V50.87745"/>
<path transform="matrix(1,0,0,-1,0,338.4)" stroke-width=".6" stroke-linecap="butt" stroke-linejoin="round" fill="none" stroke="#000000" d="M141.5301 52.87745V50.87745"/>
<path transform="matrix(1,0,0,-1,0,338.4)" d="M148.01525 52.87745V50.87745"/>
<path transform="matrix(1,0,0,-1,0,338.4)" stroke-width=".6" stroke-linecap="butt" stroke-linejoin="round" fill="none" stroke="#000000" d="M148.01525 52.87745V50.87745"/>
<path transform="matrix(1,0,0,-1,0,338.4)" d="M153.63292 52.87745V50.87745"/>
<path transform="matrix(1,0,0,-1,0,338.4)" stroke-width=".6" stroke-linecap="butt" stroke-linejoin="round" fill="none" stroke="#000000" d="M153.63292 52.87745V50.87745"/>
<path transform="matrix(1,0,0,-1,0,338.4)" d="M158.58808 52.87745V50.87745"/>
<path transform="matrix(1,0,0,-1,0,338.4)" stroke-width=".6" stroke-linecap="butt" stroke-linejoin="round" fill="none" stroke="#000000" d="M158.58808 52.87745V50.87745"/>
<path transform="matrix(1,0,0,-1,0,338.4)" d="M192.18141 52.87745V50.87745"/>
<path transform="matrix(1,0,0,-1,0,338.4)" stroke-width=".6" stroke-linecap="butt" stroke-linejoin="round" fill="none" stroke="#000000" d="M192.18141 52.87745V50.87745"/>
<path transform="matrix(1,0,0,-1,0,338.4)" d="M209.2394 52.87745V50.87745"/>
<path transform="matrix(1,0,0,-1,0,338.4)" stroke-width=".6" stroke-linecap="butt" stroke-linejoin="round" fill="none" stroke="#000000" d="M209.2394 52.87745V50.87745"/>
<path transform="matrix(1,0,0,-1,0,338.4)" d="M221.34223 52.87745V50.87745"/>
<path transform="matrix(1,0,0,-1,0,338.4)" stroke-width=".6" stroke-linecap="butt" stroke-linejoin="round" fill="none" stroke="#000000" d="M221.34223 52.87745V50.87745"/>
<path transform="matrix(1,0,0,-1,0,338.4)" d="M230.7299 52.87745V50.87745"/>
<path transform="matrix(1,0,0,-1,0,338.4)" stroke-width=".6" stroke-linecap="butt" stroke-linejoin="round" fill="none" stroke="#000000" d="M230.7299 52.87745V50.87745"/>
<path transform="matrix(1,0,0,-1,0,338.4)" d="M238.40019 52.87745V50.87745"/>
<path transform="matrix(1,0,0,-1,0,338.4)" stroke-width=".6" stroke-linecap="butt" stroke-linejoin="round" fill="none" stroke="#000000" d="M238.40019 52.87745V50.87745"/>
<path transform="matrix(1,0,0,-1,0,338.4)" d="M244.88535 52.87745V50.87745"/>
<path transform="matrix(1,0,0,-1,0,338.4)" stroke-width=".6" stroke-linecap="butt" stroke-linejoin="round" fill="none" stroke="#000000" d="M244.88535 52.87745V50.87745"/>
<path transform="matrix(1,0,0,-1,0,338.4)" d="M250.50302 52.87745V50.87745"/>
<path transform="matrix(1,0,0,-1,0,338.4)" stroke-width=".6" stroke-linecap="butt" stroke-linejoin="round" fill="none" stroke="#000000" d="M250.50302 52.87745V50.87745"/>
<path transform="matrix(1,0,0,-1,0,338.4)" d="M255.45818 52.87745V50.87745"/>
<path transform="matrix(1,0,0,-1,0,338.4)" stroke-width=".6" stroke-linecap="butt" stroke-linejoin="round" fill="none" stroke="#000000" d="M255.45818 52.87745V50.87745"/>
<path transform="matrix(1,0,0,-1,0,338.4)" d="M289.0515 52.87745V50.87745"/>
<path transform="matrix(1,0,0,-1,0,338.4)" stroke-width=".6" stroke-linecap="butt" stroke-linejoin="round" fill="none" stroke="#000000" d="M289.0515 52.87745V50.87745"/>
<path transform="matrix(1,0,0,-1,0,338.4)" d="M306.1095 52.87745V50.87745"/>
<path transform="matrix(1,0,0,-1,0,338.4)" stroke-width=".6" stroke-linecap="butt" stroke-linejoin="round" fill="none" stroke="#000000" d="M306.1095 52.87745V50.87745"/>
<path transform="matrix(1,0,0,-1,0,338.4)" d="M318.2123 52.87745V50.87745"/>
<path transform="matrix(1,0,0,-1,0,338.4)" stroke-width=".6" stroke-linecap="butt" stroke-linejoin="round" fill="none" stroke="#000000" d="M318.2123 52.87745V50.87745"/>
<path transform="matrix(1,0,0,-1,0,338.4)" d="M327.6 52.87745V50.87745"/>
<path transform="matrix(1,0,0,-1,0,338.4)" stroke-width=".6" stroke-linecap="butt" stroke-linejoin="round" fill="none" stroke="#000000" d="M327.6 52.87745V50.87745"/>
<use data-text="N" xlink:href="#font_1_78" transform="matrix(10,0,0,-10,114.66906,315.1163)"/>
<use data-text="u" xlink:href="#font_1_117" transform="matrix(10,0,0,-10,122.14906,315.1163)"/>
<use data-text="m" xlink:href="#font_1_109" transform="matrix(10,0,0,-10,128.48906,315.1163)"/>
<use data-text="b" xlink:href="#font_1_98" transform="matrix(10,0,0,-10,138.22907,315.1163)"/>
<use data-text="e" xlink:href="#font_1_101" transform="matrix(10,0,0,-10,144.57906,315.1163)"/>
<use data-text="r" xlink:href="#font_1_114" transform="matrix(10,0,0,-10,150.72907,315.1163)"/>
<use data-text=" " xlink:href="#font_1_32" transform="matrix(10,0,0,-10,154.83907,315.1163)"/>
<use data-text="o" xlink:href="#font_1_111" transform="matrix(10,0,0,-10,158.01906,315.1163)"/>
<use data-text="f" xlink:href="#font_1_102" transform="matrix(10,0,0,-10,164.13907,315.1163)"/>
<use data-text=" " xlink:href="#font_1_32" transform="matrix(10,0,0,-10,167.65906,315.1163)"/>
<use data-text="s" xlink:href="#font_1_115" transform="matrix(10,0,0,-10,170.83907,315.1163)"/>
<use data-text="e" xlink:href="#font_1_101" transform="matrix(10,0,0,-10,176.04906,315.1163)"/>
<use data-text="l" xlink:href="#font_1_108" transform="matrix(10,0,0,-10,182.19907,315.1163)"/>
<use data-text="e" xlink:href="#font_1_101" transform="matrix(10,0,0,-10,184.97907,315.1163)"/>
<use data-text="c" xlink:href="#font_1_99" transform="matrix(10,0,0,-10,191.12906,315.1163)"/>
<use data-text="t" xlink:href="#font_1_116" transform="matrix(10,0,0,-10,196.62906,315.1163)"/>
<use data-text="e" xlink:href="#font_1_101" transform="matrix(10,0,0,-10,200.54906,315.1163)"/>
<use data-text="d" xlink:href="#font_1_100" transform="matrix(10,0,0,-10,206.69907,315.1163)"/>
<use data-text=" " xlink:href="#font_1_32" transform="matrix(10,0,0,-10,213.04906,315.1163)"/>
<use data-text="f" xlink:href="#font_1_102" transform="matrix(10,0,0,-10,216.22907,315.1163)"/>
<use data-text="e" xlink:href="#font_1_101" transform="matrix(10,0,0,-10,219.74906,315.1163)"/>
<use data-text="a" xlink:href="#font_1_97" transform="matrix(10,0,0,-10,225.89905,315.1163)"/>
<use data-text="t" xlink:href="#font_1_116" transform="matrix(10,0,0,-10,232.02906,315.1163)"/>
<use data-text="u" xlink:href="#font_1_117" transform="matrix(10,0,0,-10,235.94905,315.1163)"/>
<use data-text="r" xlink:href="#font_1_114" transform="matrix(10,0,0,-10,242.28907,315.1163)"/>
<use data-text="e" xlink:href="#font_1_101" transform="matrix(10,0,0,-10,246.1803,315.1163)"/>
<use data-text="s" xlink:href="#font_1_115" transform="matrix(10,0,0,-10,252.33029,315.1163)"/>
<path transform="matrix(1,0,0,-1,0,338.4)" d="M44.66 300.827H41.16"/>
<path transform="matrix(1,0,0,-1,0,338.4)" stroke-width=".8" stroke-linecap="butt" stroke-linejoin="round" fill="none" stroke="#000000" d="M44.66 300.827H41.16"/>
<use data-text="9" xlink:href="#font_1_57" transform="matrix(10,0,0,-10,24.94125,41.369874)"/>
<use data-text="9" xlink:href="#font_1_57" transform="matrix(10,0,0,-10,31.30125,41.369874)"/>
<path transform="matrix(1,0,0,-1,0,338.4)" d="M44.66 165.20886H41.16"/>
<path transform="matrix(1,0,0,-1,0,338.4)" stroke-width=".8" stroke-linecap="butt" stroke-linejoin="round" fill="none" stroke="#000000" d="M44.66 165.20886H41.16"/>
<use data-text="9" xlink:href="#font_1_57" transform="matrix(10,0,0,-10,24.94125,176.988)"/>
<use data-text="0" xlink:href="#font_1_48" transform="matrix(10,0,0,-10,31.30125,176.988)"/>
<path transform="matrix(1,0,0,-1,0,338.4)" d="M44.66 70.41585H41.16"/>
<path transform="matrix(1,0,0,-1,0,338.4)" stroke-width=".8" stroke-linecap="butt" stroke-linejoin="round" fill="none" stroke="#000000" d="M44.66 70.41585H41.16"/>
<use data-text="5" xlink:href="#font_1_53" transform="matrix(10,0,0,-10,24.94125,271.781)"/>
<use data-text="0" xlink:href="#font_1_48" transform="matrix(10,0,0,-10,31.30125,271.781)"/>
<path transform="matrix(1,0,0,-1,0,338.4)" d="M44.66 307.03254H42.66"/>
<path transform="matrix(1,0,0,-1,0,338.4)" stroke-width=".6" stroke-linecap="butt" stroke-linejoin="round" fill="none" stroke="#000000" d="M44.66 307.03254H42.66"/>
<path transform="matrix(1,0,0,-1,0,338.4)" d="M44.66 260.00187H42.66"/>
<path transform="matrix(1,0,0,-1,0,338.4)" stroke-width=".6" stroke-linecap="butt" stroke-linejoin="round" fill="none" stroke="#000000" d="M44.66 260.00187H42.66"/>
<path transform="matrix(1,0,0,-1,0,338.4)" d="M44.66 236.1207H42.66"/>
<path transform="matrix(1,0,0,-1,0,338.4)" stroke-width=".6" stroke-linecap="butt" stroke-linejoin="round" fill="none" stroke="#000000" d="M44.66 236.1207H42.66"/>
<path transform="matrix(1,0,0,-1,0,338.4)" d="M44.66 219.17675H42.66"/>
<path transform="matrix(1,0,0,-1,0,338.4)" stroke-width=".6" stroke-linecap="butt" stroke-linejoin="round" fill="none" stroke="#000000" d="M44.66 219.17675H42.66"/>
<path transform="matrix(1,0,0,-1,0,338.4)" d="M44.66 206.03398H42.66"/>
<path transform="matrix(1,0,0,-1,0,338.4)" stroke-width=".6" stroke-linecap="butt" stroke-linejoin="round" fill="none" stroke="#000000" d="M44.66 206.03398H42.66"/>
<path transform="matrix(1,0,0,-1,0,338.4)" d="M44.66 195.29558H42.66"/>
<path transform="matrix(1,0,0,-1,0,338.4)" stroke-width=".6" stroke-linecap="butt" stroke-linejoin="round" fill="none" stroke="#000000" d="M44.66 195.29558H42.66"/>
<path transform="matrix(1,0,0,-1,0,338.4)" d="M44.66 186.21637H42.66"/>
<path transform="matrix(1,0,0,-1,0,338.4)" stroke-width=".6" stroke-linecap="butt" stroke-linejoin="round" fill="none" stroke="#000000" d="M44.66 186.21637H42.66"/>
<path transform="matrix(1,0,0,-1,0,338.4)" d="M44.66 178.35161H42.66"/>
<path transform="matrix(1,0,0,-1,0,338.4)" stroke-width=".6" stroke-linecap="butt" stroke-linejoin="round" fill="none" stroke="#000000" d="M44.66 178.35161H42.66"/>
<path transform="matrix(1,0,0,-1,0,338.4)" d="M44.66 171.4144H42.66"/>
<path transform="matrix(1,0,0,-1,0,338.4)" stroke-width=".6" stroke-linecap="butt" stroke-linejoin="round" fill="none" stroke="#000000" d="M44.66 171.4144H42.66"/>
<path transform="matrix(1,0,0,-1,0,338.4)" d="M44.66 124.38373H42.66"/>
<path transform="matrix(1,0,0,-1,0,338.4)" stroke-width=".6" stroke-linecap="butt" stroke-linejoin="round" fill="none" stroke="#000000" d="M44.66 124.38373H42.66"/>
<path transform="matrix(1,0,0,-1,0,338.4)" d="M44.66 100.50256H42.66"/>
<path transform="matrix(1,0,0,-1,0,338.4)" stroke-width=".6" stroke-linecap="butt" stroke-linejoin="round" fill="none" stroke="#000000" d="M44.66 100.50256H42.66"/>
<path transform="matrix(1,0,0,-1,0,338.4)" d="M44.66 83.5586H42.66"/>
<path transform="matrix(1,0,0,-1,0,338.4)" stroke-width=".6" stroke-linecap="butt" stroke-linejoin="round" fill="none" stroke="#000000" d="M44.66 83.5586H42.66"/>
<path transform="matrix(1,0,0,-1,0,338.4)" d="M44.66 59.677434H42.66"/>
<path transform="matrix(1,0,0,-1,0,338.4)" stroke-width=".6" stroke-linecap="butt" stroke-linejoin="round" fill="none" stroke="#000000" d="M44.66 59.677434H42.66"/>
<use data-text="A" xlink:href="#font_1_65" transform="matrix(0,-10,-10,-0,18.863125,178.93328)"/>
<use data-text="U" xlink:href="#font_1_85" transform="matrix(0,-10,-10,-0,18.863125,172.09328)"/>
<use data-text="C" xlink:href="#font_1_67" transform="matrix(0,-10,-10,-0,18.863125,164.77327)"/>
<use data-text="-" xlink:href="#font_1_45" transform="matrix(0,-10,-10,-0,18.863125,157.79328)"/>
<use data-text="R" xlink:href="#font_1_82" transform="matrix(0,-10,-10,-0,18.863125,154.18328)"/>
<use data-text="O" xlink:href="#font_1_79" transform="matrix(0,-10,-10,-0,18.863125,147.23328)"/>
<use data-text="C" xlink:href="#font_1_67" transform="matrix(0,-10,-10,-0,18.863125,139.36327)"/>
<g clip-path="url(#clip_2)">
<path transform="matrix(1,0,0,-1,0,338.4)" stroke-width="1.5" stroke-linecap="square" stroke-linejoin="round" fill="none" stroke="#ff7f0e" d="M66.15051 113.64532V113.64532L95.31132 144.84687 148.01525 241.03173 199.85172 247.09519H221.34223L236.24228 237.51128 248.34511 245.00389 256.83766 253.85526"/>
<g clip-path="url(#clip_3)">
<path transform="matrix(1,0,0,-1,66.15051,224.75467)" d="M0-2.5C.663008-2.5 1.29895-2.236584 1.767767-1.767767 2.236584-1.29895 2.5-.663008 2.5 0 2.5 .663008 2.236584 1.29895 1.767767 1.767767 1.29895 2.236584 .663008 2.5 0 2.5-.663008 2.5-1.29895 2.236584-1.767767 1.767767-2.236584 1.29895-2.5 .663008-2.5 0-2.5-.663008-2.236584-1.29895-1.767767-1.767767-1.29895-2.236584-.663008-2.5 0-2.5Z" fill="#ff7f0e"/>
<path transform="matrix(1,0,0,-1,66.15051,224.75467)" stroke-width="1" stroke-linecap="butt" stroke-linejoin="round" fill="none" stroke="#ff7f0e" d="M0-2.5C.663008-2.5 1.29895-2.236584 1.767767-1.767767 2.236584-1.29895 2.5-.663008 2.5 0 2.5 .663008 2.236584 1.29895 1.767767 1.767767 1.29895 2.236584 .663008 2.5 0 2.5-.663008 2.5-1.29895 2.236584-1.767767 1.767767-2.236584 1.29895-2.5 .663008-2.5 0-2.5-.663008-2.236584-1.29895-1.767767-1.767767-1.29895-2.236584-.663008-2.5 0-2.5Z"/>
</g>
<g clip-path="url(#clip_4)">
<path transform="matrix(1,0,0,-1,66.15051,224.75467)" d="M0-2.5C.663008-2.5 1.29895-2.236584 1.767767-1.767767 2.236584-1.29895 2.5-.663008 2.5 0 2.5 .663008 2.236584 1.29895 1.767767 1.767767 1.29895 2.236584 .663008 2.5 0 2.5-.663008 2.5-1.29895 2.236584-1.767767 1.767767-2.236584 1.29895-2.5 .663008-2.5 0-2.5-.663008-2.236584-1.29895-1.767767-1.767767-1.29895-2.236584-.663008-2.5 0-2.5Z" fill="#ff7f0e"/>
<path transform="matrix(1,0,0,-1,66.15051,224.75467)" stroke-width="1" stroke-linecap="butt" stroke-linejoin="round" fill="none" stroke="#ff7f0e" d="M0-2.5C.663008-2.5 1.29895-2.236584 1.767767-1.767767 2.236584-1.29895 2.5-.663008 2.5 0 2.5 .663008 2.236584 1.29895 1.767767 1.767767 1.29895 2.236584 .663008 2.5 0 2.5-.663008 2.5-1.29895 2.236584-1.767767 1.767767-2.236584 1.29895-2.5 .663008-2.5 0-2.5-.663008-2.236584-1.29895-1.767767-1.767767-1.29895-2.236584-.663008-2.5 0-2.5Z"/>
</g>
<g clip-path="url(#clip_5)">
<path transform="matrix(1,0,0,-1,95.31132,193.55313)" d="M0-2.5C.663008-2.5 1.29895-2.236584 1.767767-1.767767 2.236584-1.29895 2.5-.663008 2.5 0 2.5 .663008 2.236584 1.29895 1.767767 1.767767 1.29895 2.236584 .663008 2.5 0 2.5-.663008 2.5-1.29895 2.236584-1.767767 1.767767-2.236584 1.29895-2.5 .663008-2.5 0-2.5-.663008-2.236584-1.29895-1.767767-1.767767-1.29895-2.236584-.663008-2.5 0-2.5Z" fill="#ff7f0e"/>
<path transform="matrix(1,0,0,-1,95.31132,193.55313)" stroke-width="1" stroke-linecap="butt" stroke-linejoin="round" fill="none" stroke="#ff7f0e" d="M0-2.5C.663008-2.5 1.29895-2.236584 1.767767-1.767767 2.236584-1.29895 2.5-.663008 2.5 0 2.5 .663008 2.236584 1.29895 1.767767 1.767767 1.29895 2.236584 .663008 2.5 0 2.5-.663008 2.5-1.29895 2.236584-1.767767 1.767767-2.236584 1.29895-2.5 .663008-2.5 0-2.5-.663008-2.236584-1.29895-1.767767-1.767767-1.29895-2.236584-.663008-2.5 0-2.5Z"/>
</g>
<g clip-path="url(#clip_6)">
<path transform="matrix(1,0,0,-1,148.01525,97.36826)" d="M0-2.5C.663008-2.5 1.29895-2.236584 1.767767-1.767767 2.236584-1.29895 2.5-.663008 2.5 0 2.5 .663008 2.236584 1.29895 1.767767 1.767767 1.29895 2.236584 .663008 2.5 0 2.5-.663008 2.5-1.29895 2.236584-1.767767 1.767767-2.236584 1.29895-2.5 .663008-2.5 0-2.5-.663008-2.236584-1.29895-1.767767-1.767767-1.29895-2.236584-.663008-2.5 0-2.5Z" fill="#ff7f0e"/>
<path transform="matrix(1,0,0,-1,148.01525,97.36826)" stroke-width="1" stroke-linecap="butt" stroke-linejoin="round" fill="none" stroke="#ff7f0e" d="M0-2.5C.663008-2.5 1.29895-2.236584 1.767767-1.767767 2.236584-1.29895 2.5-.663008 2.5 0 2.5 .663008 2.236584 1.29895 1.767767 1.767767 1.29895 2.236584 .663008 2.5 0 2.5-.663008 2.5-1.29895 2.236584-1.767767 1.767767-2.236584 1.29895-2.5 .663008-2.5 0-2.5-.663008-2.236584-1.29895-1.767767-1.767767-1.29895-2.236584-.663008-2.5 0-2.5Z"/>
</g>
<g clip-path="url(#clip_7)">
<path transform="matrix(1,0,0,-1,199.85172,91.30481)" d="M0-2.5C.663008-2.5 1.29895-2.236584 1.767767-1.767767 2.236584-1.29895 2.5-.663008 2.5 0 2.5 .663008 2.236584 1.29895 1.767767 1.767767 1.29895 2.236584 .663008 2.5 0 2.5-.663008 2.5-1.29895 2.236584-1.767767 1.767767-2.236584 1.29895-2.5 .663008-2.5 0-2.5-.663008-2.236584-1.29895-1.767767-1.767767-1.29895-2.236584-.663008-2.5 0-2.5Z" fill="#ff7f0e"/>
<path transform="matrix(1,0,0,-1,199.85172,91.30481)" stroke-width="1" stroke-linecap="butt" stroke-linejoin="round" fill="none" stroke="#ff7f0e" d="M0-2.5C.663008-2.5 1.29895-2.236584 1.767767-1.767767 2.236584-1.29895 2.5-.663008 2.5 0 2.5 .663008 2.236584 1.29895 1.767767 1.767767 1.29895 2.236584 .663008 2.5 0 2.5-.663008 2.5-1.29895 2.236584-1.767767 1.767767-2.236584 1.29895-2.5 .663008-2.5 0-2.5-.663008-2.236584-1.29895-1.767767-1.767767-1.29895-2.236584-.663008-2.5 0-2.5Z"/>
</g>
<g clip-path="url(#clip_8)">
<path transform="matrix(1,0,0,-1,221.34223,91.30481)" d="M0-2.5C.663008-2.5 1.29895-2.236584 1.767767-1.767767 2.236584-1.29895 2.5-.663008 2.5 0 2.5 .663008 2.236584 1.29895 1.767767 1.767767 1.29895 2.236584 .663008 2.5 0 2.5-.663008 2.5-1.29895 2.236584-1.767767 1.767767-2.236584 1.29895-2.5 .663008-2.5 0-2.5-.663008-2.236584-1.29895-1.767767-1.767767-1.29895-2.236584-.663008-2.5 0-2.5Z" fill="#ff7f0e"/>
<path transform="matrix(1,0,0,-1,221.34223,91.30481)" stroke-width="1" stroke-linecap="butt" stroke-linejoin="round" fill="none" stroke="#ff7f0e" d="M0-2.5C.663008-2.5 1.29895-2.236584 1.767767-1.767767 2.236584-1.29895 2.5-.663008 2.5 0 2.5 .663008 2.236584 1.29895 1.767767 1.767767 1.29895 2.236584 .663008 2.5 0 2.5-.663008 2.5-1.29895 2.236584-1.767767 1.767767-2.236584 1.29895-2.5 .663008-2.5 0-2.5-.663008-2.236584-1.29895-1.767767-1.767767-1.29895-2.236584-.663008-2.5 0-2.5Z"/>
</g>
<g clip-path="url(#clip_9)">
<path transform="matrix(1,0,0,-1,236.24228,100.88871)" d="M0-2.5C.663008-2.5 1.29895-2.236584 1.767767-1.767767 2.236584-1.29895 2.5-.663008 2.5 0 2.5 .663008 2.236584 1.29895 1.767767 1.767767 1.29895 2.236584 .663008 2.5 0 2.5-.663008 2.5-1.29895 2.236584-1.767767 1.767767-2.236584 1.29895-2.5 .663008-2.5 0-2.5-.663008-2.236584-1.29895-1.767767-1.767767-1.29895-2.236584-.663008-2.5 0-2.5Z" fill="#ff7f0e"/>
<path transform="matrix(1,0,0,-1,236.24228,100.88871)" stroke-width="1" stroke-linecap="butt" stroke-linejoin="round" fill="none" stroke="#ff7f0e" d="M0-2.5C.663008-2.5 1.29895-2.236584 1.767767-1.767767 2.236584-1.29895 2.5-.663008 2.5 0 2.5 .663008 2.236584 1.29895 1.767767 1.767767 1.29895 2.236584 .663008 2.5 0 2.5-.663008 2.5-1.29895 2.236584-1.767767 1.767767-2.236584 1.29895-2.5 .663008-2.5 0-2.5-.663008-2.236584-1.29895-1.767767-1.767767-1.29895-2.236584-.663008-2.5 0-2.5Z"/>
</g>
<g clip-path="url(#clip_10)">
<path transform="matrix(1,0,0,-1,248.34511,93.39609)" d="M0-2.5C.663008-2.5 1.29895-2.236584 1.767767-1.767767 2.236584-1.29895 2.5-.663008 2.5 0 2.5 .663008 2.236584 1.29895 1.767767 1.767767 1.29895 2.236584 .663008 2.5 0 2.5-.663008 2.5-1.29895 2.236584-1.767767 1.767767-2.236584 1.29895-2.5 .663008-2.5 0-2.5-.663008-2.236584-1.29895-1.767767-1.767767-1.29895-2.236584-.663008-2.5 0-2.5Z" fill="#ff7f0e"/>
<path transform="matrix(1,0,0,-1,248.34511,93.39609)" stroke-width="1" stroke-linecap="butt" stroke-linejoin="round" fill="none" stroke="#ff7f0e" d="M0-2.5C.663008-2.5 1.29895-2.236584 1.767767-1.767767 2.236584-1.29895 2.5-.663008 2.5 0 2.5 .663008 2.236584 1.29895 1.767767 1.767767 1.29895 2.236584 .663008 2.5 0 2.5-.663008 2.5-1.29895 2.236584-1.767767 1.767767-2.236584 1.29895-2.5 .663008-2.5 0-2.5-.663008-2.236584-1.29895-1.767767-1.767767-1.29895-2.236584-.663008-2.5 0-2.5Z"/>
</g>
<g clip-path="url(#clip_11)">
<path transform="matrix(1,0,0,-1,256.83766,84.54474)" d="M0-2.5C.663008-2.5 1.29895-2.236584 1.767767-1.767767 2.236584-1.29895 2.5-.663008 2.5 0 2.5 .663008 2.236584 1.29895 1.767767 1.767767 1.29895 2.236584 .663008 2.5 0 2.5-.663008 2.5-1.29895 2.236584-1.767767 1.767767-2.236584 1.29895-2.5 .663008-2.5 0-2.5-.663008-2.236584-1.29895-1.767767-1.767767-1.29895-2.236584-.663008-2.5 0-2.5Z" fill="#ff7f0e"/>
<path transform="matrix(1,0,0,-1,256.83766,84.54474)" stroke-width="1" stroke-linecap="butt" stroke-linejoin="round" fill="none" stroke="#ff7f0e" d="M0-2.5C.663008-2.5 1.29895-2.236584 1.767767-1.767767 2.236584-1.29895 2.5-.663008 2.5 0 2.5 .663008 2.236584 1.29895 1.767767 1.767767 1.29895 2.236584 .663008 2.5 0 2.5-.663008 2.5-1.29895 2.236584-1.767767 1.767767-2.236584 1.29895-2.5 .663008-2.5 0-2.5-.663008-2.236584-1.29895-1.767767-1.767767-1.29895-2.236584-.663008-2.5 0-2.5Z"/>
</g>
</g>
<g clip-path="url(#clip_12)">
<path transform="matrix(1,0,0,-1,0,338.4)" stroke-width="1.5" stroke-linecap="butt" stroke-dasharray="5.55,2.4" stroke-linejoin="round" fill="none" stroke="#ff7f0e" d="M-1 281.00938H329.0066"/>
</g>
<g clip-path="url(#clip_13)">
<path transform="matrix(1,0,0,-1,0,338.4)" stroke-width="1.5" stroke-linecap="square" stroke-linejoin="round" fill="none" stroke="#2ca02c" d="M-1 64.688549 66.15051 64.68457 124.47212 121.988819 170.6909 183.58362 199.85172 175.05876 225.35193 169.23036 240.4528 187.75072 261.54075 183.58362 270.9284 175.05876"/>
<g clip-path="url(#clip_14)">
<path transform="matrix(1,0,0,-1,66.15051,273.71543)" d="M0-2.5C.663008-2.5 1.29895-2.236584 1.767767-1.767767 2.236584-1.29895 2.5-.663008 2.5 0 2.5 .663008 2.236584 1.29895 1.767767 1.767767 1.29895 2.236584 .663008 2.5 0 2.5-.663008 2.5-1.29895 2.236584-1.767767 1.767767-2.236584 1.29895-2.5 .663008-2.5 0-2.5-.663008-2.236584-1.29895-1.767767-1.767767-1.29895-2.236584-.663008-2.5 0-2.5Z" fill="#2ca02c"/>
<path transform="matrix(1,0,0,-1,66.15051,273.71543)" stroke-width="1" stroke-linecap="butt" stroke-linejoin="round" fill="none" stroke="#2ca02c" d="M0-2.5C.663008-2.5 1.29895-2.236584 1.767767-1.767767 2.236584-1.29895 2.5-.663008 2.5 0 2.5 .663008 2.236584 1.29895 1.767767 1.767767 1.29895 2.236584 .663008 2.5 0 2.5-.663008 2.5-1.29895 2.236584-1.767767 1.767767-2.236584 1.29895-2.5 .663008-2.5 0-2.5-.663008-2.236584-1.29895-1.767767-1.767767-1.29895-2.236584-.663008-2.5 0-2.5Z"/>
</g>
<g clip-path="url(#clip_15)">
<path transform="matrix(1,0,0,-1,124.47212,216.41118)" d="M0-2.5C.663008-2.5 1.29895-2.236584 1.767767-1.767767 2.236584-1.29895 2.5-.663008 2.5 0 2.5 .663008 2.236584 1.29895 1.767767 1.767767 1.29895 2.236584 .663008 2.5 0 2.5-.663008 2.5-1.29895 2.236584-1.767767 1.767767-2.236584 1.29895-2.5 .663008-2.5 0-2.5-.663008-2.236584-1.29895-1.767767-1.767767-1.29895-2.236584-.663008-2.5 0-2.5Z" fill="#2ca02c"/>
<path transform="matrix(1,0,0,-1,124.47212,216.41118)" stroke-width="1" stroke-linecap="butt" stroke-linejoin="round" fill="none" stroke="#2ca02c" d="M0-2.5C.663008-2.5 1.29895-2.236584 1.767767-1.767767 2.236584-1.29895 2.5-.663008 2.5 0 2.5 .663008 2.236584 1.29895 1.767767 1.767767 1.29895 2.236584 .663008 2.5 0 2.5-.663008 2.5-1.29895 2.236584-1.767767 1.767767-2.236584 1.29895-2.5 .663008-2.5 0-2.5-.663008-2.236584-1.29895-1.767767-1.767767-1.29895-2.236584-.663008-2.5 0-2.5Z"/>
</g>
<g clip-path="url(#clip_16)">
<path transform="matrix(1,0,0,-1,170.6909,154.81638)" d="M0-2.5C.663008-2.5 1.29895-2.236584 1.767767-1.767767 2.236584-1.29895 2.5-.663008 2.5 0 2.5 .663008 2.236584 1.29895 1.767767 1.767767 1.29895 2.236584 .663008 2.5 0 2.5-.663008 2.5-1.29895 2.236584-1.767767 1.767767-2.236584 1.29895-2.5 .663008-2.5 0-2.5-.663008-2.236584-1.29895-1.767767-1.767767-1.29895-2.236584-.663008-2.5 0-2.5Z" fill="#2ca02c"/>
<path transform="matrix(1,0,0,-1,170.6909,154.81638)" stroke-width="1" stroke-linecap="butt" stroke-linejoin="round" fill="none" stroke="#2ca02c" d="M0-2.5C.663008-2.5 1.29895-2.236584 1.767767-1.767767 2.236584-1.29895 2.5-.663008 2.5 0 2.5 .663008 2.236584 1.29895 1.767767 1.767767 1.29895 2.236584 .663008 2.5 0 2.5-.663008 2.5-1.29895 2.236584-1.767767 1.767767-2.236584 1.29895-2.5 .663008-2.5 0-2.5-.663008-2.236584-1.29895-1.767767-1.767767-1.29895-2.236584-.663008-2.5 0-2.5Z"/>
</g>
<g clip-path="url(#clip_17)">
<path transform="matrix(1,0,0,-1,199.85172,163.34123)" d="M0-2.5C.663008-2.5 1.29895-2.236584 1.767767-1.767767 2.236584-1.29895 2.5-.663008 2.5 0 2.5 .663008 2.236584 1.29895 1.767767 1.767767 1.29895 2.236584 .663008 2.5 0 2.5-.663008 2.5-1.29895 2.236584-1.767767 1.767767-2.236584 1.29895-2.5 .663008-2.5 0-2.5-.663008-2.236584-1.29895-1.767767-1.767767-1.29895-2.236584-.663008-2.5 0-2.5Z" fill="#2ca02c"/>
<path transform="matrix(1,0,0,-1,199.85172,163.34123)" stroke-width="1" stroke-linecap="butt" stroke-linejoin="round" fill="none" stroke="#2ca02c" d="M0-2.5C.663008-2.5 1.29895-2.236584 1.767767-1.767767 2.236584-1.29895 2.5-.663008 2.5 0 2.5 .663008 2.236584 1.29895 1.767767 1.767767 1.29895 2.236584 .663008 2.5 0 2.5-.663008 2.5-1.29895 2.236584-1.767767 1.767767-2.236584 1.29895-2.5 .663008-2.5 0-2.5-.663008-2.236584-1.29895-1.767767-1.767767-1.29895-2.236584-.663008-2.5 0-2.5Z"/>
</g>
<g clip-path="url(#clip_18)">
<path transform="matrix(1,0,0,-1,225.35195,169.16963)" d="M0-2.5C.663008-2.5 1.29895-2.236584 1.767767-1.767767 2.236584-1.29895 2.5-.663008 2.5 0 2.5 .663008 2.236584 1.29895 1.767767 1.767767 1.29895 2.236584 .663008 2.5 0 2.5-.663008 2.5-1.29895 2.236584-1.767767 1.767767-2.236584 1.29895-2.5 .663008-2.5 0-2.5-.663008-2.236584-1.29895-1.767767-1.767767-1.29895-2.236584-.663008-2.5 0-2.5Z" fill="#2ca02c"/>
<path transform="matrix(1,0,0,-1,225.35195,169.16963)" stroke-width="1" stroke-linecap="butt" stroke-linejoin="round" fill="none" stroke="#2ca02c" d="M0-2.5C.663008-2.5 1.29895-2.236584 1.767767-1.767767 2.236584-1.29895 2.5-.663008 2.5 0 2.5 .663008 2.236584 1.29895 1.767767 1.767767 1.29895 2.236584 .663008 2.5 0 2.5-.663008 2.5-1.29895 2.236584-1.767767 1.767767-2.236584 1.29895-2.5 .663008-2.5 0-2.5-.663008-2.236584-1.29895-1.767767-1.767767-1.29895-2.236584-.663008-2.5 0-2.5Z"/>
</g>
<g clip-path="url(#clip_19)">
<path transform="matrix(1,0,0,-1,240.45282,150.64928)" d="M0-2.5C.663008-2.5 1.29895-2.236584 1.767767-1.767767 2.236584-1.29895 2.5-.663008 2.5 0 2.5 .663008 2.236584 1.29895 1.767767 1.767767 1.29895 2.236584 .663008 2.5 0 2.5-.663008 2.5-1.29895 2.236584-1.767767 1.767767-2.236584 1.29895-2.5 .663008-2.5 0-2.5-.663008-2.236584-1.29895-1.767767-1.767767-1.29895-2.236584-.663008-2.5 0-2.5Z" fill="#2ca02c"/>
<path transform="matrix(1,0,0,-1,240.45282,150.64928)" stroke-width="1" stroke-linecap="butt" stroke-linejoin="round" fill="none" stroke="#2ca02c" d="M0-2.5C.663008-2.5 1.29895-2.236584 1.767767-1.767767 2.236584-1.29895 2.5-.663008 2.5 0 2.5 .663008 2.236584 1.29895 1.767767 1.767767 1.29895 2.236584 .663008 2.5 0 2.5-.663008 2.5-1.29895 2.236584-1.767767 1.767767-2.236584 1.29895-2.5 .663008-2.5 0-2.5-.663008-2.236584-1.29895-1.767767-1.767767-1.29895-2.236584-.663008-2.5 0-2.5Z"/>
</g>
<g clip-path="url(#clip_20)">
<path transform="matrix(1,0,0,-1,261.54075,154.81638)" d="M0-2.5C.663008-2.5 1.29895-2.236584 1.767767-1.767767 2.236584-1.29895 2.5-.663008 2.5 0 2.5 .663008 2.236584 1.29895 1.767767 1.767767 1.29895 2.236584 .663008 2.5 0 2.5-.663008 2.5-1.29895 2.236584-1.767767 1.767767-2.236584 1.29895-2.5 .663008-2.5 0-2.5-.663008-2.236584-1.29895-1.767767-1.767767-1.29895-2.236584-.663008-2.5 0-2.5Z" fill="#2ca02c"/>
<path transform="matrix(1,0,0,-1,261.54075,154.81638)" stroke-width="1" stroke-linecap="butt" stroke-linejoin="round" fill="none" stroke="#2ca02c" d="M0-2.5C.663008-2.5 1.29895-2.236584 1.767767-1.767767 2.236584-1.29895 2.5-.663008 2.5 0 2.5 .663008 2.236584 1.29895 1.767767 1.767767 1.29895 2.236584 .663008 2.5 0 2.5-.663008 2.5-1.29895 2.236584-1.767767 1.767767-2.236584 1.29895-2.5 .663008-2.5 0-2.5-.663008-2.236584-1.29895-1.767767-1.767767-1.29895-2.236584-.663008-2.5 0-2.5Z"/>
</g>
<g clip-path="url(#clip_21)">
<path transform="matrix(1,0,0,-1,270.92845,163.34123)" d="M0-2.5C.663008-2.5 1.29895-2.236584 1.767767-1.767767 2.236584-1.29895 2.5-.663008 2.5 0 2.5 .663008 2.236584 1.29895 1.767767 1.767767 1.29895 2.236584 .663008 2.5 0 2.5-.663008 2.5-1.29895 2.236584-1.767767 1.767767-2.236584 1.29895-2.5 .663008-2.5 0-2.5-.663008-2.236584-1.29895-1.767767-1.767767-1.29895-2.236584-.663008-2.5 0-2.5Z" fill="#2ca02c"/>
<path transform="matrix(1,0,0,-1,270.92845,163.34123)" stroke-width="1" stroke-linecap="butt" stroke-linejoin="round" fill="none" stroke="#2ca02c" d="M0-2.5C.663008-2.5 1.29895-2.236584 1.767767-1.767767 2.236584-1.29895 2.5-.663008 2.5 0 2.5 .663008 2.236584 1.29895 1.767767 1.767767 1.29895 2.236584 .663008 2.5 0 2.5-.663008 2.5-1.29895 2.236584-1.767767 1.767767-2.236584 1.29895-2.5 .663008-2.5 0-2.5-.663008-2.236584-1.29895-1.767767-1.767767-1.29895-2.236584-.663008-2.5 0-2.5Z"/>
</g>
</g>
<g clip-path="url(#clip_22)">
<path transform="matrix(1,0,0,-1,0,338.4)" stroke-width="1.5" stroke-linecap="butt" stroke-dasharray="5.55,2.4" stroke-linejoin="round" fill="none" stroke="#2ca02c" d="M-1 223.76854H329.0066"/>
</g>
<g clip-path="url(#clip_23)">
<path transform="matrix(1,0,0,-1,0,338.4)" stroke-width="1.5" stroke-linecap="square" stroke-linejoin="round" fill="none" stroke="#d62728" d="M-1 66.36767 66.15051 66.36486 95.31132 84.71847 180.07859 88.50165 207.81314 91.42336 249.4379 90.17459 282.21434 92.716388 304.53794 95.139369 319.96336 94.76416"/>
<g clip-path="url(#clip_24)">
<path transform="matrix(1,0,0,-1,66.15051,272.03514)" d="M0-2.5C.663008-2.5 1.29895-2.236584 1.767767-1.767767 2.236584-1.29895 2.5-.663008 2.5 0 2.5 .663008 2.236584 1.29895 1.767767 1.767767 1.29895 2.236584 .663008 2.5 0 2.5-.663008 2.5-1.29895 2.236584-1.767767 1.767767-2.236584 1.29895-2.5 .663008-2.5 0-2.5-.663008-2.236584-1.29895-1.767767-1.767767-1.29895-2.236584-.663008-2.5 0-2.5Z" fill="#d62728"/>
<path transform="matrix(1,0,0,-1,66.15051,272.03514)" stroke-width="1" stroke-linecap="butt" stroke-linejoin="round" fill="none" stroke="#d62728" d="M0-2.5C.663008-2.5 1.29895-2.236584 1.767767-1.767767 2.236584-1.29895 2.5-.663008 2.5 0 2.5 .663008 2.236584 1.29895 1.767767 1.767767 1.29895 2.236584 .663008 2.5 0 2.5-.663008 2.5-1.29895 2.236584-1.767767 1.767767-2.236584 1.29895-2.5 .663008-2.5 0-2.5-.663008-2.236584-1.29895-1.767767-1.767767-1.29895-2.236584-.663008-2.5 0-2.5Z"/>
</g>
<g clip-path="url(#clip_25)">
<path transform="matrix(1,0,0,-1,95.31132,253.68152)" d="M0-2.5C.663008-2.5 1.29895-2.236584 1.767767-1.767767 2.236584-1.29895 2.5-.663008 2.5 0 2.5 .663008 2.236584 1.29895 1.767767 1.767767 1.29895 2.236584 .663008 2.5 0 2.5-.663008 2.5-1.29895 2.236584-1.767767 1.767767-2.236584 1.29895-2.5 .663008-2.5 0-2.5-.663008-2.236584-1.29895-1.767767-1.767767-1.29895-2.236584-.663008-2.5 0-2.5Z" fill="#d62728"/>
<path transform="matrix(1,0,0,-1,95.31132,253.68152)" stroke-width="1" stroke-linecap="butt" stroke-linejoin="round" fill="none" stroke="#d62728" d="M0-2.5C.663008-2.5 1.29895-2.236584 1.767767-1.767767 2.236584-1.29895 2.5-.663008 2.5 0 2.5 .663008 2.236584 1.29895 1.767767 1.767767 1.29895 2.236584 .663008 2.5 0 2.5-.663008 2.5-1.29895 2.236584-1.767767 1.767767-2.236584 1.29895-2.5 .663008-2.5 0-2.5-.663008-2.236584-1.29895-1.767767-1.767767-1.29895-2.236584-.663008-2.5 0-2.5Z"/>
</g>
<g clip-path="url(#clip_26)">
<path transform="matrix(1,0,0,-1,180.07859,249.89833)" d="M0-2.5C.663008-2.5 1.29895-2.236584 1.767767-1.767767 2.236584-1.29895 2.5-.663008 2.5 0 2.5 .663008 2.236584 1.29895 1.767767 1.767767 1.29895 2.236584 .663008 2.5 0 2.5-.663008 2.5-1.29895 2.236584-1.767767 1.767767-2.236584 1.29895-2.5 .663008-2.5 0-2.5-.663008-2.236584-1.29895-1.767767-1.767767-1.29895-2.236584-.663008-2.5 0-2.5Z" fill="#d62728"/>
<path transform="matrix(1,0,0,-1,180.07859,249.89833)" stroke-width="1" stroke-linecap="butt" stroke-linejoin="round" fill="none" stroke="#d62728" d="M0-2.5C.663008-2.5 1.29895-2.236584 1.767767-1.767767 2.236584-1.29895 2.5-.663008 2.5 0 2.5 .663008 2.236584 1.29895 1.767767 1.767767 1.29895 2.236584 .663008 2.5 0 2.5-.663008 2.5-1.29895 2.236584-1.767767 1.767767-2.236584 1.29895-2.5 .663008-2.5 0-2.5-.663008-2.236584-1.29895-1.767767-1.767767-1.29895-2.236584-.663008-2.5 0-2.5Z"/>
</g>
<g clip-path="url(#clip_27)">
<path transform="matrix(1,0,0,-1,207.81314,246.97663)" d="M0-2.5C.663008-2.5 1.29895-2.236584 1.767767-1.767767 2.236584-1.29895 2.5-.663008 2.5 0 2.5 .663008 2.236584 1.29895 1.767767 1.767767 1.29895 2.236584 .663008 2.5 0 2.5-.663008 2.5-1.29895 2.236584-1.767767 1.767767-2.236584 1.29895-2.5 .663008-2.5 0-2.5-.663008-2.236584-1.29895-1.767767-1.767767-1.29895-2.236584-.663008-2.5 0-2.5Z" fill="#d62728"/>
<path transform="matrix(1,0,0,-1,207.81314,246.97663)" stroke-width="1" stroke-linecap="butt" stroke-linejoin="round" fill="none" stroke="#d62728" d="M0-2.5C.663008-2.5 1.29895-2.236584 1.767767-1.767767 2.236584-1.29895 2.5-.663008 2.5 0 2.5 .663008 2.236584 1.29895 1.767767 1.767767 1.29895 2.236584 .663008 2.5 0 2.5-.663008 2.5-1.29895 2.236584-1.767767 1.767767-2.236584 1.29895-2.5 .663008-2.5 0-2.5-.663008-2.236584-1.29895-1.767767-1.767767-1.29895-2.236584-.663008-2.5 0-2.5Z"/>
</g>
<g clip-path="url(#clip_28)">
<path transform="matrix(1,0,0,-1,249.4379,248.2254)" d="M0-2.5C.663008-2.5 1.29895-2.236584 1.767767-1.767767 2.236584-1.29895 2.5-.663008 2.5 0 2.5 .663008 2.236584 1.29895 1.767767 1.767767 1.29895 2.236584 .663008 2.5 0 2.5-.663008 2.5-1.29895 2.236584-1.767767 1.767767-2.236584 1.29895-2.5 .663008-2.5 0-2.5-.663008-2.236584-1.29895-1.767767-1.767767-1.29895-2.236584-.663008-2.5 0-2.5Z" fill="#d62728"/>
<path transform="matrix(1,0,0,-1,249.4379,248.2254)" stroke-width="1" stroke-linecap="butt" stroke-linejoin="round" fill="none" stroke="#d62728" d="M0-2.5C.663008-2.5 1.29895-2.236584 1.767767-1.767767 2.236584-1.29895 2.5-.663008 2.5 0 2.5 .663008 2.236584 1.29895 1.767767 1.767767 1.29895 2.236584 .663008 2.5 0 2.5-.663008 2.5-1.29895 2.236584-1.767767 1.767767-2.236584 1.29895-2.5 .663008-2.5 0-2.5-.663008-2.236584-1.29895-1.767767-1.767767-1.29895-2.236584-.663008-2.5 0-2.5Z"/>
</g>
<g clip-path="url(#clip_29)">
<path transform="matrix(1,0,0,-1,282.21434,245.68361)" d="M0-2.5C.663008-2.5 1.29895-2.236584 1.767767-1.767767 2.236584-1.29895 2.5-.663008 2.5 0 2.5 .663008 2.236584 1.29895 1.767767 1.767767 1.29895 2.236584 .663008 2.5 0 2.5-.663008 2.5-1.29895 2.236584-1.767767 1.767767-2.236584 1.29895-2.5 .663008-2.5 0-2.5-.663008-2.236584-1.29895-1.767767-1.767767-1.29895-2.236584-.663008-2.5 0-2.5Z" fill="#d62728"/>
<path transform="matrix(1,0,0,-1,282.21434,245.68361)" stroke-width="1" stroke-linecap="butt" stroke-linejoin="round" fill="none" stroke="#d62728" d="M0-2.5C.663008-2.5 1.29895-2.236584 1.767767-1.767767 2.236584-1.29895 2.5-.663008 2.5 0 2.5 .663008 2.236584 1.29895 1.767767 1.767767 1.29895 2.236584 .663008 2.5 0 2.5-.663008 2.5-1.29895 2.236584-1.767767 1.767767-2.236584 1.29895-2.5 .663008-2.5 0-2.5-.663008-2.236584-1.29895-1.767767-1.767767-1.29895-2.236584-.663008-2.5 0-2.5Z"/>
</g>
<g clip-path="url(#clip_30)">
<path transform="matrix(1,0,0,-1,304.53794,243.26064)" d="M0-2.5C.663008-2.5 1.29895-2.236584 1.767767-1.767767 2.236584-1.29895 2.5-.663008 2.5 0 2.5 .663008 2.236584 1.29895 1.767767 1.767767 1.29895 2.236584 .663008 2.5 0 2.5-.663008 2.5-1.29895 2.236584-1.767767 1.767767-2.236584 1.29895-2.5 .663008-2.5 0-2.5-.663008-2.236584-1.29895-1.767767-1.767767-1.29895-2.236584-.663008-2.5 0-2.5Z" fill="#d62728"/>
<path transform="matrix(1,0,0,-1,304.53794,243.26064)" stroke-width="1" stroke-linecap="butt" stroke-linejoin="round" fill="none" stroke="#d62728" d="M0-2.5C.663008-2.5 1.29895-2.236584 1.767767-1.767767 2.236584-1.29895 2.5-.663008 2.5 0 2.5 .663008 2.236584 1.29895 1.767767 1.767767 1.29895 2.236584 .663008 2.5 0 2.5-.663008 2.5-1.29895 2.236584-1.767767 1.767767-2.236584 1.29895-2.5 .663008-2.5 0-2.5-.663008-2.236584-1.29895-1.767767-1.767767-1.29895-2.236584-.663008-2.5 0-2.5Z"/>
</g>
<g clip-path="url(#clip_31)">
<path transform="matrix(1,0,0,-1,319.96336,243.63584)" d="M0-2.5C.663008-2.5 1.29895-2.236584 1.767767-1.767767 2.236584-1.29895 2.5-.663008 2.5 0 2.5 .663008 2.236584 1.29895 1.767767 1.767767 1.29895 2.236584 .663008 2.5 0 2.5-.663008 2.5-1.29895 2.236584-1.767767 1.767767-2.236584 1.29895-2.5 .663008-2.5 0-2.5-.663008-2.236584-1.29895-1.767767-1.767767-1.29895-2.236584-.663008-2.5 0-2.5Z" fill="#d62728"/>
<path transform="matrix(1,0,0,-1,319.96336,243.63584)" stroke-width="1" stroke-linecap="butt" stroke-linejoin="round" fill="none" stroke="#d62728" d="M0-2.5C.663008-2.5 1.29895-2.236584 1.767767-1.767767 2.236584-1.29895 2.5-.663008 2.5 0 2.5 .663008 2.236584 1.29895 1.767767 1.767767 1.29895 2.236584 .663008 2.5 0 2.5-.663008 2.5-1.29895 2.236584-1.767767 1.767767-2.236584 1.29895-2.5 .663008-2.5 0-2.5-.663008-2.236584-1.29895-1.767767-1.767767-1.29895-2.236584-.663008-2.5 0-2.5Z"/>
</g>
</g>
<g clip-path="url(#clip_32)">
<path transform="matrix(1,0,0,-1,0,338.4)" stroke-width="1.5" stroke-linecap="butt" stroke-dasharray="5.55,2.4" stroke-linejoin="round" fill="none" stroke="#d62728" d="M-1 99.916507H329.0066"/>
</g>
<g clip-path="url(#clip_33)">
<path transform="matrix(1,0,0,-1,0,338.4)" stroke-width="1.5" stroke-linecap="square" stroke-linejoin="round" fill="none" stroke="#9467bd" d="M66.15051 110.91206 124.47212 168.66555 167.03032 208.07137 194.23403 232.68877 231.563 252.02678 250.50302 256.29277 270.27616 257.69184 283.9119 260.2971 295.29557 251.77014"/>
<g clip-path="url(#clip_34)">
<path transform="matrix(1,0,0,-1,66.15051,227.48793)" d="M0-2.5C.663008-2.5 1.29895-2.236584 1.767767-1.767767 2.236584-1.29895 2.5-.663008 2.5 0 2.5 .663008 2.236584 1.29895 1.767767 1.767767 1.29895 2.236584 .663008 2.5 0 2.5-.663008 2.5-1.29895 2.236584-1.767767 1.767767-2.236584 1.29895-2.5 .663008-2.5 0-2.5-.663008-2.236584-1.29895-1.767767-1.767767-1.29895-2.236584-.663008-2.5 0-2.5Z" fill="#9467bd"/>
<path transform="matrix(1,0,0,-1,66.15051,227.48793)" stroke-width="1" stroke-linecap="butt" stroke-linejoin="round" fill="none" stroke="#9467bd" d="M0-2.5C.663008-2.5 1.29895-2.236584 1.767767-1.767767 2.236584-1.29895 2.5-.663008 2.5 0 2.5 .663008 2.236584 1.29895 1.767767 1.767767 1.29895 2.236584 .663008 2.5 0 2.5-.663008 2.5-1.29895 2.236584-1.767767 1.767767-2.236584 1.29895-2.5 .663008-2.5 0-2.5-.663008-2.236584-1.29895-1.767767-1.767767-1.29895-2.236584-.663008-2.5 0-2.5Z"/>
</g>
<g clip-path="url(#clip_35)">
<path transform="matrix(1,0,0,-1,124.47212,169.73447)" d="M0-2.5C.663008-2.5 1.29895-2.236584 1.767767-1.767767 2.236584-1.29895 2.5-.663008 2.5 0 2.5 .663008 2.236584 1.29895 1.767767 1.767767 1.29895 2.236584 .663008 2.5 0 2.5-.663008 2.5-1.29895 2.236584-1.767767 1.767767-2.236584 1.29895-2.5 .663008-2.5 0-2.5-.663008-2.236584-1.29895-1.767767-1.767767-1.29895-2.236584-.663008-2.5 0-2.5Z" fill="#9467bd"/>
<path transform="matrix(1,0,0,-1,124.47212,169.73447)" stroke-width="1" stroke-linecap="butt" stroke-linejoin="round" fill="none" stroke="#9467bd" d="M0-2.5C.663008-2.5 1.29895-2.236584 1.767767-1.767767 2.236584-1.29895 2.5-.663008 2.5 0 2.5 .663008 2.236584 1.29895 1.767767 1.767767 1.29895 2.236584 .663008 2.5 0 2.5-.663008 2.5-1.29895 2.236584-1.767767 1.767767-2.236584 1.29895-2.5 .663008-2.5 0-2.5-.663008-2.236584-1.29895-1.767767-1.767767-1.29895-2.236584-.663008-2.5 0-2.5Z"/>
</g>
<g clip-path="url(#clip_36)">
<path transform="matrix(1,0,0,-1,167.03032,130.32865)" d="M0-2.5C.663008-2.5 1.29895-2.236584 1.767767-1.767767 2.236584-1.29895 2.5-.663008 2.5 0 2.5 .663008 2.236584 1.29895 1.767767 1.767767 1.29895 2.236584 .663008 2.5 0 2.5-.663008 2.5-1.29895 2.236584-1.767767 1.767767-2.236584 1.29895-2.5 .663008-2.5 0-2.5-.663008-2.236584-1.29895-1.767767-1.767767-1.29895-2.236584-.663008-2.5 0-2.5Z" fill="#9467bd"/>
<path transform="matrix(1,0,0,-1,167.03032,130.32865)" stroke-width="1" stroke-linecap="butt" stroke-linejoin="round" fill="none" stroke="#9467bd" d="M0-2.5C.663008-2.5 1.29895-2.236584 1.767767-1.767767 2.236584-1.29895 2.5-.663008 2.5 0 2.5 .663008 2.236584 1.29895 1.767767 1.767767 1.29895 2.236584 .663008 2.5 0 2.5-.663008 2.5-1.29895 2.236584-1.767767 1.767767-2.236584 1.29895-2.5 .663008-2.5 0-2.5-.663008-2.236584-1.29895-1.767767-1.767767-1.29895-2.236584-.663008-2.5 0-2.5Z"/>
</g>
<g clip-path="url(#clip_37)">
<path transform="matrix(1,0,0,-1,194.23403,105.71124)" d="M0-2.5C.663008-2.5 1.29895-2.236584 1.767767-1.767767 2.236584-1.29895 2.5-.663008 2.5 0 2.5 .663008 2.236584 1.29895 1.767767 1.767767 1.29895 2.236584 .663008 2.5 0 2.5-.663008 2.5-1.29895 2.236584-1.767767 1.767767-2.236584 1.29895-2.5 .663008-2.5 0-2.5-.663008-2.236584-1.29895-1.767767-1.767767-1.29895-2.236584-.663008-2.5 0-2.5Z" fill="#9467bd"/>
<path transform="matrix(1,0,0,-1,194.23403,105.71124)" stroke-width="1" stroke-linecap="butt" stroke-linejoin="round" fill="none" stroke="#9467bd" d="M0-2.5C.663008-2.5 1.29895-2.236584 1.767767-1.767767 2.236584-1.29895 2.5-.663008 2.5 0 2.5 .663008 2.236584 1.29895 1.767767 1.767767 1.29895 2.236584 .663008 2.5 0 2.5-.663008 2.5-1.29895 2.236584-1.767767 1.767767-2.236584 1.29895-2.5 .663008-2.5 0-2.5-.663008-2.236584-1.29895-1.767767-1.767767-1.29895-2.236584-.663008-2.5 0-2.5Z"/>
</g>
<g clip-path="url(#clip_38)">
<path transform="matrix(1,0,0,-1,231.563,86.37323)" d="M0-2.5C.663008-2.5 1.29895-2.236584 1.767767-1.767767 2.236584-1.29895 2.5-.663008 2.5 0 2.5 .663008 2.236584 1.29895 1.767767 1.767767 1.29895 2.236584 .663008 2.5 0 2.5-.663008 2.5-1.29895 2.236584-1.767767 1.767767-2.236584 1.29895-2.5 .663008-2.5 0-2.5-.663008-2.236584-1.29895-1.767767-1.767767-1.29895-2.236584-.663008-2.5 0-2.5Z" fill="#9467bd"/>
<path transform="matrix(1,0,0,-1,231.563,86.37323)" stroke-width="1" stroke-linecap="butt" stroke-linejoin="round" fill="none" stroke="#9467bd" d="M0-2.5C.663008-2.5 1.29895-2.236584 1.767767-1.767767 2.236584-1.29895 2.5-.663008 2.5 0 2.5 .663008 2.236584 1.29895 1.767767 1.767767 1.29895 2.236584 .663008 2.5 0 2.5-.663008 2.5-1.29895 2.236584-1.767767 1.767767-2.236584 1.29895-2.5 .663008-2.5 0-2.5-.663008-2.236584-1.29895-1.767767-1.767767-1.29895-2.236584-.663008-2.5 0-2.5Z"/>
</g>
<g clip-path="url(#clip_39)">
<path transform="matrix(1,0,0,-1,250.50302,82.10724)" d="M0-2.5C.663008-2.5 1.29895-2.236584 1.767767-1.767767 2.236584-1.29895 2.5-.663008 2.5 0 2.5 .663008 2.236584 1.29895 1.767767 1.767767 1.29895 2.236584 .663008 2.5 0 2.5-.663008 2.5-1.29895 2.236584-1.767767 1.767767-2.236584 1.29895-2.5 .663008-2.5 0-2.5-.663008-2.236584-1.29895-1.767767-1.767767-1.29895-2.236584-.663008-2.5 0-2.5Z" fill="#9467bd"/>
<path transform="matrix(1,0,0,-1,250.50302,82.10724)" stroke-width="1" stroke-linecap="butt" stroke-linejoin="round" fill="none" stroke="#9467bd" d="M0-2.5C.663008-2.5 1.29895-2.236584 1.767767-1.767767 2.236584-1.29895 2.5-.663008 2.5 0 2.5 .663008 2.236584 1.29895 1.767767 1.767767 1.29895 2.236584 .663008 2.5 0 2.5-.663008 2.5-1.29895 2.236584-1.767767 1.767767-2.236584 1.29895-2.5 .663008-2.5 0-2.5-.663008-2.236584-1.29895-1.767767-1.767767-1.29895-2.236584-.663008-2.5 0-2.5Z"/>
</g>
<g clip-path="url(#clip_40)">
<path transform="matrix(1,0,0,-1,270.27616,80.70817)" d="M0-2.5C.663008-2.5 1.29895-2.236584 1.767767-1.767767 2.236584-1.29895 2.5-.663008 2.5 0 2.5 .663008 2.236584 1.29895 1.767767 1.767767 1.29895 2.236584 .663008 2.5 0 2.5-.663008 2.5-1.29895 2.236584-1.767767 1.767767-2.236584 1.29895-2.5 .663008-2.5 0-2.5-.663008-2.236584-1.29895-1.767767-1.767767-1.29895-2.236584-.663008-2.5 0-2.5Z" fill="#9467bd"/>
<path transform="matrix(1,0,0,-1,270.27616,80.70817)" stroke-width="1" stroke-linecap="butt" stroke-linejoin="round" fill="none" stroke="#9467bd" d="M0-2.5C.663008-2.5 1.29895-2.236584 1.767767-1.767767 2.236584-1.29895 2.5-.663008 2.5 0 2.5 .663008 2.236584 1.29895 1.767767 1.767767 1.29895 2.236584 .663008 2.5 0 2.5-.663008 2.5-1.29895 2.236584-1.767767 1.767767-2.236584 1.29895-2.5 .663008-2.5 0-2.5-.663008-2.236584-1.29895-1.767767-1.767767-1.29895-2.236584-.663008-2.5 0-2.5Z"/>
</g>
<g clip-path="url(#clip_41)">
<path transform="matrix(1,0,0,-1,283.9119,78.102909)" d="M0-2.5C.663008-2.5 1.29895-2.236584 1.767767-1.767767 2.236584-1.29895 2.5-.663008 2.5 0 2.5 .663008 2.236584 1.29895 1.767767 1.767767 1.29895 2.236584 .663008 2.5 0 2.5-.663008 2.5-1.29895 2.236584-1.767767 1.767767-2.236584 1.29895-2.5 .663008-2.5 0-2.5-.663008-2.236584-1.29895-1.767767-1.767767-1.29895-2.236584-.663008-2.5 0-2.5Z" fill="#9467bd"/>
<path transform="matrix(1,0,0,-1,283.9119,78.102909)" stroke-width="1" stroke-linecap="butt" stroke-linejoin="round" fill="none" stroke="#9467bd" d="M0-2.5C.663008-2.5 1.29895-2.236584 1.767767-1.767767 2.236584-1.29895 2.5-.663008 2.5 0 2.5 .663008 2.236584 1.29895 1.767767 1.767767 1.29895 2.236584 .663008 2.5 0 2.5-.663008 2.5-1.29895 2.236584-1.767767 1.767767-2.236584 1.29895-2.5 .663008-2.5 0-2.5-.663008-2.236584-1.29895-1.767767-1.767767-1.29895-2.236584-.663008-2.5 0-2.5Z"/>
</g>
<g clip-path="url(#clip_42)">
<path transform="matrix(1,0,0,-1,295.29557,86.62986)" d="M0-2.5C.663008-2.5 1.29895-2.236584 1.767767-1.767767 2.236584-1.29895 2.5-.663008 2.5 0 2.5 .663008 2.236584 1.29895 1.767767 1.767767 1.29895 2.236584 .663008 2.5 0 2.5-.663008 2.5-1.29895 2.236584-1.767767 1.767767-2.236584 1.29895-2.5 .663008-2.5 0-2.5-.663008-2.236584-1.29895-1.767767-1.767767-1.29895-2.236584-.663008-2.5 0-2.5Z" fill="#9467bd"/>
<path transform="matrix(1,0,0,-1,295.29557,86.62986)" stroke-width="1" stroke-linecap="butt" stroke-linejoin="round" fill="none" stroke="#9467bd" d="M0-2.5C.663008-2.5 1.29895-2.236584 1.767767-1.767767 2.236584-1.29895 2.5-.663008 2.5 0 2.5 .663008 2.236584 1.29895 1.767767 1.767767 1.29895 2.236584 .663008 2.5 0 2.5-.663008 2.5-1.29895 2.236584-1.767767 1.767767-2.236584 1.29895-2.5 .663008-2.5 0-2.5-.663008-2.236584-1.29895-1.767767-1.767767-1.29895-2.236584-.663008-2.5 0-2.5Z"/>
</g>
</g>
<g clip-path="url(#clip_43)">
<path transform="matrix(1,0,0,-1,0,338.4)" stroke-width="1.5" stroke-linecap="butt" stroke-dasharray="5.55,2.4" stroke-linejoin="round" fill="none" stroke="#9467bd" d="M-1 300.827H329.0066"/>
</g>
<path transform="matrix(1,0,0,-1,0,338.4)" stroke-width=".8" stroke-linecap="square" stroke-miterlimit="10" stroke-linejoin="miter" fill="none" stroke="#000000" d="M44.66 52.87745V312.63414"/>
<path transform="matrix(1,0,0,-1,0,338.4)" stroke-width=".8" stroke-linecap="square" stroke-miterlimit="10" stroke-linejoin="miter" fill="none" stroke="#000000" d="M327.6 52.87745V312.63414"/>
<path transform="matrix(1,0,0,-1,0,338.4)" stroke-width=".8" stroke-linecap="square" stroke-miterlimit="10" stroke-linejoin="miter" fill="none" stroke="#000000" d="M44.66 52.87745H327.6"/>
<path transform="matrix(1,0,0,-1,0,338.4)" stroke-width=".8" stroke-linecap="square" stroke-miterlimit="10" stroke-linejoin="miter" fill="none" stroke="#000000" d="M44.66 312.63414H327.6"/>
<g>
<path transform="matrix(1,0,0,-1,0,338.4)" d="M51.66 245.38411H150.36313C151.69646 245.38411 152.36313 246.05078 152.36313 247.38411V305.63414C152.36313 306.96745 151.69646 307.63414 150.36313 307.63414H51.66C50.326669 307.63414 49.66 306.96745 49.66 305.63414V247.38411C49.66 246.05078 50.326669 245.38411 51.66 245.38411Z" fill="#ffffff" fill-opacity=".8"/>
<path transform="matrix(1,0,0,-1,0,338.4)" stroke-width="1" stroke-linecap="butt" stroke-miterlimit="10" stroke-linejoin="miter" fill="none" stroke="#cccccc" stroke-opacity=".8" d="M51.66 245.38411H150.36313C151.69646 245.38411 152.36313 246.05078 152.36313 247.38411V305.63414C152.36313 306.96745 151.69646 307.63414 150.36313 307.63414H51.66C50.326669 307.63414 49.66 306.96745 49.66 305.63414V247.38411C49.66 246.05078 50.326669 245.38411 51.66 245.38411Z"/>
</g>
<path transform="matrix(1,0,0,-1,0,338.4)" stroke-width="1.5" stroke-linecap="square" stroke-linejoin="round" fill="none" stroke="#ff7f0e" d="M53.66 299.54039H63.66 73.66"/>
<path transform="matrix(1,0,0,-1,0,338.4)" d="M63.66 297.04039C64.323009 297.04039 64.95895 297.30378 65.427768 297.7726 65.89658 298.24143 66.16 298.87736 66.16 299.54039 66.16 300.20338 65.89658 300.83934 65.427768 301.30815 64.95895 301.77696 64.323009 302.04039 63.66 302.04039 62.99699 302.04039 62.36105 301.77696 61.892236 301.30815 61.423418 300.83934 61.16 300.20338 61.16 299.54039 61.16 298.87736 61.423418 298.24143 61.892236 297.7726 62.36105 297.30378 62.99699 297.04039 63.66 297.04039Z" fill="#ff7f0e"/>
<path transform="matrix(1,0,0,-1,0,338.4)" stroke-width="1" stroke-linecap="butt" stroke-linejoin="round" fill="none" stroke="#ff7f0e" d="M63.66 297.04039C64.323009 297.04039 64.95895 297.30378 65.427768 297.7726 65.89658 298.24143 66.16 298.87736 66.16 299.54039 66.16 300.20338 65.89658 300.83934 65.427768 301.30815 64.95895 301.77696 64.323009 302.04039 63.66 302.04039 62.99699 302.04039 62.36105 301.77696 61.892236 301.30815 61.423418 300.83934 61.16 300.20338 61.16 299.54039 61.16 298.87736 61.423418 298.24143 61.892236 297.7726 62.36105 297.30378 62.99699 297.04039 63.66 297.04039Z"/>
<use data-text="c" xlink:href="#font_1_99" transform="matrix(10,0,0,-10,81.66,42.35962)"/>
<use data-text="l" xlink:href="#font_1_108" transform="matrix(10,0,0,-10,87.16,42.35962)"/>
<use data-text="i" xlink:href="#font_1_105" transform="matrix(10,0,0,-10,89.94,42.35962)"/>
<use data-text="n" xlink:href="#font_1_110" transform="matrix(10,0,0,-10,92.72,42.35962)"/>
<use data-text="t" xlink:href="#font_1_116" transform="matrix(10,0,0,-10,99.060009,42.35962)"/>
<use data-text="o" xlink:href="#font_1_111" transform="matrix(10,0,0,-10,102.98,42.35962)"/>
<use data-text="x" xlink:href="#font_1_120" transform="matrix(10,0,0,-10,108.80313,42.35962)"/>
<use data-text="_" xlink:href="#font_1_95" transform="matrix(10,0,0,-10,114.72313,42.35962)"/>
<use data-text="1" xlink:href="#font_1_49" transform="matrix(10,0,0,-10,119.72313,42.35962)"/>
<path transform="matrix(1,0,0,-1,0,338.4)" stroke-width="1.5" stroke-linecap="square" stroke-linejoin="round" fill="none" stroke="#2ca02c" d="M53.66 284.58726H63.66 73.66"/>
<path transform="matrix(1,0,0,-1,0,338.4)" d="M63.66 282.08726C64.323009 282.08726 64.95895 282.35066 65.427768 282.8195 65.89658 283.2883 66.16 283.92424 66.16 284.58726 66.16 285.25025 65.89658 285.8862 65.427768 286.355 64.95895 286.82383 64.323009 287.08726 63.66 287.08726 62.99699 287.08726 62.36105 286.82383 61.892236 286.355 61.423418 285.8862 61.16 285.25025 61.16 284.58726 61.16 283.92424 61.423418 283.2883 61.892236 282.8195 62.36105 282.35066 62.99699 282.08726 63.66 282.08726Z" fill="#2ca02c"/>
<path transform="matrix(1,0,0,-1,0,338.4)" stroke-width="1" stroke-linecap="butt" stroke-linejoin="round" fill="none" stroke="#2ca02c" d="M63.66 282.08726C64.323009 282.08726 64.95895 282.35066 65.427768 282.8195 65.89658 283.2883 66.16 283.92424 66.16 284.58726 66.16 285.25025 65.89658 285.8862 65.427768 286.355 64.95895 286.82383 64.323009 287.08726 63.66 287.08726 62.99699 287.08726 62.36105 286.82383 61.892236 286.355 61.423418 285.8862 61.16 285.25025 61.16 284.58726 61.16 283.92424 61.423418 283.2883 61.892236 282.8195 62.36105 282.35066 62.99699 282.08726 63.66 282.08726Z"/>
<use data-text="m" xlink:href="#font_1_109" transform="matrix(10,0,0,-10,81.66,57.312746)"/>
<use data-text="i" xlink:href="#font_1_105" transform="matrix(10,0,0,-10,91.4,57.312746)"/>
<use data-text="c" xlink:href="#font_1_99" transform="matrix(10,0,0,-10,94.18001,57.312746)"/>
<use data-text="r" xlink:href="#font_1_114" transform="matrix(10,0,0,-10,99.68001,57.312746)"/>
<use data-text="o" xlink:href="#font_1_111" transform="matrix(10,0,0,-10,103.57126,57.312746)"/>
<use data-text="n" xlink:href="#font_1_110" transform="matrix(10,0,0,-10,109.69125,57.312746)"/>
<use data-text="u" xlink:href="#font_1_117" transform="matrix(10,0,0,-10,116.03126,57.312746)"/>
<use data-text="c" xlink:href="#font_1_99" transform="matrix(10,0,0,-10,122.37126,57.312746)"/>
<use data-text="l" xlink:href="#font_1_108" transform="matrix(10,0,0,-10,127.87126,57.312746)"/>
<use data-text="e" xlink:href="#font_1_101" transform="matrix(10,0,0,-10,130.65126,57.312746)"/>
<use data-text="u" xlink:href="#font_1_117" transform="matrix(10,0,0,-10,136.80126,57.312746)"/>
<use data-text="s" xlink:href="#font_1_115" transform="matrix(10,0,0,-10,143.14127,57.312746)"/>
<path transform="matrix(1,0,0,-1,0,338.4)" stroke-width="1.5" stroke-linecap="square" stroke-linejoin="round" fill="none" stroke="#d62728" d="M53.66 269.91539H63.66 73.66"/>
<path transform="matrix(1,0,0,-1,0,338.4)" d="M63.66 267.41539C64.323009 267.41539 64.95895 267.67878 65.427768 268.1476 65.89658 268.61643 66.16 269.25236 66.16 269.91539 66.16 270.57838 65.89658 271.21434 65.427768 271.68315 64.95895 272.15196 64.323009 272.41539 63.66 272.41539 62.99699 272.41539 62.36105 272.15196 61.892236 271.68315 61.423418 271.21434 61.16 270.57838 61.16 269.91539 61.16 269.25236 61.423418 268.61643 61.892236 268.1476 62.36105 267.67878 62.99699 267.41539 63.66 267.41539Z" fill="#d62728"/>
<path transform="matrix(1,0,0,-1,0,338.4)" stroke-width="1" stroke-linecap="butt" stroke-linejoin="round" fill="none" stroke="#d62728" d="M63.66 267.41539C64.323009 267.41539 64.95895 267.67878 65.427768 268.1476 65.89658 268.61643 66.16 269.25236 66.16 269.91539 66.16 270.57838 65.89658 271.21434 65.427768 271.68315 64.95895 272.15196 64.323009 272.41539 63.66 272.41539 62.99699 272.41539 62.36105 272.15196 61.892236 271.68315 61.423418 271.21434 61.16 270.57838 61.16 269.91539 61.16 269.25236 61.423418 268.61643 61.892236 268.1476 62.36105 267.67878 62.99699 267.41539 63.66 267.41539Z"/>
<use data-text="s" xlink:href="#font_1_115" transform="matrix(10,0,0,-10,81.66,71.98462)"/>
<use data-text="i" xlink:href="#font_1_105" transform="matrix(10,0,0,-10,86.87,71.98462)"/>
<use data-text="d" xlink:href="#font_1_100" transform="matrix(10,0,0,-10,89.65,71.98462)"/>
<use data-text="e" xlink:href="#font_1_101" transform="matrix(10,0,0,-10,96,71.98462)"/>
<use data-text="r" xlink:href="#font_1_114" transform="matrix(10,0,0,-10,102.15,71.98462)"/>
<use data-text="_" xlink:href="#font_1_95" transform="matrix(10,0,0,-10,106.26,71.98462)"/>
<use data-text="0" xlink:href="#font_1_48" transform="matrix(10,0,0,-10,111.26,71.98462)"/>
<path transform="matrix(1,0,0,-1,0,338.4)" stroke-width="1.5" stroke-linecap="square" stroke-linejoin="round" fill="none" stroke="#9467bd" d="M53.66 254.96224H63.66 73.66"/>
<path transform="matrix(1,0,0,-1,0,338.4)" d="M63.66 252.46224C64.323009 252.46224 64.95895 252.72566 65.427768 253.19448 65.89658 253.6633 66.16 254.29924 66.16 254.96224 66.16 255.62525 65.89658 256.2612 65.427768 256.73 64.95895 257.19883 64.323009 257.46226 63.66 257.46226 62.99699 257.46226 62.36105 257.19883 61.892236 256.73 61.423418 256.2612 61.16 255.62525 61.16 254.96224 61.16 254.29924 61.423418 253.6633 61.892236 253.19448 62.36105 252.72566 62.99699 252.46224 63.66 252.46224Z" fill="#9467bd"/>
<path transform="matrix(1,0,0,-1,0,338.4)" stroke-width="1" stroke-linecap="butt" stroke-linejoin="round" fill="none" stroke="#9467bd" d="M63.66 252.46224C64.323009 252.46224 64.95895 252.72566 65.427768 253.19448 65.89658 253.6633 66.16 254.29924 66.16 254.96224 66.16 255.62525 65.89658 256.2612 65.427768 256.73 64.95895 257.19883 64.323009 257.46226 63.66 257.46226 62.99699 257.46226 62.36105 257.19883 61.892236 256.73 61.423418 256.2612 61.16 255.62525 61.16 254.96224 61.16 254.29924 61.423418 253.6633 61.892236 253.19448 62.36105 252.72566 62.99699 252.46224 63.66 252.46224Z"/>
<use data-text="b" xlink:href="#font_1_98" transform="matrix(10,0,0,-10,81.66,86.93776)"/>
<use data-text="b" xlink:href="#font_1_98" transform="matrix(10,0,0,-10,88.01,86.93776)"/>
<use data-text="b" xlink:href="#font_1_98" transform="matrix(10,0,0,-10,94.36,86.93776)"/>
<use data-text="p" xlink:href="#font_1_112" transform="matrix(10,0,0,-10,100.71001,86.93776)"/>
</svg>
